<svg width="13" height="16" viewBox="0 0 13 16" fill="none" xmlns="http://www.w3.org/2000/svg">
<path d="M10.8239 8.49896C10.8302 7.88937 10.9913 7.29138 11.292 6.76106C11.5927 6.23074 12.0231 5.78546 12.5429 5.46696C12.2124 4.99684 11.7775 4.60969 11.2722 4.3359C10.767 4.06211 10.2052 3.90913 9.63088 3.88896C8.39088 3.76296 7.21088 4.61896 6.58188 4.61896C5.95288 4.61896 4.98388 3.90996 3.95888 3.92696C3.28363 3.9465 2.62503 4.1411 2.0476 4.49169C1.47017 4.84229 0.993702 5.33686 0.664879 5.92696C-0.735121 8.36396 0.304879 11.974 1.67388 13.95C2.34288 14.917 3.13988 16.004 4.18688 15.965C5.19488 15.925 5.57688 15.313 6.79588 15.313C8.01488 15.313 8.35788 15.965 9.42488 15.945C10.5099 15.925 11.1979 14.959 11.8619 13.989C12.3355 13.2907 12.706 12.5279 12.9619 11.724C12.33 11.4544 11.791 11.0058 11.4112 10.4334C11.0314 9.86097 10.8276 9.18988 10.8249 8.50296L10.8239 8.49896ZM8.81888 2.58096C9.42011 1.87599 9.71812 0.961834 9.64788 0.0379639C8.74095 0.12597 7.902 0.557432 7.30288 1.24396C7.00399 1.57738 6.77524 1.96753 6.63024 2.39118C6.48524 2.81483 6.42697 3.26333 6.45888 3.70996C6.91255 3.71572 7.36144 3.61687 7.77073 3.42107C8.18001 3.22527 8.53867 2.9378 8.81888 2.58096Z" fill="white"/>
</svg>
