<svg width="73" height="73" viewBox="0 0 73 73" fill="none" xmlns="http://www.w3.org/2000/svg">
<circle cx="36.5" cy="36.5" r="36.5" fill="#C39586" fill-opacity="0.12"/>
<circle cx="36.5" cy="36.5" r="27.01" fill="#C39586" fill-opacity="0.29"/>
<path d="M36.1349 24.8808C29.9226 24.8808 24.8807 29.9227 24.8807 36.135C24.8807 42.3473 29.9226 47.3892 36.1349 47.3892C42.3472 47.3892 47.3891 42.3473 47.3891 36.135C47.3891 29.9227 42.3472 24.8808 36.1349 24.8808ZM36.1349 28.2571C38.0031 28.2571 39.5112 29.7651 39.5112 31.6333C39.5112 33.5015 38.0031 35.0096 36.1349 35.0096C34.2667 35.0096 32.7587 33.5015 32.7587 31.6333C32.7587 29.7651 34.2667 28.2571 36.1349 28.2571ZM36.1349 44.238C33.3214 44.238 30.8342 42.7975 29.3824 40.6142C29.4162 38.3746 33.8841 37.1479 36.1349 37.1479C38.3745 37.1479 42.8536 38.3746 42.8874 40.6142C41.4356 42.7975 38.9484 44.238 36.1349 44.238Z" fill="#B26B5E"/>
</svg>
