<svg width="222" height="221" viewBox="0 0 222 221" fill="none" xmlns="http://www.w3.org/2000/svg">
<path d="M220.13 1H1V220.13H220.13V1Z" fill="white"/>
<g opacity="0.1">
<path opacity="0.1" d="M220.113 214.942V220.113H214.942" stroke="#20263C" stroke-miterlimit="10"/>
<path opacity="0.1" d="M205.013 220.113H11.135" stroke="#20263C" stroke-miterlimit="10" stroke-dasharray="5.77 5.77"/>
<path opacity="0.1" d="M6.17101 220.113H1V214.942" stroke="#20263C" stroke-miterlimit="10"/>
<path opacity="0.1" d="M1 204.996V11.1352" stroke="#20263C" stroke-miterlimit="10" stroke-dasharray="5.77 5.77"/>
<path opacity="0.1" d="M1 6.17101V1H6.17101" stroke="#20263C" stroke-miterlimit="10"/>
<path opacity="0.1" d="M16.1167 1H209.978" stroke="#20263C" stroke-miterlimit="10" stroke-dasharray="5.77 5.77"/>
<path opacity="0.1" d="M214.942 1H220.113V6.17101" stroke="#20263C" stroke-miterlimit="10"/>
<path opacity="0.1" d="M220.113 16.0994V209.978" stroke="#20263C" stroke-miterlimit="10" stroke-dasharray="5.77 5.77"/>
</g>
<path d="M146.753 123.415C145.004 121.477 143.52 119.315 142.341 116.985C140.478 113.334 137.903 110.093 134.768 107.453C131.633 104.812 128.002 102.826 124.087 101.61C120.664 100.552 117.082 100.103 113.504 100.283C116.108 100.134 118.673 100.975 120.683 102.638C122.694 104.3 124.002 106.66 124.346 109.246C125.287 114.834 127.764 120.05 131.499 124.311C135.233 128.572 140.079 131.711 145.495 133.378C151.688 135.281 158.324 135.178 164.456 133.085C157.626 131.971 151.381 128.56 146.753 123.415Z" fill="#414042"/>
<path d="M102.558 100.628C103.354 104.124 104.754 107.455 106.695 110.47C105.278 108.281 104.732 105.64 105.166 103.068C105.6 100.496 106.982 98.1803 109.039 96.5772C113.409 92.9631 116.689 88.2069 118.515 82.8386C120.341 77.4702 120.641 71.7004 119.381 66.1717C117.944 59.8471 114.533 54.1431 109.643 49.8831C112.078 56.3918 112.218 63.5369 110.039 70.1362C109.205 72.6276 108.046 74.9979 106.592 77.186C104.359 80.6231 102.838 84.4733 102.118 88.5086C101.399 92.5439 101.496 96.6824 102.403 100.68L102.558 100.628Z" fill="#414042"/>
<path d="M119.02 111.177C117.847 113.508 115.836 115.31 113.391 116.221C110.945 117.132 108.246 117.085 105.833 116.089C100.517 114.097 94.7522 113.622 89.182 114.718C83.6116 115.814 78.4557 118.437 74.2905 122.294C69.5413 126.713 66.318 132.525 65.0859 138.893C69.5053 133.529 75.622 129.832 82.426 128.413C84.9822 127.89 87.5936 127.688 90.1998 127.81C94.2878 128.022 98.3767 127.413 102.225 126.018C106.074 124.624 109.604 122.473 112.607 119.692C115.236 117.251 117.418 114.369 119.054 111.177H119.02Z" fill="#414042"/>
<path d="M22.279 189.229L13.288 170.507H10.143L7.035 196H10.439L12.77 176.834L20.799 193.188H23.833L31.788 176.834L34.119 196H37.523L34.415 170.507H31.27L22.279 189.229ZM55.8282 196H59.1582V178.721H55.8282V181.311C54.6442 179.35 52.1652 178.351 49.7602 178.351C45.0242 178.351 40.9912 181.829 40.9912 187.342C40.9912 192.818 45.0242 196.37 49.7602 196.37C52.1652 196.37 54.6812 195.26 55.8282 193.336V196ZM55.7912 187.305C55.7912 190.968 53.1272 193.077 50.0562 193.077C46.9482 193.077 44.4322 190.709 44.4322 187.305C44.4322 183.901 46.9482 181.644 50.0562 181.644C52.8682 181.644 55.7912 183.605 55.7912 187.305ZM68.1234 187.564L76.0044 196H80.4444L71.2684 186.195L78.6684 178.721H74.0804L68.1234 184.752V169.323H64.7934V196H68.1234V187.564ZM84.5017 186.01C84.9087 183.087 87.1287 181.385 89.9777 181.385C92.7897 181.385 94.8247 183.087 95.2317 186.01H84.5017ZM98.5617 187.305C98.5617 181.829 94.8987 178.351 89.9777 178.351C85.0567 178.351 81.1347 181.829 81.1347 187.305C81.1347 192.781 85.0567 196.37 89.9777 196.37C93.3447 196.37 96.4527 194.853 97.9327 191.782C97.0077 191.375 95.9347 191.079 95.0467 190.672C94.0477 192.411 92.1607 193.336 90.0887 193.336C87.1287 193.336 84.9087 191.56 84.5017 188.637H98.5247C98.5617 188.23 98.5617 187.712 98.5617 187.305ZM126.92 189.229L117.929 170.507H114.784L111.676 196H115.08L117.411 176.834L125.44 193.188H128.474L136.429 176.834L138.76 196H142.164L139.056 170.507H135.911L126.92 189.229ZM148.999 186.01C149.406 183.087 151.626 181.385 154.475 181.385C157.287 181.385 159.322 183.087 159.729 186.01H148.999ZM163.059 187.305C163.059 181.829 159.396 178.351 154.475 178.351C149.554 178.351 145.632 181.829 145.632 187.305C145.632 192.781 149.554 196.37 154.475 196.37C157.842 196.37 160.95 194.853 162.43 191.782C161.505 191.375 160.432 191.079 159.544 190.672C158.545 192.411 156.658 193.336 154.586 193.336C151.626 193.336 149.406 191.56 148.999 188.637H163.022C163.059 188.23 163.059 187.712 163.059 187.305ZM186.681 193.04C183.536 193.04 180.835 190.783 180.835 187.231V170.507H177.357V187.231C177.357 192.781 181.612 196.37 186.681 196.37C191.676 196.37 196.005 192.781 196.005 187.231V170.507H192.527V187.231C192.527 190.783 189.826 193.04 186.681 193.04ZM205.176 178.721H201.809V204.399H205.176V193.41C206.36 195.371 208.765 196.37 211.207 196.37C215.943 196.37 219.865 192.892 219.865 187.416C219.865 181.94 215.943 178.351 211.207 178.351C208.765 178.351 206.36 179.461 205.176 181.422V178.721ZM205.213 187.453C205.213 183.79 207.84 181.644 210.874 181.644C213.982 181.644 216.461 184.012 216.461 187.453C216.461 190.894 213.982 193.077 210.874 193.077C208.099 193.077 205.213 191.153 205.213 187.453Z" fill="#414042"/>
</svg>
