<svg width="267" height="245" viewBox="0 0 267 245" fill="none" xmlns="http://www.w3.org/2000/svg">
<path d="M194.262 85.8493C194.356 85.8681 194.431 85.8869 194.525 85.9058C194.431 85.8681 194.356 85.8493 194.262 85.8493C194.262 85.8305 194.262 85.8305 194.262 85.8493Z" fill="#F4C0B5"/>
<path d="M198.872 56.0266C196.952 55.8196 195.014 55.1611 193.66 54.2391C193.17 57.6824 192.136 65.3403 191.759 72.7348C196.614 77.2318 199.248 81.2207 198.157 84.7016C198.815 84.0618 199.38 83.1963 199.85 82.1803C198.608 66.8456 198.552 59.5451 198.872 56.0266Z" fill="#F4C0B5"/>
<path d="M195.71 44.5491C193.772 47.5031 192.437 50.6265 192.117 52.4705C192.38 53.129 192.926 53.7123 193.66 54.2391C194.995 55.1611 196.952 55.8196 198.871 56.0266C199.041 54.1262 199.342 53.3172 199.624 52.9409C198.646 50.7394 197.648 48.538 196.651 46.4683C196.331 45.8097 196.03 45.17 195.71 44.5491Z" fill="#6969FF"/>
<path d="M201.374 44.4174C201.826 41.1247 202.07 38.2835 202.202 38.0201C200.904 38.7351 199.662 39.7511 198.533 40.9553C199.53 42.1783 200.415 43.2696 200.791 43.7212C200.998 43.947 201.186 44.1728 201.374 44.4174Z" fill="#6969FF"/>
<path d="M122.255 59.5075L119.395 59.2441L118.209 80.1858L121.389 80.5245C122.443 73.3369 122.612 65.1145 122.631 61.5584C122.443 60.8622 122.311 60.1849 122.255 59.5075Z" fill="#9292FF"/>
<path d="M95.4047 241.887H99.8075L100.748 214.379C98.5281 213.664 96.4019 212.93 94.4075 212.177L95.4047 241.887Z" fill="#664040"/>
<path d="M149.104 241.906H153.507L154.279 219.684C152.566 220.268 150.591 220.701 148.408 220.983L149.104 241.906Z" fill="#664040"/>
<path d="M108.274 241.887H112.677L113.505 217.841C111.454 217.37 109.422 216.862 107.428 216.335L108.274 241.887Z" fill="#664040"/>
<path d="M135.614 221.209L136.253 240.645H140.656L141.315 221.397C139.49 221.397 137.57 221.34 135.614 221.209Z" fill="#664040"/>
<path d="M214.225 226.025C213.981 226.571 213.604 227.136 213.096 227.681C213.134 227.738 213.172 227.813 213.209 227.888C213.529 228.509 212.626 229.055 212.268 228.49C211.779 228.904 211.215 229.318 210.613 229.694C210.951 230.24 210.067 230.729 209.653 230.24C209.183 230.485 208.693 230.692 208.185 230.899C208.505 231.482 207.583 231.99 207.207 231.407C207.169 231.35 207.151 231.313 207.113 231.256C206.398 231.463 205.645 231.614 204.893 231.708C204.987 231.933 205.081 232.14 205.156 232.385C205.382 233.062 204.309 233.363 204.084 232.686C203.971 232.366 203.839 232.065 203.688 231.783C199.474 231.802 199.003 229.676 199.003 229.676C194.168 230.673 193.566 234.662 193.566 234.662C195.635 238.914 220.547 235.603 221.018 234.022C221.356 232.874 220.096 227.531 219.362 224.708C219.155 223.862 218.553 223.203 217.781 222.883C217.668 224.069 217.499 225.028 217.179 225.404C216.502 226.195 215.298 226.289 214.225 226.025Z" fill="#FF3956"/>
<path d="M251.329 225.141C251.367 223.786 253.079 220.588 255.375 221.529C255.732 221.679 256.033 221.905 256.297 222.187C256.278 222.074 256.24 221.961 256.222 221.848C255.808 219.986 255.205 217.765 254.754 216.147C254.02 217.747 252.308 219.064 248.714 218.518C248.94 219.346 249.354 220.795 249.862 222.149C250.295 223.335 250.784 224.445 251.235 225.047C251.254 225.085 251.292 225.122 251.329 225.141Z" fill="#FFD6CA"/>
<path d="M211.215 217.464C211.233 218.725 211.328 220.889 211.534 222.601C213.19 222.507 214.978 224.031 214.3 225.837C214.282 225.912 214.244 225.969 214.206 226.044C215.298 226.308 216.483 226.214 217.179 225.386C217.48 225.009 217.668 224.05 217.781 222.864C217.951 221.077 217.932 218.819 217.932 217.37C215.956 218.518 213.021 218.574 211.215 217.464Z" fill="#FFD6CA"/>
<path d="M210.293 216.674C210.537 216.975 210.857 217.239 211.196 217.464C213.002 218.574 215.937 218.518 217.913 217.351C218.308 217.126 218.647 216.843 218.948 216.542C219.851 214.924 220.472 198.366 220.679 183.766C215.504 183.446 210.612 182.655 207.188 181.545C208.298 196.861 209.86 215.15 210.293 216.674Z" fill="#00A3C9"/>
<path d="M254.735 216.147C255.092 215.357 255.224 214.51 255.224 213.795C255.205 211.368 245.346 156.803 245.346 156.803C245.346 156.803 243.333 131.251 240.717 116.556C239.739 116.801 238.779 117.027 237.82 117.234C240.153 134.563 243.163 158.854 244.706 179.306C242.975 180.981 240.096 182.147 236.615 182.881C240.002 196.842 244.537 214.849 246.983 218.16C247.604 218.33 248.168 218.443 248.695 218.537C252.289 219.045 254.001 217.728 254.735 216.147Z" fill="#00A3C9"/>
<path d="M265.667 234.737C265.328 233.872 264.707 232.743 263.936 231.538C261.452 227.625 257.539 222.77 257.539 222.77C257.219 222.356 256.767 222.055 256.221 221.848C256.24 221.961 256.278 222.074 256.297 222.187C256.541 222.45 256.729 222.789 256.842 223.147C256.993 223.579 257.181 224.05 257.369 224.501C257.708 224.426 258.047 224.351 258.385 224.313C259.1 224.219 259.081 225.348 258.385 225.423C258.517 225.405 258.423 225.423 258.329 225.442C258.178 225.461 258.047 225.499 257.896 225.536C257.877 225.536 257.877 225.536 257.858 225.555C258.028 225.894 258.197 226.232 258.385 226.552C258.762 226.458 259.157 226.383 259.533 226.326C260.248 226.232 260.229 227.361 259.533 227.437C259.665 227.418 259.571 227.437 259.477 227.455C259.326 227.474 259.194 227.512 259.044 227.549C259.006 227.549 258.987 227.568 258.95 227.568C259.157 227.926 259.364 228.264 259.571 228.584C259.909 228.49 260.267 228.434 260.624 228.396C261.339 228.302 261.32 229.431 260.624 229.506C260.756 229.487 260.662 229.506 260.568 229.525C260.455 229.544 260.323 229.582 260.21 229.6C260.436 229.939 260.643 230.259 260.831 230.541C261.189 230.447 261.565 230.372 261.923 230.334C262.638 230.24 262.619 231.369 261.923 231.444C262.054 231.425 261.96 231.444 261.866 231.463C261.753 231.482 261.622 231.52 261.509 231.538C261.791 231.934 261.96 232.159 261.96 232.159C261.96 232.159 262.299 235.095 257.275 235.189C257.219 235.189 256.899 234.756 256.447 234.097C256.24 234.267 256.052 234.417 255.864 234.587C255.318 235.057 254.528 234.267 255.074 233.796C255.318 233.589 255.582 233.363 255.826 233.157C255.619 232.837 255.394 232.498 255.168 232.14C254.961 232.31 254.754 232.479 254.547 232.649C254.001 233.119 253.211 232.329 253.757 231.858C254.02 231.632 254.283 231.407 254.566 231.181C254.359 230.842 254.152 230.504 253.945 230.165C253.775 230.297 253.625 230.428 253.456 230.579C252.91 231.049 252.12 230.259 252.665 229.789C252.891 229.6 253.117 229.393 253.361 229.205C253.155 228.848 252.948 228.509 252.759 228.189C252.609 228.321 252.458 228.434 252.308 228.566C251.762 229.036 250.972 228.246 251.518 227.775C251.743 227.587 251.969 227.399 252.195 227.211C251.743 226.402 251.405 225.762 251.329 225.499C251.311 225.405 251.292 225.292 251.292 225.179C251.254 225.141 251.217 225.103 251.198 225.085C250.727 224.483 250.238 223.372 249.824 222.187C249.787 222.225 249.768 222.243 249.749 222.281C248.639 224.181 250.464 229.939 251.461 232.46C251.894 233.552 252.891 236.073 254.208 238.481C255.92 241.624 258.159 244.615 260.417 244.201C264.425 243.43 267.059 238.368 265.667 234.737Z" fill="#FF3956"/>
<path d="M252.778 228.17C252.966 228.49 253.173 228.848 253.38 229.186C254.848 228.02 256.56 227.004 258.385 226.533C258.197 226.195 258.028 225.856 257.858 225.536C257.444 225.63 257.03 225.762 256.635 225.913C255.224 226.421 253.945 227.23 252.778 228.17Z" fill="#A31134"/>
<path d="M260.173 231.915C258.818 232.423 257.576 233.175 256.466 234.06C256.918 234.737 257.238 235.151 257.294 235.151C262.318 235.057 261.979 232.122 261.979 232.122C261.979 232.122 261.81 231.896 261.527 231.501C261.509 231.501 261.471 231.52 261.452 231.52C261.019 231.632 260.587 231.764 260.173 231.915Z" fill="#A31134"/>
<path d="M258.874 229.977C257.538 230.466 256.297 231.218 255.187 232.103C255.412 232.46 255.638 232.799 255.845 233.119C257.313 231.952 259.025 230.955 260.831 230.503C260.643 230.221 260.436 229.901 260.21 229.563C260.191 229.563 260.154 229.581 260.135 229.581C259.721 229.694 259.288 229.826 258.874 229.977Z" fill="#A31134"/>
<path d="M253.963 230.165C254.17 230.504 254.377 230.842 254.584 231.181C256.052 230.033 257.764 229.036 259.57 228.584C259.363 228.264 259.156 227.907 258.95 227.568C258.554 227.662 258.159 227.794 257.764 227.926C256.391 228.434 255.111 229.224 253.963 230.165Z" fill="#A31134"/>
<path d="M255.375 221.529C253.06 220.607 251.348 223.786 251.329 225.141C251.329 225.273 251.329 225.386 251.367 225.461C251.442 225.743 251.781 226.364 252.232 227.173C253.738 225.969 255.506 224.915 257.388 224.464C257.181 223.993 256.993 223.542 256.861 223.109C256.748 222.752 256.56 222.432 256.315 222.149C256.033 221.905 255.732 221.679 255.375 221.529Z" fill="#A31134"/>
<path d="M255.093 233.777C254.547 234.248 255.337 235.038 255.883 234.568C256.071 234.398 256.278 234.229 256.466 234.078C257.595 233.175 258.837 232.423 260.173 231.933C260.587 231.783 261.001 231.651 261.433 231.538C261.452 231.538 261.49 231.52 261.509 231.52C261.622 231.501 261.753 231.463 261.866 231.444C261.96 231.425 262.054 231.425 261.923 231.425C262.619 231.35 262.638 230.221 261.923 230.315C261.546 230.353 261.189 230.428 260.831 230.522C259.006 230.974 257.294 231.99 255.845 233.138C255.582 233.345 255.337 233.552 255.093 233.777Z" fill="white"/>
<path d="M253.775 231.839C253.23 232.31 254.02 233.1 254.566 232.63C254.773 232.46 254.98 232.291 255.187 232.122C256.297 231.237 257.539 230.485 258.874 229.996C259.288 229.845 259.721 229.713 260.135 229.6C260.154 229.6 260.192 229.582 260.21 229.582C260.323 229.563 260.455 229.525 260.568 229.506C260.662 229.488 260.756 229.488 260.624 229.488C261.32 229.412 261.339 228.283 260.624 228.377C260.267 228.415 259.928 228.49 259.571 228.566C257.764 229.017 256.052 229.996 254.585 231.162C254.321 231.388 254.039 231.614 253.775 231.839Z" fill="white"/>
<path d="M252.703 229.77C252.157 230.24 252.948 231.03 253.493 230.56C253.644 230.428 253.813 230.278 253.982 230.146C255.13 229.205 256.41 228.434 257.802 227.907C258.178 227.756 258.573 227.644 258.987 227.549C259.025 227.549 259.044 227.531 259.081 227.531C259.232 227.493 259.364 227.474 259.514 227.437C259.608 227.418 259.702 227.418 259.571 227.418C260.267 227.342 260.286 226.214 259.571 226.308C259.175 226.345 258.799 226.439 258.423 226.533C256.598 227.004 254.886 228.02 253.418 229.186C253.155 229.393 252.929 229.582 252.703 229.77Z" fill="white"/>
<path d="M252.214 227.192C251.988 227.38 251.762 227.568 251.536 227.756C250.991 228.227 251.781 229.017 252.327 228.547C252.477 228.415 252.628 228.283 252.778 228.17C253.945 227.23 255.224 226.42 256.635 225.912C257.031 225.762 257.445 225.63 257.858 225.536C257.877 225.536 257.877 225.536 257.896 225.517C258.047 225.48 258.178 225.461 258.329 225.423C258.423 225.404 258.517 225.404 258.385 225.404C259.081 225.329 259.1 224.2 258.385 224.294C258.047 224.332 257.708 224.407 257.369 224.482C255.488 224.934 253.719 225.988 252.214 227.192Z" fill="white"/>
<path d="M206.341 228.509C207.188 229.149 207.583 229.958 208.148 230.823C208.167 230.842 208.166 230.861 208.166 230.88C208.675 230.692 209.164 230.466 209.634 230.221C209.615 230.202 209.615 230.202 209.596 230.184C209.088 229.506 208.787 228.791 208.072 228.283C207.414 227.813 206.661 227.512 205.927 227.23C205.777 227.173 205.683 227.06 205.626 226.947C205.212 227.173 204.78 227.38 204.347 227.587C205.062 227.756 205.739 228.057 206.341 228.509Z" fill="#A31134"/>
<path d="M203.688 231.745C203.086 230.654 202.108 229.807 200.941 229.299C200.828 229.243 200.753 229.186 200.697 229.092C200.038 229.318 199.455 229.506 199.003 229.638C199.003 229.657 199.455 231.783 203.688 231.745Z" fill="#A31134"/>
<path d="M211.215 225.63C211.986 226.176 212.626 226.872 213.077 227.681C213.585 227.136 213.962 226.571 214.206 226.025C214.244 225.95 214.263 225.894 214.3 225.818C214.978 224.012 213.209 222.488 211.535 222.582C210.782 222.62 210.067 222.996 209.597 223.786C209.427 224.087 209.183 224.37 208.9 224.671C209.709 224.896 210.481 225.122 211.215 225.63Z" fill="#A31134"/>
<path d="M204.892 231.689C205.645 231.614 206.379 231.463 207.113 231.237C206.736 230.635 206.435 230.014 205.871 229.544C205.25 229.017 204.478 228.697 203.688 228.603C203.406 228.565 203.237 228.359 203.18 228.133C202.785 228.302 202.409 228.453 202.032 228.603C203.293 229.28 204.29 230.372 204.892 231.689Z" fill="#A31134"/>
<path d="M208.825 227.455C209.615 228.058 209.973 228.848 210.556 229.619C210.575 229.638 210.575 229.657 210.594 229.676C211.196 229.299 211.76 228.904 212.25 228.471C212.25 228.453 212.231 228.453 212.231 228.434C211.798 227.625 211.215 226.929 210.424 226.439C209.615 225.931 208.75 225.8 207.847 225.574C207.489 225.837 207.113 226.082 206.699 226.345C207.452 226.646 208.185 226.966 208.825 227.455Z" fill="#A31134"/>
<path d="M200.922 229.299C202.108 229.807 203.067 230.654 203.669 231.745C203.82 232.028 203.97 232.329 204.065 232.648C204.29 233.326 205.382 233.025 205.137 232.347C205.062 232.122 204.968 231.896 204.874 231.67C204.272 230.353 203.274 229.28 202.014 228.584C201.844 228.49 201.675 228.396 201.487 228.321C200.96 228.095 200.471 228.697 200.678 229.073C200.734 229.186 200.809 229.262 200.922 229.299Z" fill="white"/>
<path d="M203.67 228.603C204.479 228.697 205.25 229.017 205.852 229.544C206.417 230.014 206.718 230.635 207.094 231.237C207.132 231.294 207.151 231.331 207.188 231.388C207.565 231.971 208.486 231.463 208.167 230.88C208.167 230.861 208.148 230.842 208.148 230.823C207.583 229.977 207.169 229.149 206.342 228.509C205.739 228.039 205.062 227.756 204.328 227.587C204.102 227.531 203.877 227.493 203.651 227.474C203.237 227.437 203.068 227.794 203.143 228.133C203.218 228.359 203.387 228.565 203.67 228.603Z" fill="white"/>
<path d="M205.946 227.23C206.68 227.531 207.433 227.832 208.091 228.283C208.806 228.791 209.107 229.506 209.615 230.184C209.615 230.202 209.634 230.202 209.653 230.221C210.086 230.71 210.951 230.221 210.612 229.676C210.594 229.657 210.594 229.638 210.575 229.619C209.992 228.848 209.634 228.057 208.844 227.455C208.204 226.966 207.451 226.627 206.718 226.326C206.567 226.27 206.398 226.195 206.247 226.138C205.739 225.931 205.438 226.533 205.645 226.929C205.683 227.06 205.796 227.173 205.946 227.23Z" fill="white"/>
<path d="M210.443 226.439C211.233 226.928 211.817 227.625 212.249 228.434C212.249 228.453 212.268 228.453 212.268 228.471C212.626 229.036 213.529 228.49 213.209 227.869C213.171 227.794 213.134 227.738 213.096 227.662C212.626 226.834 212.005 226.157 211.233 225.611C210.499 225.103 209.728 224.878 208.919 224.671C208.674 224.614 208.411 224.539 208.148 224.482C207.451 224.313 207.15 225.386 207.846 225.555H207.865C208.768 225.8 209.634 225.931 210.443 226.439Z" fill="white"/>
<path d="M239.193 40.9553C237.594 39.5065 234.395 38.7163 231.234 37.9825L227.941 47.6348C230.632 42.4041 234.677 39.5253 239.193 40.9553Z" fill="#9292FF"/>
<path d="M234.508 70.4205C234.696 79.9789 234.621 90.986 234.602 93.7895H237.218C240.134 89.1609 237.575 72.6596 238.046 66.2435C238.347 64.5313 238.648 62.6685 238.911 60.7682C238.667 60.787 238.29 60.8058 237.801 60.8058C237.142 63.1577 236.032 66.7515 234.508 70.4205Z" fill="#9292FF"/>
<path d="M207.677 52.0565C211.742 52.1694 216.897 52.4517 221.526 52.8656L228.168 37.2487C227.453 37.0605 226.775 36.8724 226.154 36.6654C225.326 37.7755 224.386 38.7915 223.313 39.5818C223.163 39.6947 223.012 39.8076 222.843 39.9017C222.692 39.9957 222.523 40.0898 222.354 40.1839C222.184 40.278 222.015 40.3532 221.845 40.4285C221.168 40.7295 220.453 40.9365 219.682 41.0118C219.305 41.0494 218.91 41.0494 218.496 41.0118C217.48 40.9177 216.558 40.5226 215.768 39.9393C215.58 39.7888 215.392 39.6382 215.222 39.4501C214.244 38.4717 213.623 37.1358 213.604 35.7058C212.551 35.9316 210.914 36.1197 209.183 36.3267L206.473 50.5513C206.868 51.0781 207.282 51.5673 207.677 52.0565Z" fill="#9292FF"/>
<path d="M235.129 98.023C235.694 101.918 236.691 108.729 237.839 117.234C238.798 117.027 239.758 116.801 240.736 116.556C241.338 116.406 241.94 116.236 242.561 116.067C241.357 111.25 240.736 101.636 237.349 97.2892V97.7031L235.129 98.023Z" fill="#9292FF"/>
<path d="M203.463 46.9387L206.247 36.7594C204.422 37.0605 202.86 37.4368 202.221 38.0013C202.221 38.0013 202.221 38.0201 202.202 38.0201C202.07 38.2835 201.826 41.1246 201.374 44.4174C202.089 45.2641 202.766 46.092 203.463 46.9387Z" fill="#9292FF"/>
<path d="M66.5229 237.051C64.7731 236.788 65.3563 234.492 64.4344 233.044C62.2329 233.928 59.7305 234.549 57.7172 234.793C53.1262 235.358 52.3171 239.065 52.3171 239.065C53.9917 243.223 77.6053 242.019 78.1321 240.551C78.4708 239.648 77.6805 235.339 77.022 232.197C75.4227 236.713 70.4177 237.597 66.5229 237.051Z" fill="#4B3C4F"/>
<path d="M70.06 220.663L69.8906 228.528C69.5331 230.334 67.2188 231.896 64.4153 233.025C65.3561 234.474 64.754 236.769 66.5038 237.033C70.3986 237.578 75.4224 236.694 76.9841 232.197C76.589 230.297 76.2503 228.81 76.2503 228.81C76.4949 227.004 76.7207 224.501 76.8712 221.641C75.6106 222.356 73.1269 223.053 70.06 220.663Z" fill="#FFD6CA"/>
<path d="M63.5686 182.618C65.0174 200.831 68.9875 218.97 69.4202 220.136C69.6272 220.324 69.8342 220.494 70.0412 220.644C73.1269 223.034 75.5918 222.356 76.8712 221.641C77.4921 221.303 77.8308 220.964 77.8308 220.964C77.8308 220.964 78.6023 213.362 79.1291 203.296C73.5409 198.103 67.9903 191.16 63.5686 182.618Z" fill="#A31134"/>
<path d="M13.4063 203.672C11.9952 202.6 13.6133 200.869 13.5004 199.138C11.1485 198.837 8.66481 198.159 6.78326 197.369C2.4933 195.601 0.00964614 198.442 0.00964614 198.442C-0.51719 202.901 20.7068 213.419 21.8734 212.403C22.5883 211.782 23.9807 207.624 24.9027 204.557C21.3653 207.737 16.5485 206.043 13.4063 203.672Z" fill="#4B3C4F"/>
<path d="M29.4184 193.061L22.0427 198.536L21.4029 199.006C19.7095 199.834 16.0969 199.458 13.5192 199.119C13.6321 200.85 12.014 202.562 13.4251 203.654C16.5673 206.043 21.3841 207.718 24.9215 204.557C24.9967 204.331 25.0532 204.124 25.1096 203.917C26.6149 203.202 29.456 201.471 32.7864 199.157C31.4505 198.555 29.4184 196.993 29.4184 193.061Z" fill="#FFD6CA"/>
<path d="M29.4373 192.251C29.4185 192.534 29.4185 192.797 29.4185 193.06C29.4185 196.993 31.4505 198.555 32.7865 199.157C33.4262 199.458 33.9154 199.514 33.9154 199.514C33.9154 199.514 48.7985 190.257 62.214 179.796C59.8997 174.847 57.9993 169.409 56.6634 163.501C42.7023 176.014 30.1146 191.16 29.4373 192.251Z" fill="#A31134"/>
<path d="M215.222 39.4689C215.392 39.6382 215.58 39.8076 215.768 39.9581C216.539 40.5602 217.48 40.9365 218.496 41.0306C218.91 41.0682 219.305 41.0682 219.682 41.0306C220.453 40.9553 221.168 40.7672 221.845 40.4473C222.015 40.372 222.184 40.278 222.353 40.2027C222.523 40.1086 222.673 40.0146 222.843 39.9205C222.993 39.8264 223.163 39.7135 223.313 39.6006C224.386 38.8104 225.345 37.7943 226.154 36.6842C225.609 36.496 225.101 36.3455 224.63 36.195C219.889 42.7616 214.752 38.2835 214.752 35.6117C214.771 35.5553 214.808 35.5176 214.827 35.4612C214.47 35.5364 214.056 35.6305 213.623 35.7246C213.623 37.1546 214.244 38.4905 215.222 39.4689Z" fill="#6969FF"/>
<path d="M224.63 36.195C223.953 31.5099 224.009 26.3357 224.141 23.1558C224.085 23.1746 224.009 23.1746 223.953 23.1746C223.934 23.2311 223.915 23.2875 223.896 23.3252C223.238 25.3008 221.94 26.9754 220.209 28.0855C218.797 28.9887 217.574 29.9483 215.467 30.6632C215.58 32.018 215.542 33.9748 214.827 35.4612C214.808 35.5177 214.79 35.5553 214.752 35.6117C214.733 38.2836 219.87 42.7429 224.63 36.195Z" fill="#F4C0B5"/>
<path d="M223.877 23.3251C223.896 23.2687 223.915 23.231 223.934 23.1746C224.009 23.1746 224.066 23.1558 224.122 23.1558C226.794 22.7607 228.958 19.261 228.939 16.9278C228.939 16.3257 228.788 15.7989 228.468 15.4414C226.775 13.4469 223.068 19.1293 223.068 19.1293C220.321 15.7989 219.174 10.1166 218.835 8.0845C216.351 9.98488 210.349 14.2936 205.739 15.1403C205.777 15.8177 205.833 16.5139 205.909 17.2101C206.36 16.8902 206.906 16.7961 207.47 16.6832C208.016 16.5703 208.242 17.417 207.696 17.5111C207.207 17.6052 206.642 17.6616 206.266 18.038C206.191 18.1132 206.097 18.1508 206.021 18.1697C206.661 23.0241 208.129 28.0667 209.427 31.6981C212.099 31.5663 213.999 31.19 215.467 30.7008C217.574 30.0047 218.797 29.0451 220.208 28.1231C221.921 26.9753 223.219 25.3008 223.877 23.3251ZM227.151 16.6832C227.584 16.5891 227.772 17.2665 227.34 17.3606C226.135 17.6052 225.157 18.4519 224.781 19.6373C224.649 20.07 223.972 19.8819 224.103 19.4491C224.555 18.038 225.703 16.9843 227.151 16.6832ZM217.969 21.9516C219.08 21.8011 219.983 22.6666 220.058 23.7391C220.096 24.1906 219.399 24.1906 219.362 23.7391C219.305 23.0053 218.684 22.5537 217.969 22.6478C217.537 22.7042 217.537 22.008 217.969 21.9516ZM212.137 15.8177C213.792 15.5919 215.918 15.479 216.916 17.0595C217.217 17.5299 216.464 17.9627 216.163 17.4923C215.448 16.3445 213.567 16.4763 212.362 16.6456C211.817 16.7397 211.572 15.893 212.137 15.8177ZM213.905 19.5432C213.623 19.7314 213.247 19.6561 213.077 19.3739C212.889 19.0916 212.983 18.7153 213.247 18.5272C213.529 18.339 213.905 18.4143 214.075 18.6965C214.263 18.9787 214.187 19.355 213.905 19.5432ZM207.47 20.1077C207.188 20.2958 206.812 20.2206 206.642 19.9383C206.454 19.6561 206.548 19.2798 206.812 19.0916C207.094 18.9035 207.47 18.9787 207.64 19.261C207.828 19.562 207.734 19.9383 207.47 20.1077ZM208.656 24.6987C208.43 24.6987 208.204 24.6234 208.054 24.4541C207.922 24.3035 207.865 24.0777 207.884 23.8896C207.903 23.5697 208.054 23.2311 208.185 22.93C209.051 20.992 209.22 19.2421 209.22 17.1348C209.22 16.9843 209.22 16.8526 209.277 16.7209C209.596 16.0811 210.123 16.8714 210.199 17.2101C210.236 17.3418 210.255 17.4735 210.255 17.5676C210.406 19.5432 210.556 21.5188 210.688 23.4945C210.707 23.6826 210.707 23.8896 210.65 24.0777C210.424 24.7551 209.22 24.7175 208.656 24.6987ZM210.801 26.3921C213.567 26.2039 216.144 25.0373 218.12 23.0993C218.44 22.7795 218.929 23.2687 218.609 23.5885C216.483 25.6583 213.755 26.8813 210.801 27.0882C210.349 27.1071 210.349 26.4109 210.801 26.3921Z" fill="#FFD6CA"/>
<path d="M223.068 19.1105C223.068 19.1105 226.775 13.447 228.468 15.4226C228.788 15.7989 228.939 16.3258 228.939 16.909C231.385 11.0198 228.224 2.28933 223.953 1.16039C223.05 0.915792 222.297 0.896975 221.657 1.0475C220.208 0.294876 218.252 -0.156701 215.599 0.0502703C205.946 0.765262 201.92 9.11938 204.874 15.2533C205.156 15.2344 205.438 15.1968 205.739 15.1404C210.349 14.2937 216.351 9.9849 218.835 8.08453C219.174 10.0978 220.321 15.7801 223.068 19.1105Z" fill="#664040"/>
<path d="M210.669 24.0778C210.725 23.8896 210.725 23.7015 210.706 23.4945C210.575 21.5189 210.424 19.5432 210.274 17.5676C210.274 17.4735 210.255 17.3606 210.217 17.2101C210.123 16.8902 209.615 16.1 209.295 16.7209C209.239 16.8526 209.239 17.0031 209.239 17.1348C209.239 19.2422 209.069 20.9732 208.204 22.93C208.072 23.2311 207.941 23.5698 207.903 23.8896C207.884 24.0966 207.922 24.3036 208.072 24.4541C208.223 24.6234 208.449 24.6799 208.674 24.6987C209.22 24.7175 210.424 24.7551 210.669 24.0778Z" fill="#F4C0B5"/>
<path d="M213.247 18.5272C212.965 18.7153 212.889 19.0916 213.077 19.3739C213.266 19.6561 213.623 19.7314 213.905 19.5432C214.188 19.3551 214.263 18.9788 214.075 18.6965C213.905 18.4143 213.529 18.339 213.247 18.5272Z" fill="#4B3C4F"/>
<path d="M206.812 19.0917C206.53 19.2798 206.454 19.6561 206.643 19.9384C206.831 20.2206 207.188 20.2959 207.47 20.1077C207.753 19.9196 207.828 19.5432 207.64 19.261C207.452 18.9976 207.094 18.9035 206.812 19.0917Z" fill="#4B3C4F"/>
<path d="M212.362 16.6644C213.548 16.4951 215.448 16.3634 216.163 17.5111C216.464 17.9815 217.198 17.5488 216.916 17.0784C215.937 15.4979 213.792 15.6108 212.136 15.8365C211.572 15.893 211.817 16.7397 212.362 16.6644Z" fill="#774B4B"/>
<path d="M207.696 17.4735C208.242 17.3606 208.016 16.5327 207.47 16.6456C206.906 16.7585 206.36 16.8526 205.909 17.1724C205.815 17.2289 205.739 17.3041 205.645 17.3794C205.325 17.6993 205.664 18.1508 206.021 18.1132C206.097 18.0944 206.191 18.0568 206.266 17.9815C206.642 17.624 207.188 17.5864 207.696 17.4735Z" fill="#774B4B"/>
<path d="M224.103 19.4491C223.972 19.8819 224.63 20.0512 224.781 19.6373C225.157 18.4519 226.135 17.6052 227.34 17.3606C227.772 17.2665 227.584 16.608 227.151 16.6832C225.703 16.9843 224.555 18.0379 224.103 19.4491Z" fill="#F2BBAA"/>
<path d="M218.12 23.0994C216.144 25.0374 213.566 26.204 210.801 26.3921C210.349 26.4297 210.349 27.1259 210.801 27.0883C213.755 26.8813 216.483 25.6583 218.609 23.5886C218.929 23.2687 218.44 22.7795 218.12 23.0994Z" fill="#F2BBAA"/>
<path d="M217.969 22.6478C218.684 22.5537 219.305 23.0053 219.362 23.7391C219.399 24.1907 220.096 24.1907 220.058 23.7391C219.983 22.6666 219.079 21.8011 217.969 21.9516C217.537 22.0081 217.537 22.7043 217.969 22.6478Z" fill="#F2BBAA"/>
<path d="M170.215 60.3918C171.194 59.8274 172.041 59.0183 172.756 58.0963C171.702 57.3249 170.629 56.5535 169.557 55.782C169.914 57.0615 170.103 58.7172 170.215 60.3918Z" fill="#9292FF"/>
<path d="M191.759 72.7349C187.037 68.3696 180.244 63.4964 172.756 58.0963C172.022 59.0371 171.175 59.8462 170.216 60.3918C170.253 61.1068 170.291 61.8218 170.291 62.5368C173.019 65.7919 175.747 69.2352 178.118 72.2457C179.717 74.2966 181.147 76.1405 182.276 77.6269C184.685 80.7691 188.053 83.3845 191.948 85.0403C192.738 85.3789 193.528 85.6612 194.262 85.8493C194.356 85.8681 194.431 85.887 194.525 85.9058C196.313 86.3197 197.743 86.1316 198.157 84.7204C199.248 81.2019 196.614 77.2318 191.759 72.7349Z" fill="#FFD6CA"/>
<path d="M165.944 56.0454C163.818 54.1262 156.085 53.5618 151.005 53.4113C152.341 54.4461 155.972 57.0803 159.904 58.228C162.764 59.0559 165.173 58.7549 166.716 58.3598C167.261 58.9807 167.826 59.6392 168.39 60.2978C167.788 58.5667 166.998 56.9862 165.944 56.0454Z" fill="#9292FF"/>
<path d="M152.717 64.1361C152.604 63.7975 152.491 63.4588 152.397 63.1201L152.585 64.1549L152.717 64.1361Z" fill="#4B3C4F"/>
<path d="M138.699 86.0563C137.57 84.043 136.761 81.4841 136.178 78.6806C135.218 79.1698 134.184 79.6214 132.81 79.9412C132.603 81.7099 132.114 83.9489 130.985 85.2472C133.487 86.9782 138.003 86.188 138.699 86.0563Z" fill="#F4C0B5"/>
<path d="M136.178 78.6806C135.463 75.2373 135.087 71.4742 134.917 67.9369C134.635 68.2191 134.278 68.4073 133.901 68.5202C133.506 68.6331 133.092 68.6519 132.697 68.6143C132.302 68.5578 131.907 68.4449 131.549 68.238C131.211 68.031 130.891 67.7676 130.684 67.4101C131.079 67.523 131.418 67.617 131.756 67.6923C132.095 67.7676 132.434 67.824 132.772 67.8804C133.111 67.9181 133.45 67.9369 133.807 67.9557C134.165 67.9557 134.522 67.9557 134.917 67.9369C134.88 67.109 134.842 66.2999 134.823 65.5097C134.748 65.4721 134.673 65.3968 134.635 65.3027C134.353 64.5501 133.356 63.6469 132.49 64.0797C132.057 64.3055 131.681 63.6469 132.114 63.44C133.092 62.9508 134.127 63.4212 134.805 64.1926C134.767 61.8971 134.805 59.8274 134.861 58.2281C131.568 60.0155 127.241 61.9912 123.797 62.2922C123.779 62.518 123.779 62.7626 123.779 62.9884C124.287 62.5745 125.002 62.4428 125.623 62.6874C126.055 62.8755 125.867 63.5905 125.416 63.4023C124.908 63.1954 124.324 63.3271 124.004 63.7975C123.929 63.8915 123.854 63.948 123.76 63.9668C123.76 69.7056 124.945 75.99 126.074 80.4304C129.047 80.5622 131.154 80.3552 132.791 79.9601C134.165 79.6214 135.218 79.1698 136.178 78.6806ZM124.757 67.7111C124.531 67.6359 124.362 67.5041 124.23 67.3348C124.098 67.1655 124.004 66.9773 123.986 66.7327C124.23 66.7515 124.418 66.808 124.569 66.8644C124.738 66.9209 124.87 66.9773 125.002 67.0149C125.133 67.0526 125.265 67.109 125.397 67.1466C125.547 67.1843 125.698 67.2407 125.942 67.2407C125.886 67.4853 125.679 67.6547 125.453 67.7111C125.227 67.8052 124.964 67.8052 124.757 67.7111ZM125.961 72.8666C125.717 72.8289 125.491 72.7349 125.34 72.5467C125.209 72.3774 125.19 72.1328 125.227 71.907C125.284 71.5683 125.472 71.2108 125.641 70.9098C126.77 68.9153 127.128 67.0526 127.335 64.7947C127.354 64.6442 127.372 64.4748 127.448 64.3619C127.862 63.7222 128.332 64.6254 128.388 64.9829C128.407 65.1334 128.426 65.2651 128.426 65.3592C128.388 67.5041 128.351 69.6303 128.294 71.7753C128.294 71.9822 128.276 72.208 128.2 72.3962C127.862 73.1112 126.563 72.9418 125.961 72.8666ZM127.052 75.4255C126.601 75.275 126.789 74.5412 127.259 74.7105C129.329 75.4067 131.455 75.482 133.581 74.9551C134.052 74.8422 134.24 75.5572 133.788 75.6701C131.531 76.2346 129.235 76.1593 127.052 75.4255Z" fill="#FFD6CA"/>
<path d="M128.2 72.3962C128.294 72.208 128.294 71.9822 128.294 71.7752C128.351 69.6303 128.388 67.5041 128.426 65.3591C128.426 65.2651 128.426 65.1334 128.388 64.9828C128.332 64.6253 127.843 63.7222 127.448 64.3619C127.372 64.4936 127.353 64.6441 127.335 64.7947C127.128 67.0525 126.77 68.9153 125.641 70.9097C125.472 71.2108 125.284 71.5683 125.227 71.907C125.19 72.1327 125.209 72.3585 125.34 72.5467C125.491 72.7348 125.717 72.8289 125.961 72.8665C126.563 72.9418 127.862 73.1112 128.2 72.3962Z" fill="#F4C0B5"/>
<path d="M125.942 67.2595C125.698 67.2407 125.547 67.2031 125.397 67.1655C125.246 67.1278 125.115 67.0714 125.002 67.0338C124.87 66.9773 124.719 66.9397 124.569 66.8832C124.4 66.8268 124.211 66.7703 123.986 66.7515C124.004 66.9961 124.098 67.1843 124.23 67.3536C124.362 67.523 124.55 67.6547 124.757 67.7299C124.983 67.8052 125.227 67.824 125.453 67.7487C125.679 67.6547 125.886 67.5042 125.942 67.2595Z" fill="#4B3C4F"/>
<path d="M133.77 75.6513C134.24 75.5384 134.033 74.8046 133.563 74.9363C131.455 75.4819 129.31 75.3879 127.241 74.6917C126.789 74.5412 126.582 75.2561 127.034 75.4067C129.235 76.1593 131.531 76.2346 133.77 75.6513Z" fill="#F2BBAA"/>
<path d="M149.292 64.3431L149.65 64.3243L148.596 58.3786L148.314 58.3974L149.292 64.3431Z" fill="#9292FF"/>
<path d="M150.384 64.2678L152.585 64.1549L152.378 63.1201L151.456 58.2092L150.647 58.2657L149.405 58.3409L150.384 64.2678Z" fill="#9292FF"/>
<path d="M147.505 58.4538H147.298L148.276 64.3995L148.559 64.3807L147.505 58.4538Z" fill="#9292FF"/>
<path d="M139.075 80.167L140.562 80.1106L138.756 64.9452L140.11 64.8699L139.075 58.943L136.554 59.0935L139.075 80.167Z" fill="#9292FF"/>
<path d="M139.96 58.8866H139.885L140.806 64.8323L140.995 64.8135L139.96 58.8866Z" fill="#9292FF"/>
<path d="M144.739 58.6043L144.607 58.6232L145.567 64.5501H145.774L144.739 58.6043Z" fill="#9292FF"/>
<path d="M146.527 64.4936H146.564L145.981 61.2385L146.527 64.4936Z" fill="#9292FF"/>
<path d="M146.489 58.5103H146.32L147.279 64.456L147.543 64.4372L146.489 58.5103Z" fill="#9292FF"/>
<path d="M140.901 58.8302L140.769 58.849L141.71 64.7759H141.936L140.901 58.8302Z" fill="#9292FF"/>
<path d="M142.086 61.1445L142.651 64.7194H142.707L142.086 61.1445Z" fill="#9292FF"/>
<path d="M144.513 63.6281L144.683 64.6065L144.513 63.6281Z" fill="#9292FF"/>
<path d="M142.651 58.7361H142.462L143.403 64.6818L143.685 64.663L142.651 58.7361Z" fill="#9292FF"/>
<path d="M149.556 85.7552L145.793 64.5501H145.774H145.567L149.048 85.7741L149.556 85.7552Z" fill="#B8B8FF"/>
<path d="M144.833 64.6065H144.683L148.088 85.3789V85.8117L148.596 85.7929L144.833 64.6065Z" fill="#B8B8FF"/>
<path d="M150.384 64.2679L153.827 85.3413L153.846 85.6047L157.515 85.4919H157.722L153.658 64.0797L152.717 64.1362L152.585 64.155L150.384 64.2679Z" fill="#B8B8FF"/>
<path d="M152.698 85.1908L152.717 85.6423L153.432 85.6235L149.65 64.3243L149.292 64.3431L152.698 85.1908Z" fill="#B8B8FF"/>
<path d="M148.559 64.3807L148.276 64.3995L151.626 84.8521L151.644 85.68L152.322 85.6612L148.559 64.3807Z" fill="#B8B8FF"/>
<path d="M140.562 80.1106L141.277 86.0375L147.693 85.8117L143.949 64.6442L143.685 64.663L143.403 64.6818L142.707 64.7194H142.65L141.935 64.7759H141.71L140.995 64.8135L140.807 64.8323L140.11 64.87L138.756 64.9452L140.562 80.1106Z" fill="#B8B8FF"/>
<path d="M147.279 64.456L150.628 84.8897L150.666 85.7176L151.306 85.6988L147.543 64.4372L147.279 64.456Z" fill="#B8B8FF"/>
<path d="M149.857 84.9274L149.895 85.7364H150.327L146.564 64.4936H146.527L149.857 84.9274Z" fill="#B8B8FF"/>
<path d="M169.557 55.7632C169.256 54.6719 168.842 53.8252 168.258 53.4113C167.826 53.0914 166.885 52.7903 165.624 52.4893C165.135 52.6022 164.834 52.6398 164.834 52.6398L164.683 52.2823C164.477 52.2447 164.27 52.1882 164.063 52.1506L164.571 51.9813L159.622 53.6182L159.377 52.9973L164.326 51.3415L164.025 50.6077L158.945 52.2823L158.7 51.6614L163.78 49.968L163.479 49.2154L158.55 50.8523L158.7 51.2475C153.714 50.5513 148.051 49.9868 144.833 49.6858C144.57 49.5917 144.306 49.5164 144.024 49.4788C143.779 49.4412 143.535 49.4412 143.309 49.46C141.804 48.1429 139.508 47.1268 135.952 47.0516C126.902 46.8634 121.803 53.2795 122.292 59.4699C122.348 60.1472 122.461 60.8434 122.649 61.502C122.631 65.0393 122.461 73.2805 121.408 80.4681C121.031 83.0834 120.523 85.5483 119.865 87.5992C123.308 85.7552 127.015 84.8521 131.004 85.2096C132.114 83.9113 132.603 81.6723 132.829 79.9036C131.192 80.2987 129.084 80.5057 126.112 80.374C124.983 75.9335 123.797 69.6303 123.797 63.9104C123.891 63.8915 123.985 63.8351 124.042 63.741C124.362 63.2706 124.945 63.1389 125.453 63.3459C125.905 63.534 126.093 62.8002 125.66 62.6309C125.02 62.3675 124.324 62.518 123.816 62.9319C123.816 62.7062 123.835 62.4616 123.835 62.2358C127.278 61.9347 131.606 59.9779 134.898 58.1716C134.842 59.7709 134.804 61.8406 134.842 64.1361C134.165 63.3647 133.13 62.8943 132.151 63.3835C131.719 63.6093 132.095 64.249 132.528 64.0232C133.374 63.5905 134.39 64.4936 134.673 65.2463C134.71 65.3403 134.786 65.4156 134.861 65.4532C134.88 66.2435 134.917 67.0526 134.955 67.8804C134.56 67.8993 134.202 67.8993 133.845 67.8993C133.487 67.8993 133.149 67.8804 132.81 67.824C132.471 67.7864 132.133 67.7299 131.794 67.6358C131.455 67.5606 131.098 67.4477 130.721 67.3536C130.928 67.7111 131.229 67.9745 131.587 68.1815C131.944 68.3885 132.339 68.5014 132.735 68.5578C133.13 68.6143 133.544 68.5766 133.939 68.4637C134.315 68.3508 134.691 68.1627 134.955 67.8804C135.124 71.399 135.482 75.1809 136.215 78.6241C136.799 81.4088 137.608 83.9678 138.737 85.9998C138.793 85.981 138.831 85.981 138.831 85.981C138.831 85.981 148.314 90.7602 150.798 94.4669C153.281 98.1923 150.798 102.859 150.798 102.859C150.798 102.859 155.389 98.0983 152.867 93.7331C152.378 92.8864 151.908 92.1337 151.475 91.4564C153.112 92.6417 154.58 93.9212 155.37 95.0878C157.853 98.8133 155.37 103.48 155.37 103.48C155.37 103.48 159.622 99.0767 157.703 94.862C157.759 94.9373 157.816 95.0125 157.872 95.0878C157.929 95.163 157.966 95.2571 158.023 95.3324C158.418 97.0634 158.587 99.246 158.437 102.106C158.154 102.953 157.872 103.48 157.872 103.48C157.872 103.48 158.079 103.273 158.38 102.877C158.324 103.63 158.249 104.439 158.136 105.286C160.318 105.211 162.84 104.364 163.103 100.845C163.423 96.6871 159.791 92.8111 158.531 89.0103C158.154 87.8438 157.835 86.6396 157.552 85.4354L153.883 85.5483L153.865 85.266L150.421 64.2114L149.443 58.2657L150.685 58.1904C150.308 57.212 149.913 56.2524 149.499 55.274C149.236 54.6531 148.897 53.9569 148.521 53.2796C149.236 53.2796 150.101 53.2984 151.061 53.336C156.141 53.4865 163.856 54.051 166.001 55.9702C167.035 56.911 167.844 58.4915 168.447 60.2225C169.745 63.9103 170.196 68.2191 170.196 68.2191C170.196 68.2191 170.385 65.5473 170.347 62.4616C170.328 61.7654 170.309 61.0504 170.272 60.3166C170.102 58.7172 169.914 57.0615 169.557 55.7632ZM148.088 85.3789L144.683 64.6253L144.513 63.6469L144.683 64.6253H144.833L148.596 85.8117L148.107 85.8305L148.088 85.3789ZM151.306 85.6988L150.666 85.7176L150.628 84.8897L147.279 64.456L146.301 58.5103L146.489 58.4915L147.542 64.4184L151.306 85.6988ZM150.327 85.7364L149.894 85.7552L149.857 84.9274L146.508 64.5125L145.981 61.2574L146.564 64.5125L150.327 85.7364ZM145.567 64.5501L144.588 58.6044H144.739L145.774 64.5313H145.793L149.556 85.7364L149.048 85.7552L145.567 64.5501ZM151.644 85.68L151.607 84.8521L148.257 64.3996L147.279 58.4538L147.486 58.435L148.54 64.3619L152.303 85.6424L151.644 85.68ZM136.554 59.0936L139.075 58.943L140.11 64.8699L140.825 64.8323L139.885 58.8866H139.96L140.995 64.8135L141.71 64.7759L140.769 58.8301H140.919L141.954 64.7571L142.65 64.7194L142.086 61.1445L142.707 64.7194L143.403 64.6818L142.462 58.7361L142.632 58.7172L143.666 64.6442L143.93 64.6253L147.674 85.7929L141.239 85.9998L140.524 80.0918L139.038 80.1482L136.554 59.0936ZM149.65 64.3243L153.432 85.6235L152.736 85.6424L152.717 85.1908L149.292 64.3431L148.314 58.3974L148.596 58.3786L149.65 64.3243Z" fill="#4B3C4F"/>
<path d="M157.816 103.517C157.816 103.517 158.098 102.99 158.381 102.144C158.55 99.2836 158.362 97.1198 157.967 95.37C157.91 95.2947 157.873 95.2006 157.816 95.1254C157.76 95.0501 157.703 94.9749 157.647 94.8996C159.566 99.1143 155.314 103.517 155.314 103.517C155.314 103.517 157.797 98.8509 155.314 95.1254C154.542 93.9588 153.075 92.6982 151.419 91.494C151.852 92.1713 152.322 92.9428 152.811 93.7707C155.332 98.1359 150.741 102.896 150.741 102.896C150.741 102.896 153.225 98.2299 150.741 94.5045C148.258 90.779 138.775 86.0186 138.775 86.0186C138.775 86.0186 138.737 86.0186 138.681 86.0374C137.984 86.1692 133.469 86.9594 130.985 85.2284C126.996 84.8709 123.289 85.7928 119.846 87.618C101.181 97.5526 90.0235 134.544 82.836 144.215C74.3314 155.693 54.8008 151.158 54.8008 151.158C55.1206 155.467 55.7416 159.588 56.6259 163.482C57.9618 169.39 59.8622 174.828 62.1765 179.777C62.6281 180.736 63.0796 181.677 63.5688 182.599C67.9717 191.141 73.5223 198.065 79.1293 203.277C80.0513 204.124 80.9733 204.933 81.8952 205.705C84.4353 207.812 88.8758 210.051 94.4264 212.158C96.402 212.911 98.5282 213.645 100.767 214.36C102.912 215.037 105.151 215.696 107.447 216.317C109.441 216.843 111.473 217.351 113.524 217.822C120.9 219.515 128.614 220.738 135.633 221.19C137.589 221.321 139.509 221.378 141.334 221.378C143.855 221.378 146.244 221.246 148.427 220.964C150.591 220.682 152.567 220.268 154.298 219.666C156.311 218.97 157.985 218.066 159.208 216.881C159.208 216.881 147.11 199.025 115.876 187.867C84.6423 176.71 62.3458 143.5 94.163 160.02C125.961 176.54 154.787 121.825 154.787 121.825C154.768 122.145 154.749 122.446 154.73 122.765C154.956 121.223 155.22 119.83 155.521 118.588C156.856 113.113 157.684 108.785 158.098 105.305C158.192 104.458 158.286 103.649 158.343 102.896C158.023 103.31 157.816 103.517 157.816 103.517Z" fill="#00A3C9"/>
<path d="M177.139 41.3317C177.346 41.1624 177.666 40.8237 178.005 40.3909C178.325 40.4474 178.833 40.4474 179.284 40.2216C179.548 40.071 180.075 39.4501 180.62 38.7351C180.094 39.6007 179.736 40.2216 179.736 40.2216C179.736 40.2216 179.774 40.2404 179.849 40.2592C180.112 40.3156 180.79 40.4285 181.354 40.1275C181.561 40.0146 181.919 39.6947 182.314 39.262C182.671 38.8857 183.066 38.4341 183.443 38.0201C183.499 37.9637 183.556 37.9072 183.593 37.832L185.606 38.2836C186.829 38.5658 188.071 38.547 189.276 38.2648L193.509 39.7512C195.127 40.3156 196.463 38.3965 195.372 37.0606C195.165 36.7971 194.958 36.5525 194.77 36.3079C194.694 36.2139 194.6 36.101 194.525 36.0069C193.547 34.5205 185.174 33.3162 184.289 33.6361C184.233 33.6549 184.158 33.7114 184.082 33.7678C183.16 33.6737 182.445 33.6549 182.22 33.749C181.994 33.8243 181.599 34.2758 181.147 34.8968C180.545 34.8591 180.131 34.8779 179.981 34.9344C179.077 35.2731 175.408 41.501 175.408 41.501C175.408 41.501 175.973 41.6892 176.594 41.5575C176.744 41.5198 176.895 41.4822 177.045 41.4069C177.064 41.3881 177.102 41.3693 177.139 41.3317Z" fill="#6969FF"/>
<path d="M163.009 48.1805L158.079 49.8175L158.249 50.2691L163.178 48.6133L163.009 48.1805Z" fill="#4B3C4F"/>
<path d="M162.482 46.8823L157.553 48.5192L157.289 47.8983L162.219 46.2425L161.918 45.5275L156.988 47.1645L157.816 49.1966L162.746 47.5408L162.482 46.8823Z" fill="#4B3C4F"/>
<path d="M161.673 44.8878L161.278 43.9282L156.329 45.5275L156.819 46.7317L156.743 46.5436L161.673 44.8878Z" fill="#4B3C4F"/>
<path d="M94.144 160.039C62.3457 143.519 84.6422 176.729 115.857 187.886C147.072 199.044 159.189 216.9 159.189 216.9C159.189 216.9 152.698 163.313 154.711 122.784C154.73 122.464 154.749 122.163 154.768 121.844C154.768 121.844 125.961 176.559 94.144 160.039Z" fill="#0090B2"/>
<path d="M237.82 117.215C236.672 108.729 235.694 101.899 235.11 98.0042L237.331 97.6843V97.2704V93.7707H237.199H234.602C234.621 90.9672 234.696 79.9601 234.508 70.4017C231.479 77.7398 226.831 85.4542 220.923 84.5699C219.475 84.5887 217.649 83.5726 215.862 82.2367C212.005 79.3391 209.032 75.4631 207.32 71.2108C206.511 69.1975 205.495 66.6951 204.328 63.9104C202.917 60.5047 201.299 56.6852 199.624 52.9221C199.342 53.2984 199.06 54.1074 198.872 56.0078C198.552 59.5263 198.608 66.8268 199.85 82.1615C200.132 85.6047 200.471 89.4619 200.866 93.7707C200.584 104.006 198.74 174.809 202.898 179.269C203.669 180.097 205.175 180.849 207.188 181.508C210.612 182.618 215.504 183.427 220.679 183.728C226.135 184.048 231.912 183.841 236.616 182.844C240.096 182.11 242.975 180.943 244.706 179.269C243.182 158.854 240.172 134.563 237.82 117.215Z" fill="#4B3C4F"/>
<path d="M207.677 52.0566C213.849 59.6204 219.079 66.3564 221.845 71.9823C223.031 67.1278 224.724 62.1417 226.041 58.5479C225.665 58.3786 225.289 58.1904 224.931 57.9835C225.063 57.0239 225.213 56.0643 225.402 55.1611L227.96 47.6537L231.253 38.0013L231.366 37.7003L228.318 37.0041L228.205 37.2863L221.563 52.9033C216.897 52.4517 211.741 52.1694 207.677 52.0566Z" fill="#4B3C4F"/>
<path d="M226.041 58.5479C224.724 62.1417 223.031 67.1278 221.845 71.9823C224.122 76.5921 224.743 80.4305 222.937 83.4033C222.447 84.2312 221.751 84.5699 220.923 84.5887C226.831 85.4918 231.479 77.7775 234.508 70.4206C236.032 66.7515 237.142 63.1578 237.801 60.8058C235.43 60.8246 230.482 60.5988 226.041 58.5479Z" fill="#F4C0B5"/>
<path d="M227.942 47.6537L225.383 55.1611C225.195 56.0831 225.025 57.0239 224.912 57.9835C225.289 58.1904 225.646 58.3786 226.022 58.5479C230.463 60.5988 235.411 60.8246 237.801 60.8058C238.29 60.8058 238.667 60.787 238.911 60.7682C239.118 60.7493 239.231 60.7493 239.231 60.7493C239.231 60.7493 245.139 44.154 239.626 41.1059C239.476 41.0494 239.325 40.993 239.193 40.9554C234.678 39.5254 230.632 42.4041 227.942 47.6537Z" fill="#6969FF"/>
<path d="M203.462 46.9387C204.478 48.1805 205.476 49.3847 206.454 50.5889L209.164 36.3643L209.276 35.7434H206.511L206.228 36.7783L203.462 46.9387Z" fill="#4B3C4F"/>
<path d="M193.509 39.7511L189.276 38.2647C188.071 38.547 186.83 38.5469 185.606 38.2835L183.593 37.8319C183.537 37.8884 183.499 37.9448 183.443 38.0201C184.252 38.4529 185.004 38.9797 185.494 39.3372C184.797 39.4689 184.12 39.7323 183.744 40.0898C182.652 41.1059 180.018 41.1623 179.341 41.9902C178.664 42.8181 179.322 43.4202 179.322 43.4202C181.015 43.1379 183.292 43.6083 184.666 43.4202C184.666 43.4202 191.91 44.8125 195.24 43.5895C195.391 43.9094 195.56 44.2292 195.71 44.5491C196.012 45.17 196.331 45.8098 196.632 46.4683C198.156 45.7721 199.568 44.8502 200.791 43.7024C200.414 43.2508 199.53 42.1595 198.533 40.9365C197.046 39.1302 195.353 37.0229 194.77 36.3079C194.958 36.5525 195.165 36.7971 195.372 37.0605C196.444 38.3964 195.108 40.3344 193.509 39.7511Z" fill="#9292FF"/>
<path d="M222.937 83.4033C224.762 80.4492 224.122 76.592 221.845 71.9822C219.08 66.3564 213.849 59.6204 207.677 52.0565C207.282 51.5673 206.868 51.0593 206.454 50.5701C205.476 49.3659 204.479 48.1617 203.463 46.9199C202.785 46.092 202.089 45.2453 201.393 44.3986C201.205 44.1728 200.998 43.9282 200.81 43.6836C199.587 44.8313 198.175 45.7533 196.651 46.4495C197.649 48.538 198.646 50.7206 199.624 52.922C201.299 56.6852 202.917 60.4859 204.328 63.9103C205.476 66.695 206.511 69.1975 207.32 71.2108C209.032 75.4631 212.005 79.3391 215.862 82.2367C217.65 83.5726 219.493 84.5887 220.923 84.5698C221.751 84.5698 222.448 84.2123 222.937 83.4033Z" fill="#FFD6CA"/>
<path d="M161.673 44.8878L156.743 46.5436L156.819 46.7317L156.988 47.1645L161.918 45.5275L161.673 44.8878Z" fill="#614D68"/>
<path d="M157.289 47.8983L157.552 48.5192L162.482 46.8822L162.219 46.2425L157.289 47.8983Z" fill="#614D68"/>
<path d="M163.178 48.6133L158.249 50.2691H158.23L158.493 50.89H158.512L163.442 49.253L163.178 48.6133Z" fill="#614D68"/>
<path d="M162.746 47.5408L157.816 49.1966L157.778 49.2154L158.042 49.8363L158.079 49.8175L163.009 48.1805L162.746 47.5408Z" fill="#614D68"/>
<path d="M158.681 51.699L158.926 52.32L164.006 50.6266L163.743 50.0056L158.681 51.699Z" fill="#614D68"/>
<path d="M159.359 53.0161L159.622 53.637L164.571 51.9813L164.307 51.3604L159.359 53.0161Z" fill="#614D68"/>
<path d="M161.918 45.5275L162.219 46.2425L162.482 46.8823L162.745 47.5408L163.009 48.1805L163.178 48.6133L163.442 49.253L163.743 50.0056L164.006 50.6454L164.307 51.3792L164.571 52.0189L164.683 52.3199L164.834 52.6774C164.834 52.6774 165.154 52.6398 165.624 52.5269C167.431 52.113 171.57 50.6077 169.914 45.6216C171.401 45.0195 182.972 40.278 183.969 39.7135C185.023 39.1114 183.725 38.8292 182.972 39.0362C182.897 39.055 182.671 39.149 182.314 39.2808C181.919 39.6947 181.561 40.0334 181.354 40.1463C180.771 40.4473 180.112 40.3344 179.849 40.278C179.021 40.6167 178.099 40.993 177.139 41.3693C177.102 41.3881 177.064 41.4257 177.045 41.4445C176.895 41.5198 176.744 41.5763 176.594 41.5951C173.903 42.6864 171.081 43.8529 169.576 44.4739C169.538 44.4927 169.5 44.5115 169.463 44.5303C167.054 39.864 160.977 43.232 160.977 43.232L161.278 43.9846L161.673 44.9443L161.918 45.5275Z" fill="#A31134"/>
</svg>
