<svg width="20" height="20" viewBox="0 0 20 20" fill="none" xmlns="http://www.w3.org/2000/svg">
<path d="M15.625 0H4.375C1.95875 0 0 1.95875 0 4.375V15.625C0 18.0413 1.95875 20 4.375 20H15.625C18.0413 20 20 18.0413 20 15.625V4.375C20 1.95875 18.0413 0 15.625 0Z" fill="#73AF00"/>
<path d="M3.00211 7.48957C3.0427 7.74961 3.19988 7.83125 3.33656 7.82063C3.49774 7.80809 3.63906 7.66074 3.63906 7.50512V6.61262C3.63906 6.56793 3.67543 6.53148 3.7202 6.53148C3.76496 6.53148 3.80133 6.56793 3.80133 6.61262V7.50895C3.80133 7.61672 3.85457 7.71719 3.94387 7.77754C3.99836 7.81445 4.06184 7.83348 4.12578 7.83348C4.16653 7.83348 4.20738 7.8257 4.24637 7.8102L4.32746 7.77777C4.33492 8.52695 4.28938 9.18539 4.28852 9.19746C4.28219 9.28684 4.34945 9.36449 4.43883 9.37082C4.44278 9.37113 4.44668 9.37129 4.45055 9.37129C4.53492 9.37129 4.60617 9.30602 4.61227 9.22059C4.61606 9.16781 4.66606 8.44676 4.65106 7.64832L4.70008 7.62871C4.74309 7.6116 4.79137 7.61367 4.83274 7.63426C5.01149 7.72332 5.22652 7.68863 5.36781 7.54742L5.39707 7.51828C5.5282 7.38691 5.57328 7.19609 5.51457 7.02004L5.37637 6.60547C5.45109 6.62797 5.53317 6.59484 5.56922 6.52289C5.6093 6.44269 5.57684 6.34523 5.49664 6.30516L5.17207 6.14289C5.11336 6.1134 5.04293 6.12246 4.99317 6.16539C4.94356 6.20852 4.92481 6.27711 4.94555 6.33937L5.20664 7.1227C5.22621 7.18133 5.21117 7.24504 5.1675 7.28879L5.13832 7.31797C5.09602 7.36027 5.0316 7.37059 4.9777 7.34395C4.8725 7.29141 4.75281 7.28156 4.64047 7.3102C4.61766 6.78934 4.56156 6.27066 4.44207 5.91215C4.41379 5.82723 4.32203 5.78109 4.23676 5.80961C4.15172 5.83781 4.10578 5.92973 4.13414 6.01484C4.25106 6.36551 4.30203 6.89988 4.32004 7.43121L4.12578 7.50891V6.61258C4.12578 6.38883 3.94379 6.20687 3.72008 6.20687C3.49641 6.20687 3.31438 6.38879 3.31438 6.61258V7.39813L3.14883 6.58039C3.13117 6.49242 3.04567 6.43508 2.95762 6.45344C2.86973 6.47133 2.81293 6.55691 2.83074 6.64473L3.00211 7.48957Z" fill="#F5F5F5"/>
<path d="M3.31453 6.12578C3.40414 6.12578 3.4768 6.0532 3.4768 5.96352V5.80125C3.4768 5.71156 3.40414 5.63898 3.31453 5.63898C3.22492 5.63898 3.15227 5.71156 3.15227 5.80125V5.96352C3.15227 6.0532 3.22492 6.12578 3.31453 6.12578Z" fill="#F5F5F5"/>
<path d="M4.93727 5.96348H5.09953C5.18914 5.96348 5.2618 5.8909 5.2618 5.80121C5.2618 5.71152 5.18914 5.63895 5.09953 5.63895H4.93727C4.84766 5.63895 4.775 5.71152 4.775 5.80121C4.775 5.8909 4.84766 5.96348 4.93727 5.96348Z" fill="#F5F5F5"/>
<path d="M3.88012 8.09621L3.06875 8.58305C2.99187 8.62914 2.96703 8.72883 3.01312 8.8057C3.04355 8.85641 3.09727 8.88445 3.15242 8.88445C3.18086 8.88445 3.20965 8.87699 3.23578 8.86133L4.04715 8.37449C4.12402 8.3284 4.14887 8.22871 4.10277 8.15184C4.05664 8.07496 3.95707 8.05008 3.88012 8.09621Z" fill="#F5F5F5"/>
<path d="M6.0679 8.38324L6.07168 8.38066C6.08532 8.43551 6.10868 8.48859 6.14657 8.53312C6.2125 8.61078 6.31137 8.64977 6.42309 8.64059C6.58157 8.62902 6.68934 8.5566 6.76063 8.46309C6.77149 8.47055 6.7829 8.47734 6.79485 8.48336C6.88254 8.52758 6.98399 8.52426 7.08055 8.47418C7.32579 8.34789 7.37864 8.05566 7.37118 7.90289C7.3668 7.81383 7.29106 7.7509 7.20223 7.74918C7.11309 7.75297 7.04375 7.82859 7.04692 7.91762C7.047 7.91969 7.05063 8.11223 6.93289 8.18371C6.91372 8.15691 6.8909 8.09672 6.88235 8.04695C6.86864 7.96344 6.79196 7.90527 6.70938 7.91195C6.62524 7.91859 6.56024 7.9893 6.55993 8.07375C6.55985 8.09734 6.55461 8.30559 6.39383 8.32301C6.37512 8.2975 6.37481 8.19004 6.39321 8.11066C6.40875 8.04555 6.38258 7.97754 6.3275 7.93953C6.27227 7.90133 6.19946 7.90133 6.14407 7.93891L6.05348 8.00051C6.01047 7.05945 5.91141 5.96281 5.91016 5.94879C5.90208 5.85973 5.82364 5.79332 5.73387 5.80187C5.64458 5.80996 5.57879 5.88887 5.58688 5.97824C5.58829 5.99324 5.7029 7.26199 5.73825 8.23094C5.72997 8.23883 5.72141 8.24746 5.71329 8.255C5.64911 8.0932 5.52192 7.99129 5.35805 7.97578C5.12684 7.95535 4.87629 8.11269 4.78653 8.33742C4.70911 8.53074 4.75786 8.72078 4.91063 8.82141C5.02043 8.89383 5.18622 8.91664 5.39461 8.84359C5.34376 9.02234 5.2511 9.20363 5.13067 9.34391C5.02282 9.46957 4.84274 9.61457 4.61223 9.60808C4.47809 9.60285 4.37501 9.55894 4.29711 9.47371C4.10922 9.26848 4.1254 8.89703 4.12555 8.89309C4.13024 8.80371 4.06176 8.7275 3.97247 8.72258C3.88254 8.71309 3.80637 8.78613 3.80149 8.87566C3.8004 8.89625 3.77684 9.38437 4.05629 9.69133C4.19383 9.84266 4.37665 9.92363 4.59954 9.93238C4.6104 9.93285 4.62126 9.93301 4.63219 9.93301C4.90364 9.93301 5.16704 9.79988 5.37684 9.55535C5.57418 9.32555 5.70821 9.0134 5.74844 8.72359C5.7479 9.27871 5.4134 9.90484 4.96981 10.1807C4.78145 10.2976 4.48782 10.4032 4.157 10.2401C3.74926 10.0388 3.79782 9.57273 3.79997 9.55375C3.81114 9.46484 3.74797 9.38371 3.65911 9.37262C3.57059 9.36184 3.48899 9.42445 3.47797 9.51351C3.47434 9.5425 3.39637 10.2266 4.01344 10.5311C4.17192 10.6093 4.33766 10.6482 4.50469 10.6482C4.71926 10.6482 4.93583 10.584 5.1411 10.4562C5.6811 10.1206 6.07305 9.39133 6.07305 8.72226C6.07321 8.61773 6.07125 8.5034 6.0679 8.38324ZM5.08942 8.55055C5.06043 8.53137 5.08309 8.47004 5.08797 8.45785C5.12211 8.37226 5.22903 8.29828 5.31442 8.29828C5.31879 8.29828 5.32321 8.29844 5.32751 8.29891C5.34825 8.30082 5.40333 8.30602 5.42704 8.42852C5.42958 8.44152 5.43172 8.4548 5.43336 8.46844C5.2525 8.57465 5.13126 8.57797 5.08942 8.55055Z" fill="#F5F5F5"/>
<path d="M3.39644 10.043C3.31957 9.99789 3.22023 10.0237 3.17457 10.1006C3.16711 10.1131 3.15723 10.1267 3.14715 10.1391C3.14539 10.135 3.14367 10.1305 3.14191 10.1258C3.07426 9.94528 3.12242 9.66715 3.14676 9.57524C3.16965 9.48871 3.11816 9.39996 3.03164 9.37684C2.94527 9.35465 2.85644 9.40504 2.83324 9.49156C2.82144 9.53547 2.72168 9.92942 2.83801 10.2397C2.9125 10.4381 3.02684 10.4882 3.10969 10.495C3.11707 10.4956 3.12434 10.4959 3.13156 10.4959C3.30629 10.4959 3.4225 10.3199 3.45484 10.2641C3.49969 10.1868 3.47348 10.0884 3.39644 10.043Z" fill="#F5F5F5"/>
<path d="M6.39109 7.09941C6.42621 7.09941 6.46152 7.08816 6.49125 7.06473L7.30938 6.42242C7.32066 6.41356 7.32789 6.40195 7.33613 6.39102C7.45395 6.31996 7.53367 6.19199 7.53367 6.04461C7.53367 5.82086 7.35168 5.63891 7.12797 5.63891C6.9043 5.63891 6.72227 5.82082 6.72227 6.04461C6.72227 6.16981 6.78043 6.28047 6.86981 6.35496L6.29074 6.80957C6.22031 6.86488 6.20801 6.96695 6.26332 7.03731C6.29539 7.07816 6.34301 7.09941 6.39109 7.09941ZM7.12801 5.96348C7.17277 5.96348 7.20914 5.99992 7.20914 6.04461C7.20914 6.0893 7.17277 6.12574 7.12801 6.12574C7.08324 6.12574 7.04688 6.0893 7.04688 6.04461C7.04688 5.99992 7.08324 5.96348 7.12801 5.96348Z" fill="#F5F5F5"/>
<path d="M6.93593 6.94555C6.85043 6.91703 6.7589 6.96312 6.73062 7.04808C6.71328 7.10008 6.63484 7.36773 6.79386 7.52668C6.85558 7.58848 6.93671 7.61938 7.03632 7.61922C7.10289 7.61922 7.17769 7.60559 7.26046 7.57785C7.3455 7.54965 7.39144 7.45773 7.36308 7.37262C7.33472 7.28769 7.24296 7.24141 7.15777 7.27008C7.06714 7.30019 7.02879 7.29527 7.02531 7.29844C7.0157 7.27434 7.02207 7.20191 7.03871 7.15012C7.06668 7.06535 7.0207 6.97375 6.93593 6.94555Z" fill="#F5F5F5"/>
<path d="M8.79312 6.27473C8.80835 6.27918 8.82363 6.28121 8.83867 6.28121C8.90894 6.28121 8.97367 6.23527 8.99437 6.16441L9.08906 5.83988C9.11417 5.75383 9.06472 5.66367 8.97874 5.63863C8.89246 5.61375 8.80261 5.66289 8.77749 5.74895L8.68281 6.07348C8.65773 6.15953 8.70718 6.24969 8.79312 6.27473Z" fill="#F5F5F5"/>
<path d="M7.8473 6.2557C7.87305 6.27074 7.90125 6.27789 7.92906 6.27789C7.98484 6.27789 8.0391 6.24922 8.06929 6.19754C8.11453 6.1202 8.08847 6.0207 8.01113 5.97551C7.97847 5.95649 7.98293 5.90277 7.9841 5.89215C7.98894 5.84953 8.01437 5.79754 8.05859 5.78375C8.14418 5.75711 8.19195 5.66617 8.16531 5.58059C8.13851 5.49485 8.04773 5.44746 7.96207 5.47379C7.80027 5.52418 7.68238 5.67395 7.6616 5.85524C7.64238 6.02402 7.71355 6.17742 7.8473 6.2557Z" fill="#F5F5F5"/>
<path d="M6.56004 8.88445C6.47043 8.88445 6.39777 8.95703 6.39777 9.04672C6.39777 9.12594 6.45449 9.19187 6.52961 9.20613C6.53816 9.21863 6.56004 9.2616 6.56004 9.37125C6.56004 9.46094 6.6327 9.53351 6.72231 9.53351C6.81191 9.53351 6.88457 9.46094 6.88457 9.37125C6.88457 8.89 6.57328 8.88445 6.56004 8.88445Z" fill="#F5F5F5"/>
<path d="M9.31309 8.21254C9.33344 8.21586 9.35375 8.21746 9.3741 8.21746C9.5016 8.21746 9.63043 8.15313 9.75801 8.02555C9.82141 7.96215 9.82141 7.85945 9.75801 7.79609C9.69461 7.73269 9.59192 7.73269 9.52856 7.79609C9.43149 7.89324 9.37926 7.89531 9.3659 7.89227C9.33492 7.88781 9.30688 7.84742 9.30063 7.83633C9.25988 7.75742 9.1634 7.72586 9.08391 7.76566C9.00371 7.80574 8.97121 7.9032 9.01133 7.9834C9.02133 8.00352 9.11508 8.18035 9.31309 8.21254Z" fill="#F5F5F5"/>
<path d="M12.0714 7.07214C12.0704 7.06961 12.0695 7.06722 12.0687 7.065C12.0399 6.9807 11.948 6.93488 11.8639 6.96359C11.7788 6.99179 11.7328 7.08371 11.7612 7.16882C11.7738 7.20687 11.8461 7.39765 12.0252 7.42175C12.0371 7.42336 12.0491 7.42414 12.0609 7.42414C12.1733 7.42414 12.2787 7.3514 12.3747 7.2075C12.4244 7.133 12.4043 7.03222 12.3297 6.98246C12.2551 6.93285 12.1543 6.95281 12.1047 7.02746C12.0918 7.04664 12.0807 7.06121 12.0714 7.07214Z" fill="#F5F5F5"/>
<path d="M11.7529 10.0204C11.7529 9.32836 11.7224 8.67918 11.6802 8.11039C11.9106 8.51 12.1179 8.91383 12.25 9.26606C12.2745 9.33117 12.3362 9.37129 12.402 9.37129C12.4209 9.37129 12.4402 9.36797 12.4589 9.36098C12.5428 9.32946 12.5854 9.23594 12.5539 9.15196C12.3485 8.60438 11.9793 7.95223 11.6155 7.37336C11.5268 6.49922 11.4275 5.94438 11.4257 5.93449C11.4096 5.84621 11.3254 5.78664 11.237 5.80391C11.1488 5.81992 11.0903 5.90438 11.1063 5.9925C11.1076 5.99957 11.1587 6.28535 11.2199 6.76641C11.0952 6.58141 10.9794 6.41449 10.8822 6.27711L10.8901 6.27965C10.9756 6.30817 11.0671 6.26207 11.0954 6.17711C11.1238 6.09199 11.0779 6.00012 10.9928 5.97188L10.506 5.80961C10.4385 5.7868 10.3644 5.81086 10.323 5.86856C10.3119 5.88395 10.3043 5.90082 10.2993 5.91828C10.2021 5.84645 10.0776 5.78809 9.96059 5.83703C9.88984 5.86637 9.80551 5.9402 9.80551 6.12578C9.80551 6.26824 9.85984 6.42227 9.91746 6.58551C10.013 6.85617 10.0729 7.05524 9.97168 7.15016C9.91574 7.20262 9.85988 7.22242 9.80535 7.20863C9.70527 7.18328 9.60621 7.05 9.54023 6.85207C9.53738 6.84348 9.53137 6.83727 9.5273 6.82949C9.56145 6.57813 9.54656 6.27528 9.47781 5.93164C9.46031 5.84367 9.37504 5.78649 9.28684 5.80438C9.19898 5.82195 9.14199 5.90738 9.15957 5.99535C9.26551 6.52528 9.23375 6.95758 9.07453 7.15172C9.01297 7.22684 8.93586 7.26168 8.83184 7.26168C8.79895 7.26168 8.77652 7.25121 8.75418 7.22555C8.62613 7.07801 8.62668 6.60195 8.66797 6.31086C8.67453 6.26442 8.66059 6.21719 8.62977 6.18172C8.59895 6.14621 8.55426 6.12578 8.50727 6.12578C8.22805 6.12578 8.12219 6.44336 8.02875 6.72356C7.98777 6.84668 7.91141 7.07567 7.85817 7.09946C7.75992 7.09946 7.69645 6.81106 7.6959 6.61246C7.69567 6.52293 7.62309 6.45051 7.53363 6.45051C7.53363 6.45051 7.53348 6.45051 7.5334 6.45051C7.44387 6.45051 7.37137 6.52309 7.37137 6.61262C7.37137 6.98692 7.49887 7.42399 7.8582 7.42399C8.12578 7.42399 8.23418 7.13238 8.32488 6.86141C8.34066 7.07692 8.3893 7.30024 8.50895 7.43809C8.59301 7.53508 8.70465 7.58625 8.83184 7.58625C9.03215 7.58625 9.20281 7.50719 9.32547 7.35758C9.34766 7.33051 9.36684 7.29942 9.38574 7.26801C9.48 7.40199 9.59555 7.49028 9.72578 7.52317C9.76398 7.53281 9.80242 7.53774 9.84043 7.53774C9.9657 7.53774 10.0881 7.48606 10.1938 7.38672C10.2158 7.36606 10.2313 7.34348 10.248 7.32125C10.2877 7.33258 10.3279 7.33934 10.3679 7.33934C10.4993 7.33934 10.6259 7.28641 10.7044 7.23602C10.7795 7.18785 10.8012 7.08832 10.7536 7.01289C10.7058 6.93762 10.6058 6.91512 10.5301 6.96235C10.5288 6.96301 10.4204 7.02528 10.3464 7.0107C10.3466 6.83281 10.2822 6.64387 10.2235 6.47742C10.19 6.38266 10.1557 6.28551 10.1396 6.20613C10.153 6.21738 10.166 6.2291 10.1777 6.24051C10.2409 6.30391 10.3437 6.30391 10.4071 6.24051C10.4175 6.23004 10.4236 6.21731 10.4306 6.205C10.5988 6.43672 10.9448 6.92367 11.3007 7.485C11.3686 8.17492 11.4282 9.05512 11.4282 10.0204C11.4282 10.1101 11.5009 10.1827 11.5905 10.1827C11.6802 10.1827 11.7529 10.1101 11.7529 10.0204Z" fill="#F5F5F5"/>
<path d="M11.9151 6.45031C11.9151 6.54 11.9878 6.61258 12.0774 6.61258C12.167 6.61258 12.2397 6.54 12.2397 6.45031C12.2397 6.25934 12.0902 5.95082 12.0603 5.8909C12.0202 5.81086 11.9228 5.77856 11.8425 5.81832C11.7623 5.8584 11.7299 5.95586 11.77 6.03606C11.8285 6.15316 11.9151 6.3657 11.9151 6.45031Z" fill="#F5F5F5"/>
<path d="M11.1767 10.0381C11.0971 9.99754 10.9994 10.0297 10.9589 10.1096C10.9415 10.1437 10.9144 10.1816 10.8916 10.206C10.8844 10.1415 10.9016 10.0127 10.9343 9.90582C10.9561 9.83449 10.9266 9.7575 10.8627 9.71914C10.7991 9.68062 10.7171 9.69062 10.6644 9.74339L10.3399 10.0679C10.2765 10.1313 10.2765 10.234 10.3399 10.2974C10.4033 10.3608 10.506 10.3608 10.5693 10.2974L10.5776 10.2891C10.5916 10.3543 10.6185 10.4137 10.6644 10.4596C10.7253 10.5205 10.7988 10.5527 10.8753 10.5527C10.8901 10.5527 10.905 10.5514 10.9199 10.549C11.1037 10.5192 11.2181 10.3166 11.2489 10.2552C11.2888 10.1752 11.2565 10.0784 11.1767 10.0381Z" fill="#F5F5F5"/>
<path d="M11.1139 8.73231H9.97019C9.98035 8.69188 9.99078 8.6534 10.0014 8.6168C10.4575 8.52204 10.7285 8.37481 10.8083 8.17833C10.8359 8.1102 10.8646 7.97247 10.7473 7.81415C10.6415 7.67153 10.4921 7.60751 10.3371 7.63919C10.1065 7.68594 9.90101 7.93442 9.75359 8.33219C9.2955 8.41063 9.00222 8.57504 8.81663 8.73735C8.75078 8.07239 8.49265 7.67735 8.48011 7.65852C8.43035 7.58387 8.32956 7.56376 8.25507 7.61352C8.1805 7.66329 8.16038 7.76391 8.21007 7.83856C8.213 7.84301 8.50738 8.29321 8.50738 9.04676C8.50738 9.78747 7.91675 10.345 7.53374 10.345C7.35152 10.345 7.27179 10.1284 7.23671 9.94528C7.61175 9.68243 7.94265 9.37829 8.01574 9.0861C8.11464 8.69071 7.99015 8.39926 7.90781 8.20641C7.90394 8.19754 7.89988 8.18801 7.89578 8.17821C7.89925 8.18137 7.90257 8.18469 7.90593 8.18786C7.96917 8.25126 8.07195 8.25126 8.13531 8.18786C8.19871 8.12446 8.19871 8.02176 8.13531 7.9584C8.04046 7.86348 7.85624 7.71434 7.68882 7.78442C7.61808 7.81372 7.53374 7.88758 7.53374 8.07317C7.53374 8.157 7.56878 8.23891 7.60933 8.33403C7.68238 8.50501 7.77328 8.71786 7.70085 9.00755C7.658 9.17895 7.44746 9.38692 7.16968 9.59337C7.13992 9.55778 7.09687 9.53383 7.04691 9.53383H7.04667C6.95714 9.53399 6.88464 9.60641 6.88464 9.69594C6.88464 9.72512 6.88589 9.75637 6.88781 9.78837C6.54054 10.0133 6.14753 10.2215 5.84378 10.3596C5.76226 10.3967 5.72621 10.4929 5.76328 10.5745C5.79046 10.6342 5.84941 10.6696 5.91105 10.6696C5.93355 10.6696 5.95636 10.665 5.97808 10.655C6.06933 10.6135 6.50242 10.4118 6.94726 10.1361C7.02917 10.4143 7.20281 10.6696 7.53371 10.6696C7.923 10.6696 8.36464 10.3513 8.61949 9.87602C8.65023 9.93036 8.68562 9.98239 8.72777 10.031C9.13624 10.502 9.93406 10.5073 9.96781 10.5073C10.0552 10.5073 10.1268 10.4382 10.13 10.3509C10.1331 10.2636 10.0665 10.1895 9.97945 10.1833C9.9782 10.1831 9.84886 10.1689 9.77691 10.0849C9.73351 10.0342 9.71613 9.96446 9.72382 9.87176C9.74046 9.67176 10.3855 9.52235 10.9541 9.51344C11.0218 9.51235 11.0818 9.46938 11.1045 9.40551L11.2668 8.94911C11.2844 8.8995 11.2769 8.84419 11.2464 8.80126C11.2161 8.75797 11.1666 8.73231 11.1139 8.73231ZM10.4016 7.95739C10.4046 7.95676 10.4088 7.95579 10.4139 7.95579C10.4294 7.95579 10.4539 7.9634 10.4866 8.00747C10.4927 8.01571 10.5125 8.04391 10.5075 8.05629C10.4888 8.10223 10.3768 8.17817 10.1434 8.24692C10.2461 8.04661 10.3465 7.96848 10.4016 7.95739ZM9.42156 10.0906C9.25667 10.037 9.0887 9.95208 8.97238 9.81754C8.84456 9.66969 8.79734 9.4827 8.82831 9.2461C8.833 9.23368 8.84359 9.20915 8.86214 9.17727C9.09066 9.15633 9.70113 9.24641 9.74343 9.42126C9.55511 9.51739 9.41644 9.65251 9.40038 9.84465C9.39242 9.94098 9.40222 10.0226 9.42156 10.0906Z" fill="#F5F5F5"/>
<path d="M12.8805 6.39899L12.7182 5.91215C12.6921 5.83387 12.6108 5.78711 12.5303 5.80489C12.4494 5.82215 12.3945 5.89743 12.4027 5.97969C12.5147 7.09946 12.7265 9.28321 12.7265 9.5336C12.7265 9.75848 12.3265 10.2013 11.6802 10.5244C11.6 10.5645 11.5676 10.6619 11.6076 10.7421C11.6361 10.799 11.6934 10.8318 11.753 10.8318C11.7773 10.8318 11.8021 10.8263 11.8254 10.8147C12.4157 10.5195 13.051 9.9927 13.051 9.5336C13.051 9.29383 12.8852 7.56872 12.7902 6.59965C12.8672 6.5668 12.9074 6.47981 12.8805 6.39899Z" fill="#F5F5F5"/>
<path d="M14.2345 7.86324C14.2657 7.89445 14.3073 7.91078 14.3493 7.91078C14.3768 7.91078 14.4044 7.90383 14.4295 7.88953C14.493 7.8534 14.5245 7.77922 14.5066 7.7084C14.4775 7.5943 14.4678 7.45168 14.4832 7.39336C14.5645 7.3959 14.6399 7.33805 14.6519 7.25422C14.6646 7.16547 14.6029 7.08324 14.5143 7.07055C14.407 7.05598 14.3128 7.0875 14.2469 7.16071C14.2043 7.20824 14.179 7.26926 14.1652 7.33485L13.9772 7.14692C13.9138 7.08352 13.8111 7.08352 13.7478 7.14692C13.6844 7.21031 13.6844 7.31301 13.7478 7.37637L14.2345 7.86324Z" fill="#F5F5F5"/>
<path d="M14.5996 8.0325L13.991 8.46864C13.9182 8.52078 13.9014 8.62219 13.9536 8.69508C13.9853 8.7393 14.0352 8.76274 14.0857 8.76274C14.1184 8.76274 14.1515 8.75289 14.1801 8.73231L14.7886 8.29621C14.8614 8.24407 14.8782 8.14266 14.826 8.06977C14.7737 7.99684 14.6722 7.97989 14.5996 8.0325Z" fill="#F5F5F5"/>
<path d="M14.5457 8.64277C14.4946 8.70856 14.5019 8.8011 14.5598 8.85797C14.5668 8.86969 14.5984 8.93184 14.5927 9.09156C14.5896 9.18125 14.6596 9.25637 14.7491 9.25953C14.7511 9.25969 14.7531 9.25969 14.755 9.25969C14.842 9.25969 14.9139 9.19074 14.9171 9.10328C14.9289 8.77207 14.8205 8.65102 14.7734 8.61438C14.7028 8.5591 14.6007 8.57211 14.5457 8.64277Z" fill="#F5F5F5"/>
<path d="M15.9619 9.83781C16.0515 9.83781 16.1241 9.76523 16.1241 9.67555C16.1241 9.43609 16.1118 9.16883 16.0917 8.89074C16.2526 9.15441 16.3863 9.3975 16.472 9.59742C16.4983 9.65906 16.5582 9.69582 16.6212 9.69582C16.6425 9.69582 16.6642 9.69172 16.6851 9.68265C16.7674 9.6473 16.8056 9.55191 16.7703 9.46969C16.6217 9.12297 16.3441 8.66371 16.0279 8.18957C15.9642 7.59394 15.8811 7.01035 15.8165 6.59168C15.8508 6.59515 15.8865 6.58676 15.9178 6.56648C15.969 6.53363 15.9931 6.47664 15.9896 6.41988C15.9938 6.43582 15.9983 6.45183 16.0075 6.46648C16.0086 6.46804 16.1129 6.64031 16.0666 6.86379C16.0485 6.9514 16.1049 7.0373 16.1927 7.05554C16.2038 7.05777 16.2149 7.05887 16.2258 7.05887C16.3011 7.05887 16.3686 7.00609 16.3845 6.92937C16.4578 6.57488 16.2886 6.30355 16.2814 6.29215C16.2332 6.21672 16.1329 6.19453 16.0573 6.24238C16.0058 6.27519 15.9815 6.33226 15.9849 6.3891C15.9806 6.37304 15.976 6.35691 15.9666 6.34219L15.6927 5.91621C15.6509 5.85125 15.5691 5.82492 15.4972 5.85281C15.4252 5.88101 15.383 5.95597 15.3964 6.03203C15.3987 6.0448 15.5227 6.75691 15.6326 7.61519C15.5082 7.43949 15.3838 7.26773 15.2631 7.10383C15.2435 6.85832 15.2239 6.63133 15.2068 6.44363C15.2158 6.44094 15.2246 6.43746 15.2332 6.43316C15.3134 6.39308 15.3459 6.29562 15.3058 6.21543L15.1436 5.89086C15.1085 5.82082 15.0286 5.78593 14.9533 5.8075C14.8781 5.82937 14.8292 5.90164 14.8369 5.97961C14.8563 6.17328 14.8764 6.38765 14.8962 6.61285C14.7936 6.47754 14.6986 6.35371 14.6174 6.24886C14.6332 6.23523 14.6468 6.21828 14.6567 6.19832C14.6968 6.11812 14.6643 6.02066 14.5841 5.98058L14.2596 5.81832C14.1915 5.78441 14.1089 5.80215 14.0608 5.86144C14.0129 5.9207 14.0127 6.00535 14.0603 6.06492C14.0691 6.07582 14.4686 6.57668 14.9466 7.22316C15.0295 8.29535 15.0847 9.41066 15.0067 9.64449C14.9924 9.68726 14.9675 9.73765 14.9442 9.73941C14.8461 9.75305 14.612 9.53371 14.4945 9.29871C14.4267 9.16336 14.3293 9.14926 14.2771 9.15164C14.1027 9.16242 14.0347 9.35433 13.911 9.70265C13.8223 9.95226 13.7122 10.2625 13.5885 10.3895C13.5215 10.3076 13.4348 10.0329 13.3867 9.75058C13.4093 9.81301 13.4677 9.85812 13.5379 9.85812C13.6275 9.85812 13.7002 9.78555 13.7002 9.69586C13.7002 9.45387 13.5309 7.61086 13.4364 6.60074C13.5153 6.56906 13.5568 6.48078 13.5295 6.39902L13.3673 5.91219C13.3412 5.8339 13.2611 5.78777 13.1797 5.80472C13.099 5.82183 13.0439 5.89679 13.0518 5.97887C13.162 7.13652 13.3688 9.37254 13.3753 9.68113C13.3749 9.67836 13.3743 9.67562 13.3739 9.67285C13.3613 9.5841 13.2785 9.52324 13.1903 9.53515C13.1016 9.54801 13.04 9.63008 13.0527 9.71883C13.1001 10.0505 13.2212 10.6209 13.5001 10.7137C13.5221 10.7212 13.5518 10.7278 13.5865 10.7278C13.6505 10.7278 13.7318 10.7052 13.8149 10.622C13.9916 10.4453 14.1112 10.1084 14.2168 9.81121C14.2406 9.74402 14.2688 9.66445 14.2954 9.59633C14.4443 9.81375 14.7041 10.0844 14.9672 10.0632C15.0597 10.0566 15.2281 10.0068 15.3146 9.74723C15.4009 9.48836 15.3668 8.58555 15.3086 7.72125C15.4453 7.91285 15.5822 8.10906 15.7127 8.30289C15.7634 8.78883 15.7996 9.2757 15.7996 9.67558C15.7996 9.76523 15.8722 9.83781 15.9619 9.83781Z" fill="#F5F5F5"/>
<path d="M17.1934 8.98429C17.0784 8.12793 16.9182 7.13589 16.8168 6.52703C16.8627 6.53828 16.9125 6.5291 16.9528 6.4982C17.0241 6.44386 17.0377 6.34195 16.9834 6.27078L16.6893 5.88539C16.6439 5.82613 16.5638 5.80519 16.4953 5.83515C16.4267 5.86511 16.3876 5.938 16.4004 6.01168C16.4033 6.02832 16.6927 7.69418 16.8716 9.02738C16.94 9.53687 16.8402 9.99214 16.6045 10.2451C16.453 10.4075 16.2522 10.4811 16.0092 10.4669C15.92 10.4622 15.8427 10.5294 15.837 10.6188C15.8314 10.7082 15.8993 10.7852 15.9888 10.7909C16.0162 10.7927 16.0432 10.7934 16.07 10.7934C16.376 10.7934 16.6416 10.6812 16.8418 10.4664C17.1476 10.1383 17.2757 9.59804 17.1934 8.98429Z" fill="#F5F5F5"/>
<path d="M15.4082 10.054C15.3485 10.1188 15.3531 10.2209 15.4162 10.282C15.425 10.2906 15.4355 10.3074 15.4356 10.3156C15.4357 10.3202 15.4291 10.3338 15.411 10.3519C15.3476 10.4153 15.3476 10.518 15.411 10.5814C15.4427 10.613 15.4842 10.6289 15.5257 10.6289C15.5673 10.6289 15.6088 10.613 15.6405 10.5814C15.7434 10.4785 15.7623 10.3741 15.76 10.3045C15.755 10.1548 15.653 10.0581 15.6326 10.0402C15.5664 9.9825 15.4677 9.98945 15.4082 10.054Z" fill="#F5F5F5"/>
<path d="M14.8361 13.6127H14.6738H13.7002V13.4505C13.7002 13.3608 13.6275 13.2882 13.5379 13.2882C13.4483 13.2882 13.3756 13.3608 13.3756 13.4505V13.6127H4.775C5.09953 13.9373 5.74863 14.0996 6.23547 14.0996C6.58461 14.0996 10.9398 14.0996 13.3756 14.0996V14.4241C13.3756 14.5138 13.4482 14.5864 13.5379 14.5864H14.8361C15.1045 14.5864 15.3229 14.368 15.3229 14.0995C15.3229 13.8311 15.1045 13.6127 14.8361 13.6127ZM14.8361 14.2618H13.7002V14.0996C14.4822 14.0996 14.9984 14.0996 14.9984 14.0996L14.9693 14.0122C14.9861 14.0378 14.9984 14.0667 14.9984 14.0996C14.9984 14.1891 14.9255 14.2618 14.8361 14.2618Z" fill="#F5F5F5"/>
</svg>
