<svg width="134" height="279" viewBox="0 0 134 279" fill="none" xmlns="http://www.w3.org/2000/svg">
<path d="M17.9655 258.558C17.9655 259.999 19.1451 261.179 20.5868 261.179H20.9145C22.3563 261.179 23.5359 259.999 23.5359 258.558V168.186C21.3732 167.706 19.4727 167.116 17.9436 166.46V258.558H17.9655Z" fill="#FF3956"/>
<path d="M57.002 258.863C57.002 258.863 57.5918 256.089 60.5627 254.342V246.521C58.3346 245.604 56.1938 243.179 54.9705 239.902V258.099C54.9705 259.541 56.1501 260.72 57.5918 260.72H57.9195C58.3127 260.72 58.6841 260.633 59.0117 260.48C57.985 260.043 57.286 259.497 57.002 258.863Z" fill="#FF3956"/>
<path d="M60.4753 212.706C60.4753 212.684 60.4753 212.684 60.4753 212.706C60.4753 211.788 60.519 210.783 60.5627 209.713V166.307C59.0554 167.007 57.1549 167.618 54.9705 168.121V226.621C55.7787 223.213 56.9365 219.674 58.0287 217.839C58.8807 215.458 59.7544 213.514 60.4753 212.706Z" fill="#FF3956"/>
<path d="M26.922 251.895C26.922 253.337 28.1016 254.516 29.5434 254.516H29.871C31.3128 254.516 32.4924 253.337 32.4924 251.895V169.475C30.5264 169.322 28.6477 169.104 26.9001 168.841V251.895H26.922Z" fill="#FF3956"/>
<path d="M62.8346 164.953C62.922 163.905 63.0312 162.878 63.1186 161.829C63.0968 161.873 63.0749 161.895 63.0749 161.895C63.0749 161.895 55.6696 166.875 39.5045 164.909C39.3516 164.909 39.1987 164.909 39.0458 164.909C27.8832 164.909 18.4244 162.834 15.0166 159.951C14.8637 160.147 14.7326 160.322 14.6015 160.453C14.2739 160.803 13.9681 161.414 13.6841 162.113V162.375C13.6841 163.883 15.2569 165.281 17.9438 166.439C19.4729 167.094 21.3734 167.684 23.5361 168.164C24.6064 168.405 25.7205 168.623 26.9001 168.798C28.6477 169.082 30.5264 169.3 32.4924 169.431C34.5895 169.584 36.7739 169.672 39.0458 169.672C45.0749 169.672 50.6016 169.06 54.9487 168.055C57.1332 167.553 59.0337 166.941 60.5409 166.242C61.4584 165.871 62.2448 165.434 62.8346 164.953Z" fill="#A31134"/>
<path d="M29.1938 162.943C24.6282 161.764 21.4608 159.929 19.32 157.723C18.9923 158.924 18.7521 160.016 18.7957 160.431C18.6428 161.152 17.5288 160.497 17.2666 159.252C17.07 158.29 17.0263 157.526 17.07 156.936C16.4802 157.897 15.6719 159.164 15.0166 159.994C18.4244 162.878 27.8831 164.953 39.0458 164.953C39.1987 164.953 39.3516 164.953 39.5045 164.953C36.4244 164.56 32.9729 163.926 29.1938 162.943Z" fill="#FF3956"/>
<path d="M84.2424 249.077C84.8759 247.177 83.1939 245.494 81.3152 245.232C80.2011 245.079 79.0215 245.429 78.2351 246.565C77.9293 247.002 77.5142 247.417 76.99 247.832C78.0603 248.007 79.087 248.225 80.0919 248.771C81.206 249.405 82.1016 250.3 82.8007 251.349C83.3031 252.113 82.0798 252.812 81.5992 252.048C80.9657 251.087 80.1356 250.322 79.1089 249.82C78.0166 249.274 76.837 249.208 75.6356 249.011C75.5264 248.99 75.439 248.968 75.3735 248.902C75.0458 249.099 74.7181 249.274 74.3686 249.448C75.2861 249.863 76.2036 250.322 77.0118 250.956C77.973 251.72 78.388 252.725 79.0871 253.708C79.6113 254.451 78.388 255.15 77.8856 254.407C77.2303 253.49 76.8807 252.55 75.9414 251.873C75.1113 251.261 74.1501 250.846 73.2108 250.453C73.0579 250.388 72.9487 250.278 72.905 250.169C72.3807 250.41 71.8564 250.628 71.3103 250.846C72.206 251.087 73.0361 251.502 73.7569 252.092C74.7836 252.922 75.2642 253.948 75.9196 255.041C76.4002 255.805 75.1769 256.504 74.7181 255.74C74.172 254.844 73.8006 253.948 72.9924 253.249C72.1841 252.572 71.2229 252.201 70.1962 252.026C69.8467 251.961 69.6938 251.72 69.6938 251.436C69.1914 251.611 68.7108 251.786 68.2521 251.939C70.0433 253.009 71.3977 254.691 72.0094 256.723C72.2715 257.596 70.9171 257.946 70.655 257.094C70.0652 255.128 68.689 253.643 66.8322 252.769C66.6793 252.703 66.5701 252.594 66.5264 252.463C65.6526 252.703 64.888 252.9 64.2982 253.031C62.769 253.249 61.5457 253.73 60.5846 254.298C57.6137 256.045 57.0239 258.82 57.0239 258.82C57.3079 259.453 58.0287 259.999 59.0554 260.414C66.6355 263.582 91.6477 261.441 92.2594 259.759C92.9584 257.837 90.2715 245.975 90.2715 245.975C90.2715 245.975 89.8565 245.888 89.2011 245.778C89.1793 246.303 89.1574 246.761 89.1138 247.177C87.1477 248.465 85.4875 248.924 84.2424 249.077Z" fill="#6969FF"/>
<path d="M87.3226 215.305C87.3226 215.261 87.3007 215.218 87.3007 215.196C87.2789 215.152 87.257 215.13 87.2352 215.109C85.2255 211.657 86.1211 206.96 88.677 204.011C88.677 204.011 82.058 185.858 77.2304 169.737C76.0508 175.155 74.8056 180.55 73.6697 185.422C75.8105 207.55 79.1308 231.23 79.9391 234.201C79.9172 234.244 79.9172 234.288 79.9172 234.288L81.2935 245.254C83.1503 245.516 84.8542 247.198 84.2207 249.099C85.4658 248.946 87.126 248.487 89.0702 247.264C89.092 246.849 89.1357 246.39 89.1575 245.866C89.3105 242.087 89.1794 235.795 89.0702 232.519C89.1139 232.475 89.1357 232.453 89.1357 232.453C89.1357 232.453 89.5289 226.817 89.7037 218.91C89.3105 218.691 88.8954 218.451 88.5677 218.254C88.0435 217.883 87.4537 216.004 87.3226 215.305Z" fill="#FFD6CA"/>
<path d="M60.2569 72.7903C60.1259 73.2709 60.0604 73.7952 60.0167 74.3631C60.0167 74.385 59.9948 74.385 59.9948 74.4068C59.1647 76.1326 57.5919 79.0816 55.6914 82.5768C56.74 87.7758 57.2424 93.237 57.4827 97.4748C63.2933 90.4845 67.6623 84.2369 69.8031 79.0816C68.8419 76.2636 67.7933 73.1835 66.9196 70.1253C61.1307 67.1107 61.939 60.2733 65.2157 57.084C65.2812 57.0185 65.3468 56.9311 65.4123 56.8656C66.0676 53.5015 66.5264 50.618 66.8759 48.2369C64.7351 47.8874 62.8783 47.2976 62.8783 47.2976C62.7254 47.2757 62.5725 47.232 62.4196 47.1665C61.3273 49.4165 60.7812 51.8631 60.672 54.55C60.4754 59.1374 60.956 68.203 60.2569 72.7903Z" fill="#F2BEB3"/>
<path d="M64.8226 44.1738C64.7571 44.0646 64.6697 43.9553 64.5823 43.8243C64.4949 43.9117 64.4294 44.0209 64.342 44.1083C64.495 44.1301 64.6479 44.152 64.8226 44.1738Z" fill="#F2BEB3"/>
<path d="M117.796 254.211C117.796 254.167 117.774 254.123 117.774 254.079C117.643 252.725 120.811 248.553 123.694 250.257C123.694 247.198 123.432 242.545 122.864 237.565C122.886 237.521 122.908 237.499 122.908 237.499C122.908 237.499 121.881 193.985 115.087 177.929C114.825 177.033 114.432 176.05 113.951 175.002C113.755 174.587 113.624 164.145 113.558 152.655C108.425 154.337 102.68 155.232 96.7815 155.538L102.832 176.509C103.291 188.021 106.306 204.099 109.189 217.249C109.211 217.249 109.211 217.249 109.233 217.249C110.893 217.315 112.75 217.752 113.82 219.259C114.257 219.871 114.519 220.613 114.781 221.334C114.825 221.487 114.891 221.64 114.869 221.793C114.978 222.055 115.065 222.317 115.175 222.579C115.24 222.754 115.306 222.951 115.24 223.125C115.175 223.344 114.934 223.431 114.738 223.497C113.449 223.868 112.138 224.174 110.806 224.414C112.75 232.693 114.366 238.81 114.738 240.077L116.485 249.776L117.206 253.774C117.206 253.73 117.403 253.97 117.796 254.211Z" fill="#FFD6CA"/>
<path d="M81.8612 148.701L81.468 148.766C81.468 148.788 81.468 148.788 81.468 148.81C81.5991 148.766 81.7302 148.723 81.8612 148.701Z" fill="#6969FF"/>
<path d="M94.2037 85.9627C90.7304 90.2006 87.2134 94.0234 84.0678 93.7394C82.1673 94.3947 80.0047 92.669 78.126 90.419C75.0241 86.6835 73.1892 82.1399 72.796 77.4651C72.6212 75.2588 72.3809 72.5063 72.0751 69.4481C71.4634 62.9384 70.5896 55.118 69.5193 48.4553C68.6455 48.4553 67.728 48.3461 66.8323 48.1932C66.4828 50.5743 66.0241 53.4578 65.3688 56.8219C65.3032 56.9092 65.2377 56.9748 65.1721 57.0403C61.8954 60.2296 61.0872 67.067 66.876 70.0816C67.7498 73.1398 68.7983 76.2199 69.7595 79.0379C70.7207 81.8122 71.5726 84.3243 72.0751 86.2904C72.4246 89.5234 72.0095 91.7515 70.9828 94.0889L70.8081 94.0671C70.8081 94.0671 65.5872 101.21 60.3445 113.356C60.8688 116.742 61.109 120.718 60.9998 125.065C68.2086 125.829 77.6891 125.48 77.6891 125.48C79.3712 125.261 80.8566 125.152 81.9489 125.174C87.7377 125.37 90.3809 147.39 90.3809 147.39C90.796 150.077 91.1673 152.829 91.5168 155.582C93.2426 155.604 94.9683 155.56 96.694 155.472C102.592 155.189 108.337 154.271 113.471 152.589C118.582 150.929 123.104 148.482 126.512 145.162C124.153 134.633 111.133 107.567 103.095 96.9506C103.116 96.7758 103.073 96.6229 102.985 96.47C100.91 93.1059 98.0921 84.8923 103.728 70.6932C103.903 70.2345 104.099 69.7539 104.274 69.2515C103.794 70.0597 103.335 70.8462 102.876 71.5452C98.7037 78.0986 98.4198 80.1301 94.2037 85.9627Z" fill="#6969FF"/>
<path d="M72.4025 42.1204C72.4243 42.1204 72.4243 42.1422 72.4462 42.1422C72.6646 42.2515 72.8394 42.4262 72.9923 42.601C73.3636 42.9287 73.6476 43.2345 73.7787 43.4966C78.803 54.8777 83.718 65.4068 86.3175 74.0355C89.3103 65.5379 92.4996 53.3704 97.2399 47.7126C97.8297 47.0136 98.4413 46.3146 99.0967 45.7029C100.298 44.5889 101.653 43.7588 103.247 43.6495C98.8564 41.3995 92.7617 39.6738 88.9608 38.9311C88.9389 39.1495 88.9171 39.3461 88.8952 39.5646C88.8078 40.2855 88.4802 40.9845 87.9341 41.4869C81.4244 47.4505 76.4001 41.3558 78.4098 39.1932C78.4972 39.1058 78.5627 39.0185 78.6501 38.9092C74.8491 38.5816 69.7811 38.232 68.4268 39.5209C68.4049 39.5427 68.3612 39.5864 68.3394 39.6301C69.6719 40.3291 71.2666 41.2685 72.4025 42.1204Z" fill="#6969FF"/>
<path d="M133.262 268.672C133.065 267.558 132.541 266.05 131.886 264.39C129.745 259.082 126.009 252.288 126.009 252.288C125.66 251.633 125.048 251.109 124.284 250.672C124.087 250.497 123.891 250.344 123.694 250.235C120.81 248.553 117.643 252.725 117.774 254.058C117.774 254.101 117.796 254.145 117.796 254.189C117.403 253.948 117.206 253.708 117.206 253.708L116.485 249.711C116.463 249.732 116.442 249.732 116.442 249.754C114.563 251.786 115.458 259.169 116.07 262.446C116.332 263.866 116.966 267.143 118.014 270.376C119.369 274.57 121.444 278.72 124.371 278.764C129.57 278.851 134.114 273.412 133.262 268.672ZM129.526 263.822C126.577 263.604 123.475 264.74 120.963 266.138C120.177 266.575 119.478 265.373 120.264 264.936C122.973 263.429 126.359 262.184 129.526 262.424C130.422 262.49 130.444 263.91 129.526 263.822ZM128.369 261.179C125.42 260.961 122.318 262.096 119.806 263.495C119.019 263.931 118.32 262.73 119.107 262.293C121.815 260.786 125.201 259.541 128.369 259.781C129.264 259.846 129.286 261.245 128.369 261.179ZM117.315 256.832C120.024 255.325 123.41 254.079 126.577 254.32C127.473 254.385 127.473 255.783 126.577 255.718C123.628 255.499 120.526 256.635 118.014 258.033C117.228 258.492 116.529 257.269 117.315 256.832ZM118.255 259.541C120.963 258.033 124.349 256.788 127.517 257.029C128.412 257.094 128.412 258.492 127.517 258.427C124.568 258.208 121.466 259.344 118.954 260.742C118.189 261.179 117.468 259.978 118.255 259.541Z" fill="#6969FF"/>
<path d="M120.264 264.936C119.478 265.373 120.177 266.575 120.963 266.138C123.476 264.74 126.578 263.604 129.527 263.822C130.422 263.888 130.422 262.49 129.527 262.424C126.359 262.184 122.995 263.429 120.264 264.936Z" fill="white"/>
<path d="M119.107 262.293C118.32 262.73 119.019 263.931 119.806 263.495C122.318 262.096 125.42 260.961 128.369 261.179C129.264 261.245 129.264 259.846 128.369 259.781C125.201 259.541 121.837 260.786 119.107 262.293Z" fill="white"/>
<path d="M118.976 260.742C121.488 259.344 124.59 258.208 127.539 258.427C128.434 258.492 128.434 257.094 127.539 257.028C124.371 256.788 120.985 258.033 118.277 259.541C117.468 259.978 118.189 261.179 118.976 260.742Z" fill="white"/>
<path d="M126.578 255.74C127.473 255.805 127.473 254.407 126.578 254.342C123.41 254.101 120.024 255.346 117.315 256.854C116.529 257.291 117.228 258.492 118.014 258.055C120.527 256.657 123.65 255.499 126.578 255.74Z" fill="white"/>
<path d="M66.5046 252.507C66.5483 252.638 66.6575 252.725 66.8104 252.812C68.6454 253.664 70.0434 255.172 70.6333 257.138C70.8954 257.99 72.2498 257.64 71.9877 256.766C71.376 254.735 70.0434 253.053 68.2303 251.982C67.99 251.851 67.7716 251.72 67.5095 251.611C66.876 251.305 66.2862 252.004 66.5046 252.507Z" fill="white"/>
<path d="M69.6938 251.48C69.6938 251.764 69.8467 252.004 70.1962 252.07C71.2229 252.223 72.1841 252.616 72.9924 253.293C73.8006 253.992 74.172 254.888 74.7181 255.783C75.1987 256.548 76.4002 255.849 75.9196 255.084C75.2424 253.992 74.7836 252.965 73.7569 252.135C73.0361 251.545 72.206 251.13 71.3103 250.89C71.07 250.825 70.8298 250.781 70.5676 250.737C70.0434 250.628 69.6938 251.087 69.6938 251.48Z" fill="white"/>
<path d="M72.8831 250.213C72.9486 250.322 73.0361 250.431 73.189 250.497C74.1283 250.912 75.0895 251.327 75.9196 251.917C76.8589 252.594 77.2302 253.533 77.8637 254.451C78.388 255.172 79.5894 254.473 79.0652 253.752C78.3661 252.769 77.9511 251.786 76.9899 250.999C76.1817 250.366 75.286 249.907 74.3467 249.492C74.1938 249.426 74.0409 249.361 73.8661 249.274C73.2545 248.99 72.6647 249.732 72.8831 250.213Z" fill="white"/>
<path d="M75.3955 248.924C75.461 248.968 75.5484 249.011 75.6576 249.033C76.8591 249.23 78.0169 249.295 79.131 249.842C80.1577 250.366 80.9878 251.13 81.6213 252.07C82.1237 252.812 83.3251 252.113 82.8227 251.371C82.1237 250.3 81.2281 249.405 80.114 248.793C79.1091 248.225 78.1043 248.028 77.0121 247.854C76.6844 247.81 76.3567 247.744 76.029 247.701C75.2426 247.548 74.8712 248.575 75.3955 248.924Z" fill="white"/>
<path d="M65.3904 31.4384C65.3904 31.4384 68.3394 31.5694 72.5554 31.635C71.8783 29.8437 71.2229 27.9214 70.655 25.9335C68.9948 29.101 67.3127 31.3073 65.3904 31.4384Z" fill="#4B3C4F"/>
<path d="M87.9125 41.4869C88.4586 40.9845 88.8081 40.3073 88.8736 39.5646C88.8955 39.3461 88.9173 39.1495 88.9392 38.9311C89.2668 36.2005 89.6819 33.5355 90.0751 31.2636C90.5338 28.5986 90.9707 26.4796 91.1892 25.4966C91.0581 25.5403 90.9271 25.5621 90.7742 25.584C90.7523 25.6495 90.7523 25.6932 90.7304 25.7588C90.0969 28.0306 88.6771 29.9966 86.7329 31.351C84.8979 32.6398 83.3688 33.9724 80.1576 34.9554C79.8955 36.3316 79.4149 37.8389 78.6066 38.8874C78.5192 38.9966 78.4537 39.084 78.3664 39.1714C76.4003 41.3777 81.4028 47.4505 87.9125 41.4869Z" fill="#F2BEB3"/>
<path d="M86.7546 31.3947C88.6988 30.0403 90.1187 28.0524 90.7522 25.8024C90.774 25.7369 90.774 25.6932 90.7959 25.6277C90.9269 25.6058 91.058 25.584 91.2109 25.5403C95.0119 24.601 97.524 18.5281 95.6017 16.6058C94.2255 15.2296 92.1066 17.5014 90.7522 19.2709C87.4318 17.982 84.6138 11.3631 83.7182 9.04755C80.8784 11.4068 74.2376 16.5184 68.9512 17.7417C68.973 18.0039 69.0167 18.266 69.0604 18.55C69.3881 18.2442 69.8031 18.0039 70.2182 17.8073C70.6769 17.5888 71.092 18.266 70.6114 18.5063C70.0871 18.7684 69.3444 19.0961 69.2133 19.7078C69.3662 20.5815 69.541 21.4772 69.7376 22.3728C69.8905 22.2854 70.0434 22.198 70.1745 22.1544C70.7206 21.9359 71.507 22.7223 71.7473 22.8971C71.7473 22.8971 71.5726 22.8971 71.3323 22.8971C71.507 23.2029 71.4197 23.5961 71.1138 23.7927C70.7862 23.9893 70.3711 23.9238 70.1526 23.5961C70.0434 23.4432 70.0216 23.2684 70.0434 23.0937C69.9997 23.1155 69.9561 23.1374 69.9124 23.1592C70.1308 24.0985 70.3929 25.0379 70.6551 25.9772C71.223 27.965 71.8784 29.8874 72.5555 31.6786C73.1672 33.2952 73.7789 34.8024 74.3687 36.135C76.8153 35.8728 78.6721 35.5015 80.1794 35.0427C83.3687 34.016 84.9196 32.6617 86.7546 31.3947ZM94.1381 18.0912C94.6405 17.9602 94.859 18.7247 94.3566 18.8558C92.9803 19.2053 91.8881 20.2102 91.5167 21.5864C91.3857 22.0888 90.6211 21.8704 90.7522 21.3679C91.1891 19.7514 92.4998 18.5063 94.1381 18.0912ZM77.5143 16.6495C79.24 16.6277 80.9658 16.999 82.0143 18.4844C82.3201 18.8995 81.6211 19.2927 81.3153 18.8777C80.4415 17.6544 78.9123 17.4141 77.5143 17.4359C77.0119 17.4578 77.0119 16.6495 77.5143 16.6495ZM78.2788 21.2369C79.1308 21.3024 80.6163 21.8922 82.0362 21.5864C80.9002 22.3947 79.4585 22.2417 78.7157 22.1107C78.9123 22.4165 78.825 22.8315 78.5192 23.0281C78.1915 23.2247 77.7765 23.1592 77.558 22.8315C77.4051 22.6131 77.4051 22.3073 77.558 22.0888C76.8808 22.1762 76.2036 22.3073 76.2036 22.3073C76.4876 22.1325 77.4269 21.1713 78.2788 21.2369ZM72.0531 27.4845C72.0531 27.1131 72.206 26.7199 72.3371 26.3922C73.2327 24.1422 73.2983 22.1762 73.1672 19.817C73.1672 19.6641 73.1454 19.4893 73.2109 19.3364C73.5386 18.6155 74.2158 19.4675 74.325 19.817C74.3687 19.9699 74.4124 20.101 74.4342 20.2102C74.74 22.4165 75.0458 24.6228 75.3298 26.851C75.3517 27.0694 75.3953 27.2879 75.3298 27.5063C75.0895 28.2927 73.6696 28.3364 73.0143 28.3582C72.7522 28.3582 72.49 28.3146 72.2934 28.1398C72.0968 27.9432 72.0313 27.7029 72.0531 27.4845ZM73.0361 32.4214C72.7084 31.9845 73.2109 31.6131 73.2109 31.6131H73.2328C72.8177 31.5257 72.5774 31.1107 72.7303 30.7393C72.7522 30.7175 72.7522 30.6956 72.7522 30.6956C72.7522 30.6956 73.1891 29.8 73.9536 30.1932C74.6745 29.5379 75.9415 30.368 76.8153 30.5646C77.6672 30.7612 78.9997 30.8922 78.9997 30.8922C78.9997 30.8922 77.6672 32.3777 76.1818 32.749C74.6963 33.1204 73.3638 32.8364 73.0361 32.4214Z" fill="#FAD4C8"/>
<path d="M83.6964 9.04754C84.592 11.3631 87.41 17.982 90.7304 19.2709C92.0629 17.5014 94.2037 15.2296 95.5799 16.6058C97.5023 18.5281 95.0119 24.601 91.1891 25.5403C90.9707 26.5233 90.5338 28.6422 90.075 31.3073C94.6624 30.9796 98.6382 30.3898 100.648 29.3849C107.354 26.0427 100.364 1.53297 88.4149 1.5985C88.1964 1.55481 87.978 1.51112 87.7595 1.46743C85.9246 0.353352 83.3032 -0.323833 79.4803 0.15675C68.2303 1.5985 64.0799 11.2539 67.9464 17.9383C68.2741 17.8946 68.6017 17.8291 68.9512 17.7417C74.2158 16.5184 80.8566 11.3849 83.6964 9.04754Z" fill="#4B3C4F"/>
<path d="M75.308 27.4845C75.3735 27.2661 75.3516 27.0476 75.308 26.8292C75.024 24.6228 74.7181 22.4165 74.4123 20.1884C74.3905 20.0792 74.3686 19.9481 74.3031 19.7952C74.172 19.4457 73.5167 18.5937 73.189 19.3146C73.1235 19.4675 73.1235 19.6204 73.1453 19.7952C73.2982 22.1544 73.2109 24.1204 72.3152 26.3704C72.1842 26.6981 72.0531 27.1131 72.0312 27.4627C72.0312 27.703 72.0968 27.9432 72.2715 28.0961C72.4463 28.2709 72.7303 28.3364 72.9924 28.3146C73.6696 28.3146 75.0895 28.2709 75.308 27.4845Z" fill="#F2BEB3"/>
<path d="M90.7524 21.3898C90.6213 21.8923 91.3858 22.0889 91.5169 21.6083C91.8883 20.2321 92.9805 19.2272 94.3567 18.8777C94.8592 18.7466 94.6407 17.9821 94.1383 18.1131C92.4999 18.5063 91.1892 19.7515 90.7524 21.3898Z" fill="#EFB9A8"/>
<path d="M77.5143 17.4577C78.9342 17.4359 80.4415 17.6543 81.3153 18.8995C81.6211 19.3145 82.2983 18.9213 82.0143 18.5063C80.9658 17.0427 79.24 16.6495 77.5143 16.6713C77.0118 16.6495 77.0118 17.4577 77.5143 17.4577Z" fill="#4B3C4F"/>
<path d="M70.6114 18.5063C71.0701 18.2879 70.6769 17.5888 70.2181 17.8073C69.8031 18.0039 69.388 18.2442 69.0604 18.55C68.689 18.8995 68.405 19.3364 68.405 19.9044C68.405 20.4287 69.1914 20.4287 69.2133 19.9044C69.2133 19.8388 69.2133 19.7733 69.2351 19.7078C69.3444 19.0743 70.0871 18.7466 70.6114 18.5063Z" fill="#4B3C4F"/>
<path d="M60.563 246.499C62.8349 247.439 65.1941 246.805 66.8324 243.878C67.182 243.266 67.4441 242.567 67.6625 241.803C63.6868 248.203 55.8882 242.261 55.0144 233.196C54.9489 232.497 54.9271 231.776 54.9271 231.055C54.9489 228.761 56.063 223.89 57.3955 219.696C57.3955 219.674 57.3737 219.652 57.3737 219.609C57.4611 219.346 57.5703 219.106 57.6795 218.844C57.7888 218.494 57.9198 218.145 58.029 217.817C56.9149 219.63 55.7572 223.169 54.9708 226.599C54.3373 229.264 53.9222 231.842 53.9004 233.48C53.9004 234.201 53.9222 234.922 53.9877 235.621C54.1407 237.15 54.4902 238.592 54.9708 239.88C56.1941 243.157 58.313 245.604 60.563 246.499Z" fill="#4B3C4F"/>
<path d="M57.4828 97.453C57.2425 93.2369 56.7619 87.7539 55.6915 82.5549C54.075 74.5816 51.1478 67.3073 45.8395 66.3461C45.6648 66.2369 45.4464 66.1277 45.2279 66.0185C44.7037 65.7782 44.1138 65.6034 43.4585 65.4505C44.5726 66.5646 49.3784 71.7199 49.5095 77.7709C49.5313 77.7709 49.5313 77.7709 49.5531 77.7709C50.2303 79.8243 51.0604 81.8122 52.3056 83.5816C52.8954 84.4117 53.6381 85.1107 54.0095 86.0719C54.3809 87.0549 54.5337 88.1253 54.5337 89.1738C54.5337 91.2709 53.3978 93.9797 50.9294 94.6569C50.1648 94.8753 50.6017 97.4311 50.6454 97.9336C50.6454 97.9336 50.7983 119.188 53.2886 122.749C54.1405 123.972 57.2862 124.671 61.0653 125.087C61.1746 120.739 60.9124 116.764 60.41 113.378C59.7983 109.402 58.8371 106.235 57.7012 104.203C57.6794 103.111 57.6575 100.642 57.4828 97.453Z" fill="#D08D83"/>
<path d="M34.218 69.3389C34.3272 69.2734 34.4365 69.2079 34.5457 69.1423C34.4365 69.2297 34.3272 69.2952 34.218 69.3389Z" fill="#6D342E"/>
<path d="M33.2351 69.7758C33.4099 69.7103 33.5846 69.6448 33.7375 69.5792C33.5628 69.6448 33.4099 69.7103 33.2351 69.7758Z" fill="#6D342E"/>
<path d="M27.0967 68.8802C27.2714 68.9894 27.4462 69.0987 27.6428 69.186C27.4462 69.0987 27.2714 68.9894 27.0967 68.8802Z" fill="#6D342E"/>
<path d="M31.8805 70.0598C32.2519 70.0161 32.6232 69.9506 32.9727 69.8632C32.6232 69.9506 32.2519 70.0161 31.8805 70.0598C30.4169 70.1909 29.1062 69.9069 27.9048 69.3171C29.1062 69.9069 30.4169 70.1909 31.8805 70.0598Z" fill="#6D342E"/>
<path d="M33.7375 69.5792C33.9123 69.5137 34.0652 69.4263 34.2181 69.3389C34.0652 69.4263 33.8905 69.5137 33.7375 69.5792Z" fill="#6D342E"/>
<path d="M42.9781 46.1835C42.9561 46.1835 42.9561 46.1835 42.9341 46.1835C42.9561 46.2275 42.9781 46.2715 42.9781 46.3155C42.9781 46.2715 42.9781 46.2275 42.9781 46.1835Z" fill="#6D342E"/>
<path d="M35.7691 64.118C36.206 64.2054 36.7084 64.3146 37.2764 64.4457C37.2545 65.4069 36.9706 66.3462 36.49 67.1544C36.9706 66.3462 37.2764 65.4069 37.2764 64.4457C38.9584 64.7952 40.9245 64.97 42.6502 65.2976C42.6502 65.2758 42.672 65.2758 42.672 65.254C42.8249 65.101 43.0652 65.101 43.2181 65.2321C43.24 65.2539 43.3274 65.3413 43.4366 65.4505C44.0919 65.6035 44.7036 65.7782 45.206 66.0185C43.6114 59.3559 43.1526 52.1034 42.956 46.6204C42.9342 46.7078 42.9123 46.7952 42.8687 46.8607C42.8687 46.8826 42.8468 46.9044 42.825 46.9044C42.4755 51.4044 41.5361 55.9699 40.6186 59.3996C37.6259 59.5306 35.5288 59.334 33.8687 58.9408C34.0871 60.6447 34.5677 62.7855 35.7036 64.0525C35.7691 64.0743 35.7691 64.0962 35.7691 64.118Z" fill="#6D342E"/>
<path d="M36.4244 67.2636C36.3807 67.3291 36.337 67.4165 36.2715 67.4821C36.337 67.4165 36.3807 67.351 36.4244 67.2636Z" fill="#6D342E"/>
<path d="M9.883 72.6375C10.866 71.1739 12.8976 69.8195 15.2786 68.6399L15.3005 68.3778L15.2786 68.5088L15.3223 68.1375L15.3005 68.3778L15.3223 68.1375C15.4971 68.1593 15.7374 68.203 16.0432 68.2685C18.4679 67.1326 21.133 66.1714 23.4048 65.4506C24.082 65.2321 24.6937 65.0355 25.2835 64.8608C25.1087 62.5452 24.7374 60.2515 24.3223 58.1763C24.082 56.9967 23.8417 55.9044 23.5796 54.8996C24.082 54.8996 24.8248 54.834 25.5675 54.3753C26.5287 53.8073 27.4679 52.6277 27.8175 50.2685C26.3539 51.885 26.1573 52.0379 24.1913 52.0598C24.1257 52.0598 24.0384 52.0598 23.9728 52.0816C20.2592 51.9505 16.9388 46.5768 18.4461 44.5234C20.0845 42.2952 24.65 47.8001 24.65 47.8001C27.1184 46.7952 27.7519 36.9869 27.8175 35.7855C30.4825 37.402 37.7131 41.5306 42.934 41.9457C43.2617 41.9675 43.5675 41.9894 43.8733 41.9894C45.9922 36.5064 42.803 29.9311 35.7253 27.9432C34.2398 27.5282 32.6015 27.3097 30.7884 27.3534C27.8612 27.419 25.7641 28.0961 24.2786 29.0355C23.5796 28.9918 22.7277 29.1665 21.7228 29.6034C18.0966 31.1981 15.7592 38.2758 16.2835 44.5889C16.1743 43.584 12.3733 29.1665 23.2083 26.4578C25.7422 25.8243 27.7956 25.5622 29.4121 25.5403C27.9485 24.8194 25.9388 24.2515 23.2083 24.0767C14.7981 23.5743 5.05531 28.1398 5.23007 37.7733C5.40482 47.4287 11.4558 56.385 9.46792 61.9773C7.50189 67.5695 0.336878 71.9166 0.00920768 82.0088C-0.209239 88.2127 3.50436 94.4822 6.34417 99.8123C5.88543 89.6763 6.12571 77.1593 9.883 72.6375Z" fill="#6D342E"/>
<path d="M18.6864 103.657C18.6864 103.635 18.6646 103.613 18.6646 103.591C18.4024 105.055 18.1403 106.584 17.8345 108.201C18.468 108.157 19.1233 108.135 19.7568 108.091C19.167 105.426 18.6864 103.657 18.6864 103.657Z" fill="#6D342E"/>
<path d="M16.3272 44.5452C16.3272 44.5671 16.3272 44.5671 16.3272 44.5452C15.8029 38.2321 18.1184 31.1544 21.7665 29.5598C22.7713 29.1229 23.6014 28.9481 24.3223 28.9918C25.8077 28.0525 27.883 27.3753 30.832 27.3098C32.6451 27.2661 34.3053 27.4845 35.7689 27.8996C35.7689 27.8996 34.8078 25.4311 29.4777 25.4966C27.8393 25.5185 25.8078 25.7588 23.2738 26.4141C12.417 29.1229 16.2179 43.5622 16.3272 44.5452Z" fill="white"/>
<path d="M65.1503 147.565C65.8493 144.179 67.4658 141.011 69.9124 138.521C71.7037 136.686 73.2983 135.79 74.7837 135.79C76.0726 132.164 77.143 128.625 77.7765 125.523C77.7765 125.523 68.2959 125.873 61.0871 125.108C57.308 124.715 54.1624 123.994 53.3105 122.771C50.8202 119.21 50.6672 97.9554 50.6672 97.9554C50.6235 97.453 50.1866 94.8972 50.9512 94.6787C53.4197 94.0015 54.5556 91.2928 54.5556 89.1957C54.5556 88.1472 54.4026 87.0768 54.0313 86.0938C53.6599 85.1326 52.8954 84.4336 52.3274 83.6035C51.0823 81.8341 50.2522 79.8462 49.575 77.7928C49.5531 77.7928 49.5532 77.7928 49.5313 77.7928C49.5313 77.8146 49.5313 77.8365 49.5313 77.8583C49.5313 78.0768 49.3566 78.2515 49.16 78.2515C48.9634 78.2515 48.7886 78.0768 48.7886 77.8802C48.7886 77.8583 48.7886 77.8365 48.7886 77.8146C40.2691 78.0986 31.859 79.2345 24.5847 82.8171C24.5847 82.8608 24.5847 82.9045 24.5847 82.9481C24.5847 83.1666 24.4317 83.3413 24.2133 83.3413H24.1915C24.0604 83.3413 23.9512 83.2758 23.8638 83.1666C22.7497 83.7345 21.6793 84.368 20.6308 85.0671C20.6308 89.6108 20.0628 95.6399 18.6866 103.613C18.6866 103.635 18.7084 103.657 18.7084 103.679C18.7084 103.679 19.189 105.47 19.7789 108.091C21.2424 114.47 23.4706 125.851 21.6357 129.259C20.9148 130.591 19.4075 133.278 18.075 136.599C18.1186 140.269 18.0968 143.545 17.9875 145.839C19.0798 146.538 19.6696 149.312 20.5871 152.786C20.5871 153.528 20.4779 153.9 20.325 154.424C20.0847 155.232 19.6696 156.521 19.3638 157.744C21.4827 159.951 24.6502 161.786 29.2376 162.965C33.0167 163.948 36.4682 164.582 39.592 164.953C55.7352 166.919 63.1624 161.939 63.1624 161.939C63.1624 161.939 63.1842 161.917 63.2061 161.873C63.6648 156.587 64.3202 151.628 65.1503 147.565ZM26.0483 89.9384C31.9682 100.096 40.8371 93.9579 40.8371 93.9579C40.8371 93.9579 38.9148 97.8244 32.4269 97.9336C25.939 98.0428 26.0483 89.9384 26.0483 89.9384Z" fill="#64486D"/>
<path d="M24.5408 82.7952C31.8151 79.2346 40.2253 78.0986 48.7447 77.7928C48.6137 71.4142 42.7812 65.8438 42.7156 65.8001C42.5846 65.669 42.5627 65.4506 42.6719 65.2976C40.9462 64.97 38.9802 64.7952 37.2981 64.4457C37.2763 65.4069 36.9923 66.3462 36.5117 67.1544C36.9923 66.3462 37.2981 65.4069 37.2981 64.4457C36.7302 64.3365 36.2059 64.2273 35.7908 64.118C36.0529 65.3413 31.2471 72.2443 25.3272 64.8608C24.7374 65.0355 24.1257 65.2321 23.4486 65.4506C21.1767 66.1714 18.4898 67.1326 16.0869 68.2685C18.3369 68.8147 23.9291 71.3049 24.5408 82.7952ZM36.2714 67.4821C36.3151 67.4166 36.3806 67.3292 36.4243 67.2637C36.3806 67.351 36.337 67.4166 36.2714 67.4821ZM33.7374 69.5792C33.9122 69.5137 34.0651 69.4263 34.218 69.3389C34.3272 69.2734 34.4365 69.2079 34.5457 69.1423C34.4365 69.2079 34.3272 69.2734 34.218 69.3389C34.0651 69.4263 33.8903 69.5137 33.7374 69.5792C33.5627 69.6447 33.4097 69.7103 33.235 69.7758C33.4097 69.7103 33.5627 69.6447 33.7374 69.5792ZM31.8806 70.0598C32.252 70.0161 32.6234 69.9506 32.9729 69.8632C32.6234 69.9506 32.252 70.0161 31.8806 70.0598C30.417 70.1909 29.1064 69.9069 27.9049 69.3171C29.1064 69.9069 30.417 70.1909 31.8806 70.0598ZM27.6209 69.186C27.4462 69.0986 27.2714 68.9894 27.0748 68.8802C27.2714 68.9894 27.4462 69.0986 27.6209 69.186Z" fill="#D08D83"/>
<path d="M35.769 64.118C35.769 64.0962 35.7689 64.0744 35.7471 64.0744C34.633 62.8292 34.1306 60.6666 33.9122 58.9627C31.6622 58.4384 30.2641 57.5865 28.6912 56.8001C27.4898 56.2103 26.4413 55.3802 25.6112 54.3972C24.8685 54.834 24.1257 54.9214 23.6233 54.9214C23.8636 55.9263 24.1258 57.0185 24.366 58.1981C24.7811 60.2734 25.1306 62.5671 25.3272 64.8826C31.2253 72.2443 36.0311 65.3413 35.769 64.118Z" fill="#B26B5E"/>
<path d="M27.8613 35.7636C27.7957 36.9651 27.1622 46.7734 24.6938 47.7782C24.6938 47.7782 20.1282 42.2952 18.4899 44.5015C16.9826 46.5549 20.303 51.9506 24.0166 52.0598C24.0821 52.0598 24.1477 52.0379 24.235 52.0379C26.2011 52.0161 26.3977 51.885 27.8613 50.2467C27.4899 52.6059 26.5506 53.7855 25.6113 54.3535C26.4632 55.3583 27.5117 56.1666 28.6913 56.7564C30.2641 57.5428 31.6622 58.3947 33.9122 58.919C35.5506 59.2904 37.6695 59.5088 40.6622 59.3777C41.5797 55.9481 42.519 51.3826 42.8686 46.8826C42.6501 47.2321 42.1695 47.3632 41.7981 47.1666C41.4049 46.97 41.2521 46.4894 41.4487 46.0962C41.6016 45.8122 41.9292 45.6374 42.2569 45.6811C42.1695 45.5064 42.1258 45.3316 42.3224 45.1569C42.4317 45.0695 42.5627 45.0039 42.6938 44.9821L42.9778 44.9384C42.9778 44.8292 42.9778 44.7418 42.9778 44.6326C42.9123 44.6107 42.8249 44.5889 42.7593 44.5452C42.3443 44.2175 41.7545 44.2394 41.2739 44.1738C40.6841 44.1083 40.6841 43.1908 41.2739 43.2564C41.8855 43.3219 42.4753 43.3656 42.9996 43.6277C42.9996 43.0379 42.9996 42.47 42.9559 41.902C37.735 41.5088 30.5263 37.402 27.8613 35.7636ZM19.9972 46.4238C19.5384 46.3802 19.5166 45.6374 19.9972 45.6811C21.5482 45.834 22.9462 46.7515 23.6016 48.1933C23.7982 48.6302 23.1646 49.0015 22.968 48.5646C22.4001 47.3632 21.3079 46.5549 19.9972 46.4238ZM30.854 44.1738C31.7278 42.47 34.0433 42.3607 35.769 42.4481C36.3588 42.47 36.3588 43.3874 35.769 43.3656C34.4365 43.3001 32.3613 43.3 31.6622 44.6544C31.3782 45.1568 30.5918 44.6981 30.854 44.1738ZM30.6792 45.6593C31.1598 46.0306 31.7277 46.0743 32.2957 46.0088C31.9243 45.8996 31.6404 45.7248 31.553 45.4408C32.121 45.8777 32.7982 45.8777 33.4753 45.7467C33.519 45.7248 33.5627 45.7248 33.6064 45.703C33.9122 45.5938 34.1962 45.5064 34.4584 45.4845C34.502 45.4845 34.5676 45.4845 34.6113 45.4845C34.6768 45.4845 34.7642 45.4845 34.8297 45.4845C35.9001 45.5719 36.337 46.4894 36.337 46.4894C36.337 46.4894 36.0093 46.2491 35.5943 46.1399C35.8127 46.3802 35.8564 46.7297 35.7035 47.0355C35.485 47.4287 35.0044 47.5816 34.5894 47.3632C34.1962 47.1666 34.0433 46.686 34.2399 46.2928C34.2618 46.2491 34.2836 46.2272 34.3055 46.1835C34.2399 46.2054 34.1525 46.2054 34.0651 46.2272C33.0821 46.5112 30.7884 47.0792 30.3515 46.1399C30.8321 46.4239 31.3564 46.4457 31.8807 46.3365C31.2909 46.2709 30.8103 46.0743 30.6792 45.6593ZM38.5214 56.7345C34.9826 56.9093 33.235 54.5282 33.235 54.5282C33.235 54.5282 33.3661 54.5938 33.6064 54.6811C34.4583 54.987 35.3977 54.987 36.2496 54.6811C37.8006 54.135 39.1113 53.851 39.5263 54.6811C40.6404 53.6981 41.0554 54.5719 41.252 54.8122C41.121 55.4894 40.4001 56.5598 38.5214 56.7345ZM41.1428 50.2685C41.3176 50.5525 41.4923 50.902 41.5579 51.2297C41.6016 51.4481 41.5797 51.6666 41.4487 51.8413C41.2957 52.0379 41.0554 52.1253 40.8151 52.1472C40.2035 52.2345 38.8928 52.3656 38.5652 51.6884C38.4778 51.5137 38.4778 51.2952 38.4559 51.0986C38.3904 49.0452 38.3685 46.9918 38.3249 44.9166C38.3249 44.8292 38.3248 44.6981 38.3685 44.5452C38.4341 44.1957 38.9147 43.3219 39.3297 43.9554C39.4171 44.0865 39.4171 44.2394 39.439 44.3704C39.6356 46.5768 39.985 48.3462 41.1428 50.2685Z" fill="#D08D83"/>
<path d="M39.3081 43.9554C38.8931 43.3437 38.4125 44.1956 38.347 44.5452C38.3251 44.6981 38.3032 44.8291 38.3032 44.9165C38.3469 46.9699 38.3688 49.0233 38.4343 51.0986C38.4343 51.2952 38.4562 51.5136 38.5435 51.6884C38.8712 52.3656 40.1819 52.2127 40.7935 52.1471C41.0338 52.1253 41.2741 52.0379 41.427 51.8413C41.5581 51.6665 41.5799 51.4481 41.5362 51.2296C41.4707 50.902 41.296 50.5525 41.1212 50.2685C39.9853 48.3461 39.6358 46.5549 39.4173 44.3923C39.4173 44.2393 39.3955 44.0864 39.3081 43.9554Z" fill="#B26B5E"/>
<path d="M42.978 46.6204C42.9998 46.5112 42.9998 46.4238 42.978 46.3146C42.9562 46.2709 42.9562 46.2272 42.9343 46.1835C42.7159 46.1617 42.5848 46.118 42.5411 46.0743C42.4537 45.9651 42.3445 45.834 42.279 45.7029C41.9513 45.6811 41.6454 45.834 41.4707 46.118C41.2522 46.5112 41.4052 46.9918 41.8202 47.1884C42.1916 47.385 42.6721 47.2539 42.8906 46.9044C42.9124 46.8825 42.9125 46.8607 42.9343 46.8607C42.9562 46.7952 42.978 46.7078 42.978 46.6204Z" fill="#4B3C4F"/>
<path d="M31.6404 44.6326C32.3395 43.3001 34.4147 43.3001 35.7472 43.3437C36.337 43.3656 36.337 42.4481 35.7472 42.4263C34.0215 42.3607 31.7278 42.4481 30.8322 44.152C30.5919 44.6981 31.3783 45.1569 31.6404 44.6326Z" fill="#774B4B"/>
<path d="M41.2739 43.2782C40.6841 43.2127 40.6841 44.1301 41.2739 44.1957C41.7763 44.2394 42.3661 44.2394 42.7593 44.567C42.8249 44.6326 42.9123 44.6544 42.9778 44.6544C43.3928 44.7199 43.786 44.2175 43.3928 43.9117C43.2618 43.8025 43.1307 43.7369 42.9778 43.6496C42.4754 43.3874 41.8855 43.3437 41.2739 43.2782Z" fill="#774B4B"/>
<path d="M22.9462 48.5646C23.1428 49.0015 23.7763 48.6301 23.5797 48.1933C22.9244 46.7515 21.5482 45.834 19.9753 45.6811C19.4948 45.6374 19.5166 46.3801 19.9753 46.4238C21.3079 46.5549 22.4001 47.3632 22.9462 48.5646Z" fill="#F2BBAA"/>
<path d="M32.4268 97.9336C38.9147 97.8244 40.8371 93.9579 40.8371 93.9579C40.8371 93.9579 31.9681 100.096 26.0482 89.9385C26.0482 89.9385 25.939 98.0429 32.4268 97.9336Z" fill="#4B3C4F"/>
<path d="M39.5264 54.6811C39.1113 53.851 37.8007 54.1569 36.2497 54.6811C35.3977 54.9651 34.4584 54.987 33.6065 54.6811C33.3662 54.5938 33.2351 54.5282 33.2351 54.5282C33.2351 54.5282 34.9827 56.9093 38.5215 56.7345C40.4002 56.5598 41.121 55.4894 41.2521 54.8122C41.0555 54.5938 40.6405 53.6981 39.5264 54.6811Z" fill="#A52861"/>
<path d="M30.3516 46.1398C30.7885 47.0792 33.0603 46.5112 34.0652 46.2272C34.1525 46.2054 34.2399 46.2054 34.3055 46.1835C34.2836 46.2272 34.2618 46.249 34.2399 46.2927C34.0215 46.6859 34.1744 47.1665 34.5894 47.3631C34.9826 47.5597 35.4851 47.4068 35.7035 47.0355C35.8564 46.7296 35.8127 46.3801 35.5943 46.1398C36.0312 46.2709 36.337 46.4893 36.337 46.4893C36.337 46.4893 35.922 45.5719 34.8297 45.4845C34.7642 45.4845 34.6768 45.4845 34.6113 45.4845C34.5676 45.4845 34.5021 45.4845 34.4584 45.4845C34.1962 45.4845 33.9122 45.5719 33.6064 45.7029C33.5627 45.7248 33.5191 45.7248 33.4754 45.7466C32.7982 45.8777 32.1428 45.8777 31.553 45.4408C31.6404 45.7248 31.9244 45.9214 32.2957 46.0088C31.7278 46.0961 31.1598 46.0306 30.6792 45.6592C30.8103 46.0743 31.2909 46.249 31.8807 46.3146C31.3783 46.4457 30.854 46.4238 30.3516 46.1398Z" fill="#4B3C4F"/>
<path d="M115.218 223.082C115.262 222.907 115.197 222.711 115.153 222.536C115.065 222.274 114.956 222.011 114.847 221.749C114.847 221.771 114.847 221.793 114.825 221.815C114.76 222.033 114.519 222.121 114.323 222.186C111.811 222.885 109.255 223.388 106.655 223.65C105.017 223.825 103.335 223.89 101.675 223.475C99.9708 223.038 98.3543 222.099 96.8033 221.269C94.7936 220.22 92.8931 219.019 90.9489 217.861C90.2936 217.468 89.6382 217.075 88.9829 216.66C88.4805 216.354 87.6286 215.698 87.2791 215.174C87.2791 215.218 87.3009 215.261 87.3009 215.283C87.4101 215.982 88.0217 217.861 88.546 218.21C88.8955 218.429 89.2888 218.647 89.682 218.866C90.0533 219.062 90.4246 219.281 90.7305 219.477C92.6528 220.635 94.313 221.727 96.3227 222.798C97.8737 223.606 99.7742 224.414 101.456 224.851C103.095 225.266 105.366 225.092 107.005 224.917C108.25 224.786 109.495 224.611 110.74 224.371C112.073 224.13 113.383 223.825 114.672 223.453C114.934 223.388 115.153 223.3 115.218 223.082Z" fill="#4B3C4F"/>
<path d="M102.243 217.599C102.57 217.053 103.4 215.786 103.925 215.371C102.854 214.606 101.216 212.378 100.429 211.22C98.7037 208.686 97.5241 206.152 95.8858 203.99L94.6406 191.429C94.7717 189.157 93.7013 172.315 91.5824 155.647C91.2329 152.895 90.8615 150.142 90.4465 147.456C90.4465 147.456 87.8032 125.414 82.0144 125.239C80.9222 125.196 79.4586 125.327 77.7547 125.545C77.143 128.647 76.0726 132.186 74.762 135.812C76.4658 135.79 77.9731 136.97 79.3712 139.22C81.1406 142.104 81.8396 145.468 81.4683 148.788L81.8615 148.723C81.7304 148.744 81.5993 148.788 81.4683 148.81C81.4246 149.138 81.3809 149.487 81.3154 149.815C80.245 155.757 78.7814 162.769 77.2522 169.737C82.0799 185.858 88.6989 204.011 88.6989 204.011C88.9829 204.186 89.2231 204.383 89.4416 204.601C93.5702 209.189 95.5144 216.092 102.243 217.599Z" fill="#D08D83"/>
<path d="M103.924 215.349C103.422 215.764 102.592 217.031 102.242 217.577C95.4924 216.092 93.5482 209.167 89.4414 204.579C89.2448 204.361 88.9827 204.143 88.6987 203.99C86.1429 206.917 85.2254 211.635 87.257 215.087C87.2788 215.109 87.3007 215.152 87.3225 215.174C87.6939 215.72 88.524 216.354 89.0264 216.66C89.6818 217.053 90.3371 217.468 90.9924 217.861C92.9148 219.019 94.8371 220.22 96.8468 221.269C98.3977 222.077 100.014 223.016 101.718 223.475C103.357 223.89 105.039 223.825 106.699 223.65C109.298 223.388 111.854 222.885 114.366 222.186C114.563 222.121 114.803 222.033 114.869 221.815C114.869 221.793 114.869 221.771 114.891 221.749C114.912 221.596 114.869 221.444 114.803 221.291C114.541 220.57 114.279 219.827 113.842 219.215C112.772 217.708 110.915 217.271 109.255 217.206C109.233 217.206 109.233 217.206 109.211 217.206C107.573 217.118 106.262 216.572 104.711 215.808C104.405 215.677 104.165 215.524 103.924 215.349Z" fill="#64486D"/>
<path d="M81.3153 149.793C81.3808 149.465 81.4245 149.116 81.4682 148.788C81.4682 148.766 81.4682 148.766 81.4682 148.744C81.8395 145.424 81.1405 142.06 79.3711 139.176C77.9949 136.926 76.4658 135.747 74.7619 135.769C73.2983 135.769 71.6818 136.664 69.8905 138.499C67.4439 141.011 65.8274 144.157 65.1283 147.543C64.2982 151.628 63.6429 156.587 63.1186 161.829C63.0094 162.856 62.922 163.905 62.8346 164.953C61.3055 182.276 61.1308 201.303 61.1308 201.303C61.1308 201.303 61.1526 201.325 61.1745 201.368C60.8468 204.361 60.6502 207.201 60.541 209.669C60.4973 210.761 60.4754 211.766 60.4536 212.662C59.5143 216.594 58.5094 226.511 58.706 230.138C61.4803 229.635 64.2764 229.504 67.007 229.941C67.0289 227.32 66.8541 225.638 66.8978 222.623C66.9633 220.635 66.8323 216.987 67.291 215.13L69.2352 203.727C69.541 202.679 71.4196 195.121 73.6914 185.356C74.8274 180.507 76.0507 175.111 77.2521 169.672C78.7813 162.747 80.2449 155.735 81.3153 149.793Z" fill="#B26B5E"/>
<path d="M57.3735 219.63C57.3735 219.652 57.3954 219.674 57.3954 219.718C57.4828 219.434 57.5702 219.15 57.6794 218.866C57.5702 219.128 57.4828 219.39 57.3735 219.63Z" fill="#B26B5E"/>
<path d="M69.3663 230.509C69.126 225.987 67.8808 218.036 67.291 215.174C66.8323 217.053 66.9633 220.679 66.8978 222.667C66.8541 225.681 67.0289 227.363 67.007 229.985C64.2764 229.548 61.4803 229.679 58.706 230.181C58.5094 226.555 59.5143 216.638 60.4536 212.706C59.7327 213.514 58.859 215.48 58.007 217.839C57.8978 218.167 57.7667 218.516 57.6575 218.866C57.5701 219.15 57.4827 219.434 57.3735 219.718C56.041 223.912 54.9269 228.761 54.905 231.077C54.905 231.798 54.9269 232.519 54.9924 233.218C55.8662 242.283 63.6648 248.225 67.6405 241.825C67.706 241.715 67.7716 241.606 67.8371 241.475C69.3007 238.919 69.5847 234.747 69.3663 230.509Z" fill="#64486D"/>
<path d="M97.24 47.7345C92.4997 53.3923 89.3104 65.5816 86.3176 74.0574C88.9172 82.6642 89.2667 89.3486 85.1817 93.0404C84.8322 93.368 84.4608 93.6083 84.0676 93.7394C87.2351 94.0234 90.7303 90.2006 94.2036 85.9627C98.4196 80.1302 98.7036 78.0986 102.941 71.5671C103.4 70.868 103.881 70.1035 104.34 69.2734C107.791 63.3753 111.352 54.834 109.495 48.5864C108.927 46.686 107.791 44.9165 105.694 44.0864C104.82 43.7369 104.012 43.6277 103.247 43.6714C101.653 43.7588 100.32 44.6107 99.0968 45.7248C98.4414 46.3364 97.8298 47.0355 97.24 47.7345Z" fill="#FAD4C8"/>
<path d="M72.0969 69.4481C72.3808 72.5064 72.6211 75.2588 72.8177 77.4651C73.2109 82.1181 75.0459 86.6836 78.1478 90.419C80.0265 92.6909 82.1891 94.3948 84.0896 93.7394C84.4828 93.6084 84.8542 93.3899 85.2037 93.0404C89.2886 89.3486 88.9609 82.6642 86.3396 74.0574C83.7182 65.4287 78.825 54.8777 73.8007 43.5185C73.8225 43.5622 73.8444 43.6059 73.8444 43.6714C74.6527 46.0525 72.5992 47.4724 72.5992 47.4724C72.1623 47.953 71.5726 48.2806 70.8735 48.3899C70.4803 48.4554 70.0216 48.4772 69.5847 48.4772C70.6114 55.118 71.4634 62.9384 72.0969 69.4481Z" fill="#FFD6CA"/>
<path d="M46.8007 45.3753L54.5119 44.3267C54.4464 44.1738 54.4027 43.9772 54.4245 43.7588C51.9779 44.1083 47.1065 44.6981 46.5823 44.7636C46.6478 44.851 46.7133 44.9384 46.7352 45.0476C46.7789 45.1569 46.8007 45.2661 46.8007 45.3753Z" fill="#4B3C4F"/>
<path d="M42.6938 45.0039C42.5627 45.0258 42.4098 45.0694 42.3224 45.1787C42.1477 45.3534 42.1695 45.5282 42.2569 45.7029C42.3224 45.834 42.4316 45.9651 42.519 46.0743C42.5627 46.118 42.7156 46.1617 42.9122 46.1835C42.9341 46.1835 42.9341 46.1835 42.9559 46.1835C43.9826 46.2927 46.4292 46.0961 46.6914 45.7248C46.7569 45.6156 46.8006 45.5063 46.8006 45.3971C46.8006 45.2879 46.7788 45.1568 46.7569 45.0476C46.7351 44.9384 46.6695 44.851 46.604 44.7636C46.4511 44.6107 46.2108 44.5015 45.9705 44.5452L42.9778 44.9602L42.6938 45.0039Z" fill="#6F5E75"/>
<path d="M54.5337 44.3267C54.7522 44.8292 55.2765 45.0695 55.2765 45.0695C55.2765 45.0695 56.8056 44.8947 58.5094 44.6544C58.575 44.5889 58.6624 44.5233 58.7716 44.4578C59.1648 44.2394 59.8639 44.283 60.6284 44.3486C61.8299 44.1738 62.8129 43.9772 63.0313 43.868C63.4682 43.6059 63.2934 42.7976 62.9876 42.3389C62.3104 42.6884 61.6551 42.9724 61.3711 43.016C60.8032 43.0816 60.2789 42.7976 60.0604 42.6665C59.7109 42.8631 59.4269 42.9942 59.2522 43.016C58.7935 43.0816 58.3784 42.9068 58.1163 42.7758C57.6138 43.0597 57.1988 43.2782 56.9803 43.3C56.2376 43.3874 55.5604 42.885 55.5604 42.885C55.5604 42.885 55.626 42.8413 55.7134 42.7539C55.5823 42.7758 55.4512 42.7758 55.3638 42.7976C54.9051 42.8631 54.5119 43.2127 54.4464 43.6495C54.4464 43.6932 54.4464 43.7151 54.4464 43.7369C54.4245 43.9772 54.4682 44.1738 54.5337 44.3267Z" fill="#A52861"/>
<path d="M57.002 43.3C57.2205 43.2782 57.6355 43.0597 58.138 42.7757C58.4001 42.9068 58.8151 43.0815 59.2739 43.016C59.4268 42.9942 59.7327 42.8631 60.0822 42.6665C60.3006 42.7976 60.8249 43.0815 61.3928 43.016C61.6768 42.9723 62.3321 42.6883 63.0093 42.3388C63.0967 42.2951 63.1623 42.2515 63.2496 42.2078C63.7521 42.732 64.2326 43.3218 64.5821 43.8024C64.6695 43.9335 64.7569 44.0427 64.8225 44.1519C64.6695 44.1301 64.4948 44.1083 64.3419 44.0864C63.8831 44.0646 63.4244 44.0864 63.0967 44.2175C62.4413 44.4796 61.502 44.3922 60.6501 44.3267C59.8855 44.2612 59.1647 44.2175 58.7933 44.4359C58.6841 44.5015 58.5967 44.567 58.5312 44.6325C58.0724 45.0694 58.3564 45.5937 58.3564 45.5937C59.6889 45.834 61.2399 46.7078 62.4413 47.0791C62.5943 47.1228 62.7472 47.1665 62.9001 47.2102C62.9001 47.2102 64.7569 47.8 66.8977 48.1495C67.7715 48.3024 68.7108 48.3898 69.5846 48.4117C70.0433 48.4117 70.4802 48.3898 70.8734 48.3243C71.5943 48.2151 72.1622 47.8874 72.5991 47.4068C72.5991 47.4068 74.6744 45.9869 73.8443 43.6058C73.8225 43.5621 73.8224 43.5184 73.8006 43.4529C73.6695 43.1908 73.4074 42.8849 73.0142 42.5573C72.8613 42.3607 72.6647 42.2078 72.4681 42.0985C72.4462 42.0985 72.4463 42.0767 72.4244 42.0767C71.2885 41.2248 69.6938 40.2854 68.3613 39.6082C67.1817 38.9966 66.1986 38.5815 65.8928 38.5815C65.7181 38.5815 65.3904 38.7345 64.9535 38.9966C64.3855 38.7563 63.9487 38.5815 63.7739 38.5815C63.5554 38.5815 63.0967 38.8218 62.5069 39.1932C62.0045 38.9966 61.655 38.8655 61.5021 38.8655C60.7375 38.8655 56.6088 42.0549 55.7569 42.7102C55.6695 42.7976 55.604 42.8413 55.604 42.8413C55.604 42.8413 56.2593 43.3874 57.002 43.3Z" fill="#FAD4C8"/>
<path d="M14.6235 160.475C14.7546 160.344 14.9075 160.169 15.0385 159.973C15.6939 159.142 16.4803 157.875 17.092 156.914C17.0483 157.504 17.0701 158.29 17.2886 159.23C17.5288 160.497 18.6648 161.13 18.8177 160.409C18.774 160.016 19.0143 158.902 19.342 157.701C19.6697 156.499 20.0628 155.189 20.3031 154.38C20.456 153.878 20.5653 153.485 20.5653 152.742C19.6696 149.269 19.058 146.494 17.9658 145.795C18.075 143.502 18.0968 140.225 18.0531 136.555C17.9657 127.337 17.507 115.715 17.1356 111.696C17.3759 110.472 17.6162 109.293 17.8347 108.157C18.1405 106.562 18.4245 105.033 18.6648 103.548C20.041 95.5744 20.6089 89.5452 20.6089 85.0015C21.6575 84.3025 22.7279 83.669 23.842 83.1011C23.7983 83.0574 23.7764 82.9918 23.7764 82.9045C23.1429 70.3875 16.5677 69.0112 15.257 68.8583L15.2788 68.5962C12.8978 69.7758 10.8662 71.1302 9.88322 72.5938C6.12594 77.1156 5.86378 89.6326 6.36621 99.7467C6.69388 106.497 7.37106 112.155 7.56766 113.705C6.71572 121.002 8.33225 133.803 13.0507 146.691C12.1769 147.652 11.2594 149.181 10.4512 151.606L7.10896 158.88C7.04342 159.033 6.99973 159.208 6.99973 159.383L6.71574 165.019C6.6939 165.39 7.1308 165.63 7.43663 165.412C7.63323 165.281 7.87352 165.084 8.09197 164.8C8.13566 163.926 8.17934 163.031 8.24487 162.157C8.37594 160.3 8.7036 158.596 9.70845 156.98C9.99244 156.543 10.6915 156.936 10.4075 157.395C9.40262 159.033 9.14047 160.759 9.03125 162.638C8.92202 164.473 8.83466 166.307 8.87835 168.142C8.87835 168.339 8.76915 168.448 8.63809 168.514C8.791 168.645 9.00945 168.667 9.1842 168.536C9.55556 168.295 9.97058 167.858 10.2983 167.181C10.3856 165.521 10.2546 163.861 10.4949 162.179C10.7352 160.475 11.1939 158.968 12.0021 157.439C12.2424 156.98 12.9415 157.395 12.7012 157.854C11.8929 159.405 11.456 160.934 11.2376 162.659C11.0191 164.385 11.2157 166.111 11.0628 167.837C11.041 167.99 10.9536 168.099 10.8444 168.164C10.9536 168.164 11.0628 168.164 11.1502 168.099C11.5871 167.793 12.1113 167.269 12.4172 166.351C12.4172 166.351 12.9633 163.883 13.706 162.048C13.99 161.436 14.2958 160.824 14.6235 160.475ZM10.1235 159.055L10.0143 159.317C10.0579 159.23 10.1016 159.142 10.1235 159.055Z" fill="#D08D83"/>
<path d="M11.0409 167.924C11.1938 166.198 10.9972 164.473 11.2156 162.747C11.4341 161.021 11.871 159.47 12.6793 157.941C12.9196 157.482 12.2205 157.067 11.9802 157.526C11.1719 159.055 10.7132 160.54 10.4729 162.266C10.2326 163.926 10.3637 165.587 10.2763 167.269C10.2545 167.487 10.2545 167.727 10.2326 167.946C10.2108 168.295 10.5822 168.405 10.8225 168.274C10.9535 168.186 11.0409 168.077 11.0409 167.924Z" fill="#F2BBAA"/>
<path d="M8.85627 168.208C8.81258 166.373 8.87811 164.538 9.00918 162.703C9.14024 160.803 9.38055 159.077 10.3854 157.46C10.6694 157.023 9.97031 156.608 9.68633 157.045C8.68147 158.662 8.37566 160.344 8.22275 162.223C8.15721 163.096 8.11353 163.97 8.06984 164.866C8.02615 165.98 8.00429 167.116 8.04798 168.23C8.04798 168.557 8.37567 168.689 8.61596 168.601C8.74703 168.514 8.85627 168.405 8.85627 168.208Z" fill="#F2BBAA"/>
<path d="M15.3005 68.5088L15.3223 68.3778L15.3442 68.1375L15.3005 68.5088Z" fill="#4B3C4F"/>
<path d="M24.1696 83.3195C24.388 83.2977 24.5628 83.1229 24.5409 82.9263C24.5409 82.8826 24.5409 82.839 24.5409 82.7953C23.9293 71.305 18.3371 68.8147 16.0652 68.2686C15.7594 68.203 15.5191 68.1593 15.3444 68.1375L15.3225 68.3778L15.3007 68.6399L15.2788 68.902C16.5895 69.055 23.1647 70.4312 23.7982 82.9482C23.7982 83.0137 23.8201 83.0793 23.8638 83.1448C23.9075 83.2322 24.0385 83.3195 24.1696 83.3195Z" fill="#4B3C4F"/>
<path d="M43.4584 65.4505C43.3273 65.3195 43.2618 65.2539 43.24 65.2321C43.087 65.0792 42.8467 65.101 42.6938 65.2539C42.672 65.2758 42.672 65.2758 42.672 65.2976C42.5627 65.4505 42.5846 65.669 42.7157 65.8001C42.7812 65.8656 48.6137 71.4141 48.7448 77.7928C48.7448 77.8146 48.7448 77.8365 48.7448 77.8583C48.7448 78.0768 48.9195 78.2297 49.1162 78.2297C49.3346 78.2297 49.4876 78.0549 49.4876 77.8365C49.4876 77.8146 49.4876 77.7928 49.4876 77.7709C49.3783 71.72 44.5725 66.5865 43.4584 65.4505Z" fill="#4B3C4F"/>
<path d="M77.558 22.8534C77.7765 23.1592 78.1915 23.2466 78.5192 23.05C78.8468 22.8534 78.9342 22.4384 78.7158 22.1325C79.4585 22.2636 80.9003 22.4165 82.0362 21.6083C80.6381 21.9141 79.1308 21.3243 78.2789 21.2588C77.4269 21.1932 76.4876 22.1325 76.2036 22.3728C76.2036 22.3728 76.8808 22.2199 77.558 22.1544C77.4051 22.351 77.4051 22.635 77.558 22.8534Z" fill="#4B3C4F"/>
<path d="M70.1309 23.5743C70.3494 23.8801 70.7644 23.9675 71.0921 23.7709C71.3979 23.5743 71.4853 23.1811 71.3105 22.8753C71.5508 22.8753 71.7256 22.8753 71.7256 22.8753C71.4853 22.7005 70.6989 21.936 70.1528 22.1326C70.0217 22.1763 69.8906 22.2636 69.7159 22.351C69.1916 22.6787 68.4926 23.1593 67.728 23.1156C68.5363 23.6835 69.3882 23.3777 69.8906 23.1374C69.9343 23.1156 69.978 23.0937 70.0217 23.0719C69.9999 23.2248 70.0436 23.4214 70.1309 23.5743Z" fill="#4B3C4F"/>
<path d="M78.9996 30.8704C78.9996 30.8704 77.6671 30.7393 76.8151 30.5427C75.9632 30.3461 74.6744 29.516 73.9535 30.1714C73.1889 29.7782 72.7521 30.6738 72.7521 30.6738C72.7521 30.6738 72.752 30.6956 72.7302 30.7175C72.5773 31.0888 72.8176 31.5257 73.2326 31.5913H73.2108C73.2108 31.5913 72.7083 31.9626 73.036 32.3995C73.3637 32.8364 74.6962 33.0986 76.1817 32.7272C77.6889 32.334 78.9996 30.8704 78.9996 30.8704Z" fill="#A52861"/>
</svg>
