<svg width="187" height="234" viewBox="0 0 187 234" fill="none" xmlns="http://www.w3.org/2000/svg">
<path d="M125.802 45.7229L125.784 45.4988C125.681 45.585 125.595 45.6712 125.474 45.7745L125.802 45.7229Z" fill="#6969FF"/>
<path d="M122.476 40.898C122.321 41.122 122.235 41.4149 122.286 41.7251L122.82 45.1887C122.82 45.2231 122.838 45.2576 122.838 45.2921C123.062 45.1542 123.32 44.9991 123.596 44.8613L123.286 42.087L123.561 42.0525L124.096 44.6373C124.233 44.5683 124.388 44.5166 124.561 44.4649C124.578 44.4649 124.595 44.4477 124.595 44.4477L124.302 41.9146L124.578 41.8802L125.095 44.3271C125.285 44.2926 125.457 44.2926 125.612 44.3099L125.319 41.7768L125.595 41.7423L126.163 44.4822C126.439 44.6373 126.525 44.8785 126.301 45.1198L126.405 45.6367L126.784 45.5678L126.336 41.5872L126.611 41.5528L127.439 45.4644L127.8 45.3955L127.352 41.4494L127.628 41.4149L128.438 45.2921L128.834 45.2231L128.386 41.2426L128.662 41.2081L129.472 45.1198L129.834 45.0508L129.386 41.1047L129.661 41.0703L130.471 44.9474L130.868 44.8785L130.42 40.9152L130.695 40.8807L131.505 44.7751L131.867 44.7062L131.419 40.7773L131.695 40.7429L132.505 44.62L132.901 44.5511L132.453 40.5878L132.729 40.5533L133.539 44.4477L133.9 44.3788L133.452 40.4499L133.728 40.4155L134.538 44.2754L134.934 44.2065L134.486 40.2604L134.762 40.2259L135.572 44.1031L135.934 44.0342L135.486 40.1053L135.761 40.0708L136.571 43.9308L136.968 43.8618L136.52 39.9158L136.795 39.8813L137.605 43.7584L137.967 43.6895L137.519 39.7779L137.795 39.7434L138.605 43.5861C139.07 43.431 139.346 42.9141 139.26 42.3799L138.639 38.8818C138.536 38.3304 138.071 37.9686 137.571 38.0547L124.302 40.3465L122.993 40.5706C122.82 40.5361 122.614 40.6912 122.476 40.898Z" fill="#6969FF"/>
<path d="M111.947 50.0135L111.965 50.3237L111.982 50.3065C112.326 52.2192 115.273 52.1158 118.944 51.1336C119.495 50.9785 120.064 50.8234 120.649 50.6339C121.287 50.2375 121.545 49.9446 121.907 49.531C122.752 48.5833 124.389 46.7739 125.474 45.7745C125.578 45.6711 125.681 45.585 125.784 45.4988C126.008 45.292 126.215 45.1542 126.336 45.0852C126.577 44.8612 126.474 44.6027 126.198 44.4476C126.06 44.3615 125.853 44.3098 125.629 44.2926C125.474 44.2753 125.302 44.2753 125.112 44.3098C124.957 44.327 124.785 44.3787 124.613 44.4304C124.596 44.4304 124.578 44.4476 124.578 44.4476C124.423 44.4993 124.268 44.5683 124.113 44.62C123.941 44.6889 123.768 44.7751 123.613 44.844C123.32 44.9818 123.062 45.1369 122.855 45.2748C121.873 45.8951 121.477 46.481 121.477 46.481C121.477 46.481 120.408 46.3776 119.719 46.3087C119.891 44.7061 119.891 42.3109 118.926 40.088C119.822 39.64 120.46 39.4849 121.373 39.3643C121.735 40.0363 122.114 40.536 122.476 40.8807C122.614 40.6739 122.821 40.536 123.079 40.4843L124.389 40.2603C123.872 38.7267 122.907 36.8312 122.235 36.6244C121.804 36.4866 121.184 36.4866 120.477 36.5555C120.994 35.9696 121.546 35.4699 122.045 35.2803C123.389 34.7806 125.905 34.3154 126.405 32.6783C126.543 32.2303 126.146 31.7995 125.681 31.8684C124.406 32.058 120.408 32.9885 119.099 33.4882C119.977 32.9024 122.407 31.1619 123.269 29.6283C124.337 27.7328 123.475 26.6989 123.475 26.6989L116.927 32.0408L114.188 35.5216L114.101 35.2286C114.101 35.2286 114.532 30.4382 114.412 29.0424C114.291 27.6294 113.016 27.7328 113.016 27.7328L111.189 36.814L111.827 48.4971L111.913 49.9618C111.93 49.9791 111.947 49.9963 111.947 50.0135Z" fill="#FFD6CA"/>
<path d="M20.4463 193.485C19.1539 198.448 15.8454 202.963 12.5197 206.892C10.4863 209.287 4.92043 213.888 1.71532 213.457C1.30175 213.405 0.974399 213.233 0.733154 213.009C1.37073 213.819 2.42185 213.94 3.73147 214.112C4.78261 214.25 5.85099 214.146 6.85044 213.802C9.77984 212.802 12.0199 211.148 13.6742 209.063C16.931 204.996 19.757 200.688 20.8771 195.415C21.0149 194.778 21.1528 192.452 20.946 191.779C20.9115 191.693 20.8771 191.607 20.8426 191.521C20.8771 192.124 20.5842 192.968 20.4463 193.485Z" fill="#4B3C4F"/>
<path d="M19.8088 191.555C19.1023 192.744 14.1913 193.813 14.0707 191.607C14.0535 191.228 14.0535 190.745 14.0879 190.194C13.5882 190.487 13.1057 190.797 12.6577 191.142C10.7622 192.52 9.0907 194.433 7.41921 196.087C4.12794 199.327 1.42259 203.29 0.388679 207.857C0.0957391 209.149 -0.455695 211.906 0.716067 213.009C0.957311 213.233 1.28466 213.405 1.69823 213.457C4.92057 213.888 10.4692 209.287 12.5026 206.892C15.8456 202.963 19.1368 198.448 20.4292 193.485C20.5671 192.986 20.86 192.141 20.8428 191.521C20.8428 191.4 20.8256 191.297 20.7911 191.193C20.6705 190.78 20.5154 190.453 20.3603 190.194C20.2052 190.745 20.0156 191.211 19.8088 191.555ZM13.2953 199.706C13.2436 199.93 13.054 200.085 12.83 200.085C12.7955 200.085 12.761 200.085 12.7438 200.068C11.0723 199.74 9.43533 199.241 7.85001 198.603C7.60876 198.5 7.48814 198.224 7.59153 197.983C7.69492 197.742 7.97065 197.621 8.21189 197.724C9.74552 198.327 11.3308 198.81 12.9506 199.137C13.1919 199.189 13.347 199.448 13.2953 199.706ZM15.139 197.586C15.0873 197.81 14.8978 197.966 14.6738 197.966C14.6393 197.966 14.6049 197.966 14.5877 197.948C12.9162 197.621 11.2792 197.121 9.69384 196.484C9.4526 196.38 9.33197 196.105 9.43536 195.863C9.53876 195.622 9.8144 195.501 10.0556 195.605C11.5893 196.208 13.1746 196.69 14.7944 197.018C15.0184 197.087 15.1907 197.328 15.139 197.586ZM16.8967 195.467C16.845 195.691 16.6554 195.846 16.4314 195.846C16.3969 195.846 16.3625 195.846 16.3452 195.829C14.6738 195.501 13.0368 195.002 11.4514 194.364C11.2102 194.261 11.0896 193.985 11.193 193.744C11.2963 193.503 11.5721 193.382 11.8133 193.485C13.3469 194.088 14.9323 194.571 16.5521 194.898C16.7933 194.967 16.9484 195.208 16.8967 195.467Z" fill="#614D68"/>
<path d="M74.8128 195.863L74.7611 192.262C73.3998 191.952 72.1074 191.693 71.332 191.538C71.1252 191.504 70.9184 191.452 70.7116 191.418C70.6082 191.555 70.4187 191.607 70.2464 191.573C69.9879 191.59 69.2986 192.486 68.8334 193.416C68.7472 193.589 68.5749 193.675 68.4026 193.675C68.3337 193.675 68.2648 193.658 68.1958 193.623C67.9546 193.503 67.8684 193.227 67.989 192.986C68.2303 192.486 68.73 191.59 69.3159 191.056C68.9024 190.935 68.506 190.814 68.0924 190.677C67.9374 190.625 67.7822 190.573 67.6271 190.522C67.541 190.539 67.4721 190.556 67.3859 190.539C67.1274 190.556 66.4381 191.452 65.9729 192.383C65.8867 192.555 65.7144 192.641 65.5421 192.641C65.4732 192.641 65.4043 192.624 65.3354 192.589C65.0941 192.469 65.0079 192.193 65.1285 191.952C65.3698 191.469 65.835 190.608 66.4209 190.056C66.2658 190.005 66.1108 189.936 65.9557 189.867C64.0602 192.141 62.2509 194.192 60.6655 195.863C63.2158 196.174 65.8351 196.346 68.4198 196.329C70.6255 196.346 72.7795 196.191 74.8128 195.863Z" fill="#614D68"/>
<path d="M74.8128 195.863C72.7795 196.191 70.6255 196.346 68.4198 196.363C65.8523 196.38 63.2158 196.208 60.6655 195.898C59.9762 196.621 59.3559 197.276 58.77 197.862C63.9396 198.31 70.298 198.483 74.8472 197.983L74.8128 195.863Z" fill="#4B3C4F"/>
<path d="M14.6392 184.714C14.398 186.541 14.1568 188.626 14.0879 190.211C14.0706 190.745 14.0534 191.228 14.0706 191.624C14.1912 193.813 19.085 192.762 19.8088 191.573C20.0155 191.228 20.2051 190.745 20.3775 190.194C20.7393 189.057 21.015 187.592 21.2218 186.369C19.0851 187.265 16.0178 186.627 14.6392 184.714Z" fill="#FFD6CA"/>
<path d="M62.6642 164.312C62.8021 163.313 62.9572 162.313 63.095 161.314C59.1489 160.297 55.9094 157.212 54.8238 153.077C53.7554 148.993 53.5141 144.202 56.0644 140.084C57.598 137.603 62.13 134.915 68.0577 132.399C69.264 126.747 70.2634 121.267 70.8321 117.958L71.1595 116.666L75.4846 100.02C72.1761 104.311 67.0583 108.102 59.528 107.482C52.4113 106.896 45.2429 104.845 39.2117 102.071C38.1606 103.57 37.0233 104.862 35.8171 105.827C31.5436 109.291 24.3407 110.514 19.1884 109.136C17.7064 118.131 16.7588 130.072 17.9477 144.271L17.896 145.081C13.5881 157.454 14.2773 184.111 14.2773 184.111C14.3807 184.318 14.5014 184.525 14.6392 184.714C16.0178 186.627 19.085 187.265 21.2218 186.369C21.7732 186.127 22.2556 185.8 22.6347 185.352C23.1862 182.267 31.0266 154.197 33.1806 146.443C36.4719 138.55 39.6943 128.866 41.1245 124.455C41.4002 123.783 43.7954 118.406 48.896 117.597C48.9822 118.131 49.0855 118.682 49.1889 119.251L50.9466 140.98C48.8271 151.922 50.9121 174.393 51.5841 180.82L62.6642 164.312Z" fill="#6969FF"/>
<path d="M16.5347 194.916C14.9321 194.588 13.3296 194.123 11.796 193.503C11.5547 193.399 11.279 193.52 11.1756 193.761C11.0722 194.002 11.1928 194.278 11.4341 194.381C13.0194 195.019 14.6737 195.502 16.328 195.846C16.3624 195.846 16.3969 195.863 16.4141 195.863C16.6381 195.863 16.8276 195.708 16.8793 195.484C16.9483 195.209 16.7932 194.967 16.5347 194.916Z" fill="#4B3C4F"/>
<path d="M14.7598 197.035C13.14 196.708 11.5547 196.242 10.0211 195.622C9.77981 195.519 9.50409 195.639 9.4007 195.881C9.29731 196.122 9.41793 196.398 9.65918 196.501C11.2445 197.138 12.8987 197.621 14.553 197.966C14.5874 197.966 14.6219 197.983 14.6391 197.983C14.8632 197.983 15.0527 197.828 15.1044 197.604C15.1906 197.328 15.0183 197.087 14.7598 197.035Z" fill="#4B3C4F"/>
<path d="M12.9334 199.137C11.3136 198.81 9.72827 198.345 8.19464 197.724C7.9534 197.621 7.67767 197.742 7.57428 197.983C7.47089 198.224 7.59151 198.5 7.83276 198.603C9.41808 199.241 11.0723 199.723 12.7266 200.068C12.761 200.068 12.7955 200.085 12.8127 200.085C13.0367 200.085 13.2263 199.93 13.278 199.706C13.3469 199.448 13.1919 199.189 12.9334 199.137Z" fill="#4B3C4F"/>
<path d="M67.9546 190.194C68.0063 189.936 67.8512 189.677 67.5928 189.625C67.1792 189.522 66.7828 189.746 66.421 190.091C65.8523 190.625 65.3698 191.504 65.1286 191.986C65.008 192.227 65.1114 192.503 65.3354 192.624C65.4043 192.658 65.4732 192.675 65.5421 192.675C65.7144 192.675 65.8868 192.572 65.9729 192.417C66.4382 191.486 67.1275 190.59 67.386 190.573C67.4721 190.59 67.5583 190.59 67.6272 190.556C67.7823 190.487 67.9201 190.349 67.9546 190.194Z" fill="#4B3C4F"/>
<path d="M70.453 190.642C70.0567 190.556 69.6604 190.746 69.3158 191.056C68.7127 191.59 68.2302 192.486 67.9889 192.986C67.8683 193.227 67.9717 193.503 68.1957 193.623C68.2647 193.658 68.3335 193.675 68.4025 193.675C68.5748 193.675 68.7471 193.572 68.8333 193.416C69.2985 192.486 69.9878 191.59 70.2463 191.573C70.4186 191.607 70.6081 191.555 70.7115 191.418C70.7632 191.366 70.7977 191.297 70.8149 191.211C70.8666 190.97 70.7115 190.711 70.453 190.642Z" fill="#4B3C4F"/>
<path d="M123.251 226.157C106.743 226.157 93.3196 222.728 92.8026 218.437C92.7854 218.523 92.7854 218.609 92.7854 218.695C92.7854 223.09 106.416 228.983 123.251 228.983C140.069 228.983 153.717 222.986 153.717 218.592C153.717 218.523 153.717 218.454 153.7 218.385C153.286 222.71 139.828 226.157 123.251 226.157Z" fill="#9292FF"/>
<path d="M127.697 213.75C127.697 216.197 125.715 218.196 123.251 218.196C120.787 218.196 118.805 216.214 118.805 213.75V210.304C104.089 210.872 92.7854 214.181 92.7854 218.196C92.7854 218.282 92.7854 218.368 92.8026 218.454C93.3024 222.745 106.743 226.174 123.251 226.174C139.811 226.174 153.286 222.71 153.7 218.402C153.7 218.334 153.717 218.265 153.717 218.196C153.717 214.181 142.413 210.872 127.697 210.304V213.75Z" fill="#B8B8FF"/>
<path d="M118.823 210.304V213.75C118.823 216.197 120.804 218.196 123.269 218.196C125.733 218.196 127.714 216.214 127.714 213.75V210.304V186.524C125.354 185.886 122.304 185.042 118.84 184.094V210.304H118.823Z" fill="#9292FF"/>
<path d="M129.661 180.234C129.799 183.284 131.074 187.334 132.487 187.833C132.539 187.851 132.591 187.868 132.643 187.868C134.779 188.23 176.273 181.268 177.169 180.372C177.721 179.821 177.79 175.978 177.773 173.083C154.63 178.769 134.038 180.337 129.661 180.234Z" fill="#00A3C9"/>
<path d="M127.059 178.89C123.458 179.183 119.994 178.166 117.427 176.254C105.33 177.408 96.4558 175.357 90.2007 172.531C90.3213 173.686 90.4419 174.909 90.5281 176.167C99.4024 178.735 110.327 181.768 118.823 184.111C122.286 185.059 125.336 185.903 127.697 186.541C130.247 187.23 131.988 187.713 132.487 187.833C131.074 187.334 129.799 183.284 129.661 180.234C134.038 180.337 154.63 178.787 177.773 173.1C177.859 172.824 177.842 171.946 177.79 170.826C167.778 175.047 141.138 177.718 127.059 178.89Z" fill="#0090B2"/>
<path d="M89.1324 133.863C84.049 133.191 78.5175 131.882 76.0534 129.366C73.2274 130.331 70.522 131.33 68.0751 132.381C62.1301 134.897 57.5982 137.603 56.0818 140.067C53.5315 144.185 53.7728 148.976 54.8411 153.06C55.9267 157.195 59.1663 160.297 63.1124 161.296C63.5776 161.417 64.0428 161.503 64.5081 161.572L70.6426 152.439C70.6426 152.439 72.8656 148.2 78.2763 149.424C78.9656 149.561 82.1363 150.078 86.3753 150.75C86.4442 150.733 86.4958 150.716 86.5648 150.716C86.5475 150.716 87.1852 143.565 89.1324 133.863ZM61.234 156.73C58.5459 156.902 56.1507 153.68 55.875 149.527C55.5993 145.374 57.5465 141.859 60.2346 141.669C62.9228 141.497 65.318 144.719 65.5937 148.872C65.8694 153.042 63.905 156.558 61.234 156.73Z" fill="#00A3C9"/>
<path d="M86.5475 150.716C86.4785 150.733 86.4268 150.751 86.3579 150.751C86.4441 150.768 86.513 150.768 86.5991 150.785C86.5647 150.733 86.5475 150.716 86.5475 150.716Z" fill="#829BF1"/>
<path d="M174.188 74.4137C167.795 72.3287 158.077 71.2431 148.703 71.2775C147.376 71.2775 146.118 71.3465 144.929 71.4671C144.843 71.6394 144.756 71.8289 144.653 72.0013C143.792 73.5177 142.603 75.4304 139.759 76.8951C138.639 77.481 137.261 77.9807 136.606 78.2047C136.485 78.2564 136.365 78.2909 136.244 78.3253H136.227C136.244 78.377 136.244 78.446 136.244 78.5149C136.244 78.6872 136.21 78.8595 136.158 79.0318C149.495 76.4815 167.21 76.1714 172.069 84.546C176.394 91.9729 170.466 123.266 166.537 141.359C166.469 142.824 166.331 144.133 166.124 145.185C166.124 145.185 166.124 145.185 166.107 145.185C165.796 147.235 164.676 149.406 162.505 151.026C160.558 152.491 158.439 151.853 156.095 151.991C149.34 152.353 141.172 150.406 132.505 149.51C130.42 150.406 128.059 151.13 125.612 151.354C120.46 153.008 116.479 154.99 114.808 157.281C113.894 158.539 113.274 159.866 112.912 161.227C111.982 164.657 112.602 168.241 113.688 171.308C114.394 173.272 115.704 174.961 117.427 176.236C119.994 178.166 123.458 179.183 127.059 178.873C141.138 177.701 167.795 175.03 177.79 170.791C178.927 170.309 179.858 169.809 180.512 169.292C187.319 163.933 184.441 152.939 179.048 147.924C182.753 132.864 185.975 108.826 186.699 93.8339C187.164 84.2014 182.718 77.188 174.188 74.4137ZM114.635 167C114.36 162.847 116.307 159.332 118.995 159.142C121.683 158.97 124.078 162.192 124.354 166.345C124.63 170.498 122.683 174.013 119.994 174.203C117.306 174.393 114.911 171.17 114.635 167Z" fill="#00A3C9"/>
<path d="M132.953 81.4443C133.056 82.3748 133.142 83.4259 133.16 84.5288C138.829 86.6138 142.585 89.3881 142.585 89.3881C145.377 90.3359 147.876 91.3009 149.582 92.0591C150.357 92.2486 151.132 92.5588 151.891 93.0068C157.026 96.0741 163.815 108.55 164.384 120.595C164.384 120.612 164.366 120.629 164.366 120.647C166.124 127.505 166.813 135.707 166.538 141.376C170.466 123.283 176.394 91.9901 172.069 84.5632C167.21 76.2058 149.513 76.4988 136.158 79.0491C135.813 80.0313 134.452 81.0135 132.953 81.4443Z" fill="#0090B2"/>
<path d="M46.3458 203.049C42.1757 202.48 42.1068 199.258 42.1068 199.258L42.9684 198.017C42.5204 197.862 42.1413 197.828 41.8828 197.983C40.4009 198.879 34.0941 197.983 29.9929 196.001C25.8917 194.02 23.2553 196.587 23.2553 196.587C22.4281 200.826 42.5721 212.337 43.7956 211.441C45.0018 210.545 48.362 202.205 48.362 202.205C48.362 202.205 48.1724 202.015 47.8794 201.722C47.104 202.549 46.5698 203.032 46.3458 203.049Z" fill="#A31134"/>
<path d="M42.9683 198.017L42.1067 199.258C42.1067 199.258 42.1756 202.463 46.3457 203.049C46.5525 203.032 47.104 202.566 47.8622 201.739C48.5687 200.981 49.4647 199.93 50.4641 198.655C48.4652 197.449 46.5353 195.949 45.174 194.829L42.9683 198.017Z" fill="#F8D0C4"/>
<path d="M77.7593 222.745V221.228C77.2941 221.349 76.9666 221.539 76.846 221.814C76.1395 223.4 70.4358 226.226 65.9383 226.932C61.4408 227.639 60.717 231.24 60.717 231.24C62.4402 235.203 85.5653 233.256 86.0478 231.826C86.5475 230.413 84.5659 221.625 84.5659 221.625C84.5659 221.625 84.3074 221.573 83.8938 221.504C83.7387 222.624 83.5492 223.314 83.3941 223.451C79.6376 225.364 77.7593 222.745 77.7593 222.745Z" fill="#A31134"/>
<path d="M77.7766 216.421V221.246V222.762C77.7766 222.762 79.6549 225.364 83.4114 223.469C83.5838 223.331 83.7561 222.642 83.9111 221.521C84.1007 220.264 84.2558 218.454 84.3764 216.317C82.2397 216.903 79.7238 217.076 77.7766 216.421Z" fill="#F8D0C4"/>
<path d="M90.2007 172.514C96.473 175.34 105.347 177.391 117.427 176.236C115.704 174.944 114.394 173.272 113.688 171.308C112.585 168.241 111.982 164.657 112.912 161.227C108.759 161.727 105.037 161.693 102.401 160.745C91.8722 157.006 87.1851 151.509 86.5993 150.785C86.5131 150.768 86.4442 150.768 86.358 150.751C82.119 150.079 78.9484 149.562 78.2591 149.424C72.8311 148.2 70.6254 152.439 70.6254 152.439L64.4909 161.572L62.6643 164.312L51.5842 180.837L43.313 193.175C43.313 193.175 44.054 193.864 45.1913 194.812C46.5526 195.932 48.4825 197.431 50.4814 198.638C52.1184 199.62 53.7899 200.413 55.2202 200.654C55.6337 200.723 56.9433 199.689 58.7527 197.879C59.3386 197.294 59.9761 196.639 60.6482 195.915C62.2335 194.226 64.0429 192.176 65.9384 189.918C68.7644 186.541 71.7971 182.664 74.5887 178.769L74.761 192.279L74.8127 195.881L74.8471 198L75.0367 214.163C75.5881 215.301 76.5703 216.025 77.7766 216.421C79.7237 217.076 82.2396 216.903 84.3764 216.317C84.6348 216.249 84.8761 216.18 85.1173 216.093C85.2035 216.059 88.3741 215.025 88.4603 214.991C89.9077 214.353 91.6137 191.693 90.5281 176.15C90.4247 174.892 90.3213 173.669 90.2007 172.514Z" fill="#4B3D51"/>
<path d="M61.2223 156.728C63.9097 156.55 65.8649 153.033 65.5893 148.874C65.3138 144.715 62.9118 141.488 60.2245 141.666C57.5371 141.844 55.582 145.36 55.8576 149.519C56.1331 153.678 58.535 156.906 61.2223 156.728Z" fill="#0090B2"/>
<path d="M148.375 124.3C148.375 124.369 148.375 124.438 148.358 124.507C148.341 125.282 148.323 126.057 148.341 126.85C148.41 130.917 149.461 134.759 150.116 138.688C151.804 138.326 153.303 138.085 154.647 137.93C152.942 134.656 151.58 130.9 150.529 127.367C150.15 127.333 149.926 127.315 149.926 127.315C149.926 127.315 149.306 126.075 148.375 124.3Z" fill="#5888C5"/>
<path d="M91.8724 103.156C91.4071 103.673 90.9591 104.139 90.5627 104.604C90.58 105.19 90.6317 105.758 90.7351 106.327C91.2003 108.912 92.5961 111.29 94.6467 113.289C96.301 108.567 98.2654 103.897 100.592 99.6583C99.127 99.3654 97.9724 98.8829 97.0763 98.3142C95.2498 99.7789 93.5266 101.33 91.8724 103.156Z" fill="#A31134"/>
<path d="M134.142 111.858C135.227 120.681 138.381 132.433 140.931 140.997C144.532 139.981 147.565 139.222 150.133 138.688C149.478 134.759 148.427 130.917 148.358 126.85C148.341 126.075 148.358 125.299 148.375 124.507C148.375 124.438 148.375 124.369 148.392 124.3C145.946 119.647 141.517 111.204 141.517 111.204C138.605 107.206 138.777 100.727 140.776 96.3843C142.413 92.8345 146.066 91.1803 149.599 92.0419C147.91 91.3009 145.394 90.3359 142.603 89.3709C142.585 89.3709 132.212 96.2292 134.142 111.858Z" fill="#FF3956"/>
<path d="M164.349 120.629C161.919 127.746 152.959 127.539 150.547 127.35C151.598 130.882 152.976 134.639 154.665 137.913C153.321 138.068 151.822 138.326 150.133 138.671C147.565 139.205 144.533 139.981 140.931 140.98C138.157 141.756 135.055 142.686 131.54 143.754C131.884 144.65 132.229 145.736 132.401 146.684L139.725 145.288C139.639 145.357 136.64 147.735 132.505 149.493C141.19 150.389 149.34 152.319 156.095 151.974C158.439 151.853 160.558 152.474 162.505 151.009C164.659 149.372 165.797 147.218 166.107 145.167C166.107 145.167 166.107 145.167 166.124 145.167C166.331 144.116 166.451 142.807 166.538 141.342C166.813 135.69 166.124 127.488 164.349 120.629Z" fill="#F8D0C4"/>
<path d="M108.174 89.9913C108.535 89.9913 108.914 90.0085 109.311 90.0085C109.259 89.7156 109.139 89.4571 108.949 89.2848C108.742 89.1124 108.466 89.0435 108.191 89.0435C107.898 89.3365 107.605 89.6466 107.329 89.9568C107.588 89.9913 107.881 89.9913 108.174 89.9913Z" fill="white"/>
<path d="M108.501 92.2314L107.26 92.2142L106.588 92.197C106.588 92.2142 106.588 92.2314 106.588 92.2314C107.071 92.4899 107.381 92.7656 107.588 93.0413C107.708 92.9724 107.812 92.8862 107.915 92.8001C108.122 92.645 108.311 92.4382 108.501 92.2314Z" fill="white"/>
<path d="M94.6294 113.306C93.4576 116.683 92.4237 120.095 91.5449 123.404C98.5238 126.471 101.763 130.641 101.763 130.641C103.59 130.848 105.709 131.589 107.501 133.622C107.501 133.622 109.793 135.621 110.948 136.931C110.931 136.172 110.982 135.69 110.982 135.69C110.982 134.777 114.877 134.053 119.667 134.053C124.458 134.053 128.352 134.794 128.352 135.69C128.352 135.69 128.283 138.55 127.146 141.308C128.162 141.445 130.747 141.859 131.385 143.375C131.436 143.496 131.488 143.634 131.54 143.772C135.038 142.703 138.157 141.773 140.931 140.997C138.381 132.433 135.227 120.681 134.142 111.858C132.212 96.2292 142.585 89.371 142.585 89.371C142.585 89.371 138.829 86.5966 133.16 84.5116C133.177 85.5627 133.142 86.6311 133.022 87.665C132.832 89.2159 131.505 90.5599 129.593 91.1286C127.163 91.8523 125.13 91.7834 123.579 91.1631C122.304 90.6461 120.701 89.1297 121.08 87.9579C121.287 87.3376 121.408 86.5794 121.476 85.8384C119.753 85.3904 118.116 84.5633 116.686 83.5121C116.186 83.6672 115.669 83.8395 115.152 83.9946L109.776 89.6467C109.793 89.7845 109.776 89.9224 109.759 90.043C112.998 90.1636 116.565 90.5772 115.635 91.8006C115.359 92.1625 114.911 92.352 114.463 92.352L108.535 92.2487C108.329 92.4554 108.122 92.645 107.898 92.8173C107.794 92.9035 107.674 92.9896 107.57 93.0586C108.156 93.8685 107.691 94.6783 107.226 95.2125C107.605 95.6778 107.898 96.2292 107.812 96.7806C107.605 98.1764 106.278 97.6077 106.278 97.6077C106.278 97.6077 107.191 98.6589 106.364 99.71C105.709 100.554 104.176 100.124 103.555 99.8996C103.486 99.934 103.4 99.9685 103.331 100.003C102.298 99.9513 101.367 99.8479 100.54 99.6756C98.248 103.915 96.2836 108.567 94.6294 113.306ZM122.097 124.731C122.217 125.265 122.269 125.851 122.166 126.419C122.08 126.988 121.873 127.505 121.632 127.953C121.149 128.866 120.546 129.573 120.132 130.331C120.029 130.52 119.926 130.727 119.839 130.917C119.753 131.124 119.684 131.33 119.633 131.537C119.529 131.968 119.512 132.416 119.65 132.881C119.495 132.692 119.374 132.485 119.288 132.244C119.202 132.002 119.15 131.761 119.133 131.503C119.098 131.003 119.167 130.486 119.305 130.004C119.374 129.762 119.46 129.521 119.547 129.297C119.633 129.073 119.736 128.849 119.822 128.625C120.012 128.194 120.201 127.781 120.339 127.384C120.477 126.988 120.58 126.609 120.598 126.247C120.615 125.885 120.563 125.523 120.443 125.161C120.322 124.799 120.167 124.42 119.96 124.041C119.771 123.662 119.529 123.266 119.305 122.87C119.064 122.456 118.84 122.042 118.616 121.612C118.392 121.181 118.185 120.75 117.996 120.285C117.617 119.389 117.324 118.424 117.169 117.442C117.031 116.442 117.031 115.425 117.255 114.46C117.461 113.495 117.892 112.565 118.53 111.858C118.22 112.754 118.099 113.668 118.116 114.547C118.134 115.443 118.289 116.304 118.53 117.131C119.03 118.803 119.908 120.371 120.839 121.956C121.08 122.353 121.321 122.783 121.545 123.231C121.787 123.697 121.976 124.196 122.097 124.731Z" fill="white"/>
<path d="M109.483 141.152L109.259 140.997C109.328 141.049 109.397 141.101 109.483 141.152Z" fill="white"/>
<path d="M126.37 143.978C126.301 143.91 126.267 143.858 126.267 143.858C126.267 143.858 126.026 143.875 125.629 143.841C125.56 143.927 125.491 143.996 125.422 144.065C125.767 144.03 126.077 143.996 126.37 143.978Z" fill="white"/>
<path d="M123.803 151.405L121.046 151.509C121.011 151.647 120.891 151.75 120.753 151.767C120.546 151.784 120.322 151.802 120.081 151.802C119.478 151.802 118.823 151.733 118.168 151.629H118.151C118.013 151.629 117.892 151.595 117.754 151.56C115.618 151.164 113.412 150.389 112.516 149.958L112.413 149.906L112.361 149.803C112.344 149.768 112.154 149.406 112.378 148.993C112.516 148.752 112.757 148.562 113.102 148.424C112.085 148.011 111.206 147.614 110.775 147.408L110.672 147.356L110.62 147.252C110.603 147.218 110.414 146.856 110.638 146.443C110.827 146.098 111.224 145.874 111.844 145.753C111.844 145.753 111.844 145.753 111.827 145.753H111.809C111.792 145.753 111.792 145.736 111.775 145.736C111.758 145.736 111.758 145.719 111.74 145.719C111.723 145.719 111.723 145.702 111.723 145.702C111.706 145.702 111.706 145.684 111.689 145.684L111.672 145.667C111.672 145.65 111.654 145.65 111.654 145.633C111.654 145.633 111.637 145.615 111.637 145.598C111.637 145.581 111.62 145.581 111.62 145.564C111.62 145.547 111.62 145.547 111.603 145.529C111.603 145.512 111.603 145.512 111.585 145.495C111.585 145.478 111.585 145.478 111.585 145.46C111.585 145.443 111.585 145.443 111.585 145.426C111.585 145.426 111.585 145.426 111.585 145.409C111.585 145.185 111.637 144.978 111.723 144.806C110.827 144.513 109.828 144.134 108.897 143.686C108.777 143.651 108.656 143.599 108.553 143.53L108.535 143.513C107.691 143.1 106.933 142.617 106.364 142.117C106.278 142.048 106.244 141.945 106.244 141.859L102.694 139.274C99.4198 137.396 98.2997 135.759 98.0412 134.518C96.1113 134.467 92.7166 134.294 89.098 133.812C87.1508 143.513 86.5132 150.664 86.5132 150.664C86.5132 150.664 86.5304 150.699 86.5821 150.751C87.1507 151.457 91.8551 156.971 102.384 160.711C105.037 161.658 108.759 161.693 112.895 161.193C113.257 159.849 113.877 158.522 114.791 157.247C116.462 154.955 120.443 152.973 125.595 151.319C125.026 151.405 124.406 151.423 123.803 151.405Z" fill="white"/>
<path d="M140.759 96.3843C138.76 100.727 138.587 107.206 141.5 111.204C141.5 111.204 145.928 119.664 148.375 124.3C149.306 126.057 149.943 127.281 149.943 127.281C149.943 127.281 150.167 127.315 150.546 127.333C152.959 127.522 161.919 127.729 164.349 120.612C164.349 120.595 164.366 120.578 164.366 120.56C163.797 108.515 157.008 96.0396 151.873 92.9724C151.132 92.5243 150.357 92.2142 149.564 92.0246C146.049 91.1803 142.413 92.8345 140.759 96.3843Z" fill="#A31134"/>
<path d="M119.977 174.22C122.666 174.048 124.613 170.533 124.337 166.363C124.061 162.192 121.666 158.97 118.978 159.16C116.29 159.332 114.343 162.847 114.618 167.017C114.894 171.187 117.306 174.393 119.977 174.22Z" fill="#0090B2"/>
<path d="M121.08 87.9579C120.701 89.1297 122.303 90.6461 123.579 91.163C125.13 91.8006 127.163 91.8523 129.593 91.1286C131.505 90.5599 132.832 89.2331 133.022 87.665C133.142 86.6311 133.194 85.5627 133.16 84.5115C133.142 83.4259 133.056 82.3748 132.953 81.4271C131.953 81.72 130.902 81.7717 130.023 81.4615C129.817 84.546 126.922 86.2175 124.061 86.183C123.182 86.1658 122.321 86.0452 121.476 85.8212C121.407 86.5794 121.287 87.3376 121.08 87.9579Z" fill="#EEBBB0"/>
<path d="M119.098 72.7423C119.271 72.5872 119.477 72.4493 119.667 72.346C121.201 71.4844 122.166 70.416 123.199 69.0202C123.268 68.9341 123.337 68.8307 123.441 68.779C123.958 68.5205 123.906 69.2959 123.803 69.5544C123.751 69.6578 123.716 69.7612 123.665 69.8129C122.786 71.1914 121.89 72.57 120.994 73.9485C120.977 73.983 120.959 74.0002 120.942 74.0347C123.527 75.8268 128.007 78.7734 129.972 77.6878C131.867 76.6367 133.504 74.1898 133.883 73.5866C134.211 72.4321 134.745 71.4154 135.124 70.7951C132.16 70.3126 128.3 68.7617 123.51 65.0914C123.303 65.3326 123.096 65.5911 122.889 65.8496C123.492 66.108 124.027 66.7629 124.164 67.2626C124.251 67.6244 123.699 67.7623 123.613 67.4177C123.527 67.073 122.993 66.4355 122.527 66.3148C121.786 67.2798 121.097 68.3309 120.442 69.4338C120.511 69.4682 120.58 69.5199 120.597 69.6061C120.666 69.7956 120.822 69.9507 121.011 70.0024C121.373 70.0886 121.218 70.64 120.856 70.5538C120.477 70.4505 120.167 70.1575 120.046 69.7784C119.581 70.0024 118.512 70.5883 117.599 71.6394C117.737 71.7084 118.082 72.0013 119.098 72.7423ZM126.439 69.1236C128.059 69.227 129.661 70.9502 129.144 72.6217C129.041 72.9663 128.49 72.8284 128.593 72.4666C128.989 71.1742 127.714 69.7784 126.439 69.6923C126.077 69.6578 126.077 69.1064 126.439 69.1236ZM124.164 72.5872C124.526 73.5866 126.129 74.8101 127.249 74.6033C127.611 74.5344 127.766 75.0858 127.404 75.1547C125.939 75.4304 124.113 74.1036 123.63 72.7423C123.492 72.3976 124.044 72.2426 124.164 72.5872Z" fill="#FAD2C6"/>
<path d="M134.142 77.4638C134.073 77.481 130.247 78.1014 130.023 81.4615C130.023 81.4615 130.023 81.4616 130.023 81.4788C130.902 81.8062 131.953 81.7373 132.953 81.4443C134.452 81.0135 135.813 80.0313 136.158 79.0319C136.227 78.8596 136.261 78.6872 136.244 78.5149C136.244 78.446 136.244 78.3943 136.227 78.3254C136.106 77.5672 135.193 77.3949 134.142 77.4638ZM134.435 79.4799C134.021 79.118 133.108 79.2387 132.608 79.342C132.815 79.5316 132.953 79.7901 133.022 80.083C133.09 80.4449 132.539 80.6 132.47 80.2381C132.418 79.9452 132.229 79.6867 131.953 79.5661C131.643 79.7039 131.367 79.8762 131.092 80.083C130.919 80.2209 130.747 80.083 130.695 79.9107C130.73 79.8073 130.764 79.7039 130.799 79.6005C130.799 79.6005 130.799 79.6005 130.816 79.5833C131.798 78.8423 133.78 78.1358 134.865 79.0663C135.107 79.3248 134.71 79.7211 134.435 79.4799Z" fill="#FAD2C6"/>
<path d="M130.799 79.6005C130.781 79.6005 130.781 79.6177 130.799 79.6005C130.764 79.7039 130.73 79.8245 130.695 79.9279C130.747 80.1002 130.919 80.2381 131.092 80.1002C131.367 79.8934 131.643 79.7211 131.953 79.5833C132.229 79.7039 132.419 79.9624 132.47 80.2553C132.539 80.6172 133.091 80.4621 133.022 80.1002C132.97 79.8073 132.815 79.566 132.608 79.3593C133.125 79.2386 134.021 79.1352 134.435 79.4971C134.71 79.7384 135.107 79.342 134.831 79.1008C133.763 78.153 131.764 78.8768 130.799 79.6005Z" fill="#EBB6A5"/>
<path d="M126.439 69.6922C127.714 69.7784 128.989 71.1742 128.593 72.4665C128.49 72.8112 129.024 72.9662 129.144 72.6216C129.661 70.9674 128.076 69.227 126.439 69.1236C126.077 69.1063 126.077 69.6577 126.439 69.6922Z" fill="#4B3D51"/>
<path d="M123.63 67.4004C123.716 67.7622 124.268 67.6072 124.182 67.2453C124.061 66.7456 123.51 66.0908 122.907 65.8323C122.562 65.6772 122.217 65.66 121.907 65.8495C121.597 66.0391 121.89 66.5388 122.2 66.332C122.303 66.2631 122.424 66.2631 122.562 66.2975C123.01 66.4182 123.544 67.0557 123.63 67.4004Z" fill="#4B3D51"/>
<path d="M120.891 70.5366C121.252 70.6227 121.39 70.0885 121.046 69.9852C120.839 69.9335 120.684 69.7956 120.632 69.5888C120.598 69.5027 120.546 69.4337 120.477 69.4165C120.287 69.3304 120.012 69.4854 120.081 69.7439V69.7611C120.201 70.1402 120.494 70.4332 120.891 70.5366Z" fill="#D39989"/>
<path d="M123.63 72.7423C124.13 74.0863 125.939 75.4304 127.404 75.1547C127.766 75.0858 127.611 74.5344 127.249 74.6033C126.129 74.8101 124.544 73.6038 124.165 72.5872C124.044 72.2425 123.493 72.3976 123.63 72.7423Z" fill="#D39989"/>
<path d="M121.218 76.292C121.597 75.9819 122.131 75.9819 122.493 76.292L117.53 81.496L124.63 79.9624C124.699 80.4449 124.423 80.8929 123.975 81.0652C122.648 81.5305 119.805 82.4955 116.703 83.4949C118.134 84.5633 119.771 85.3904 121.494 85.8212C122.338 86.0452 123.2 86.1658 124.078 86.1831C126.939 86.2348 129.851 84.5461 130.041 81.4616C130.041 81.4616 130.041 81.4616 130.041 81.4443C130.247 78.0841 134.09 77.4466 134.142 77.4466C135.176 77.3776 136.106 77.55 136.244 78.3254C136.244 78.3254 136.244 78.3254 136.261 78.3254C136.382 78.2909 136.503 78.2565 136.623 78.2048C137.278 77.9808 138.657 77.481 139.777 76.8951C142.62 75.4132 143.809 73.5177 144.67 72.0013C144.774 71.829 144.86 71.6567 144.946 71.4671C145.567 70.1231 145.653 68.6584 144.739 67.1075C143.671 65.2809 142.43 64.4538 141.603 64.1092C140.242 59.3015 137.088 53.5805 130.023 57.7851C128.283 58.0608 128.679 56.0447 126.146 54.8385C123.355 53.5633 118.082 56.9235 120.684 62.2137C120.994 62.834 121.442 63.3854 121.976 63.8335C122.51 64.2815 123.027 64.695 123.544 65.0741C128.335 68.7445 132.195 70.2781 135.158 70.7779C134.779 71.3982 134.245 72.4149 133.918 73.5694C133.521 74.1898 131.902 76.6194 130.006 77.6706C128.042 78.7562 123.562 75.8268 120.977 74.0174C120.908 74.1208 120.822 74.2242 120.718 74.2931C120.219 74.6206 119.46 74.0174 119.116 73.7245C118.978 73.6039 118.857 73.4488 118.84 73.2765C118.823 73.1042 118.909 72.9491 119.012 72.8112C119.047 72.7768 119.081 72.7423 119.116 72.7078C118.099 71.9669 117.754 71.6911 117.651 71.5878C117.617 71.5533 117.599 71.5533 117.599 71.5533C117.496 71.4154 115.842 72.9491 115.687 73.1042C115.221 73.6039 114.808 74.1725 114.48 74.7929C113.619 76.4471 112.964 78.67 113.826 80.4621C114.05 80.9274 114.343 81.3582 114.704 81.72L114.722 81.7373C117.427 79.4282 120.046 77.257 121.218 76.292Z" fill="#4B3D51"/>
<path d="M123.682 69.8129C123.717 69.7439 123.768 69.6578 123.82 69.5544C123.923 69.2959 123.975 68.5205 123.458 68.779C123.355 68.8306 123.286 68.934 123.217 69.0202C122.166 70.416 121.201 71.4843 119.684 72.3459C119.495 72.4493 119.288 72.5872 119.116 72.7423C119.081 72.7767 119.047 72.8112 119.012 72.8456C118.909 72.9663 118.823 73.1386 118.84 73.3109C118.857 73.5005 118.978 73.6555 119.116 73.7589C119.478 74.0519 120.236 74.655 120.718 74.3276C120.822 74.2587 120.891 74.1553 120.977 74.0519C120.994 74.0174 121.011 74.0002 121.028 73.9657C121.907 72.5699 122.786 71.1914 123.682 69.8129Z" fill="#EEBBB0"/>
<path d="M119.667 134.036C114.877 134.036 110.982 134.777 110.982 135.673C110.982 135.673 110.931 136.155 110.948 136.913C111.017 136.982 111.068 137.051 111.12 137.12L111.137 137.103C111.293 137 111.499 137.034 111.603 137.189C111.827 137.517 112.843 138.016 113.843 138.482C115.618 139.326 117.444 140.205 117.72 141.325C117.806 141.687 117.737 142.048 117.496 142.376C117.496 142.376 117.496 142.376 117.479 142.393C117.462 142.41 117.444 142.428 117.427 142.445L117.41 142.462C117.393 142.479 117.375 142.479 117.341 142.497C117.341 142.497 117.324 142.497 117.324 142.514C117.289 142.531 117.255 142.531 117.237 142.531C117.203 142.531 117.169 142.531 117.134 142.514C117.134 142.514 117.134 142.514 117.117 142.514C117.548 142.979 117.737 143.41 117.685 143.789C117.634 144.237 117.272 144.426 117.22 144.444L117.151 144.478C118.134 144.651 119.099 144.806 119.426 144.685C119.598 144.616 119.788 144.702 119.857 144.892V144.909C121.477 144.478 124.837 144.168 124.837 144.168C125.043 144.116 125.233 144.082 125.423 144.065C125.491 143.996 125.56 143.91 125.629 143.841C124.63 143.754 122.648 143.393 121.253 141.824C120.994 141.514 121.218 141.049 121.614 141.066L126.732 141.239C126.749 141.256 126.905 141.273 127.129 141.308C128.283 138.55 128.335 135.69 128.335 135.69C128.352 134.777 124.458 134.036 119.667 134.036ZM119.719 137.878C115.308 137.878 111.741 137.137 111.741 136.241C111.741 135.328 115.308 134.604 119.719 134.604C124.13 134.604 127.697 135.345 127.697 136.241C127.697 137.155 124.113 137.878 119.719 137.878Z" fill="#B8B8FF"/>
<path d="M114.549 143.944C114.584 143.996 114.618 144.047 114.635 144.099C115.17 144.151 115.756 144.254 116.324 144.34C115.842 144.254 115.221 144.116 114.549 143.944Z" fill="#B8B8FF"/>
<path d="M127.697 136.241C127.697 135.328 124.13 134.604 119.719 134.604C115.308 134.604 111.74 135.345 111.74 136.241C111.74 137.155 115.308 137.878 119.719 137.878C124.113 137.878 127.697 137.155 127.697 136.241Z" fill="#664040"/>
<path d="M118.151 151.629C118.03 151.612 117.892 151.578 117.754 151.56C117.892 151.612 118.013 151.629 118.151 151.629Z" fill="#FAD2C6"/>
<path d="M139.742 145.305L132.418 146.701C132.229 145.736 131.902 144.668 131.557 143.772C131.505 143.634 131.454 143.513 131.402 143.375C130.764 141.859 128.162 141.445 127.163 141.308C126.939 141.273 126.784 141.256 126.767 141.239L121.649 141.066C121.252 141.049 121.028 141.532 121.287 141.825C122.683 143.393 124.664 143.754 125.664 143.841C126.06 143.875 126.301 143.858 126.301 143.858C126.301 143.858 126.336 143.892 126.405 143.978C126.112 143.996 125.802 144.03 125.474 144.082C125.285 144.116 125.095 144.151 124.888 144.185C124.888 144.185 121.528 144.495 119.908 144.926C119.96 145.099 119.874 145.271 119.701 145.34C119.185 145.529 118.254 145.374 116.772 145.116C116.169 145.012 115.48 144.892 114.842 144.806V144.823C114.79 145.271 114.429 145.46 114.377 145.478L114.273 145.529L114.17 145.512C113.774 145.443 113.153 145.288 112.447 145.064C112.412 145.099 112.378 145.167 112.361 145.236C112.86 145.426 113.429 145.684 113.98 145.943C114.618 146.236 115.256 146.529 115.79 146.701C116.548 146.942 117.323 147.201 118.116 147.339C119.564 147.614 119.564 147.614 121.046 147.528C121.218 147.511 121.39 147.666 121.407 147.856C121.425 148.045 121.27 148.2 121.08 148.217C120.546 148.252 120.201 148.269 119.908 148.269C119.34 148.269 118.978 148.2 117.996 148.028C117.168 147.873 116.376 147.614 115.6 147.373C115.032 147.184 114.36 146.873 113.722 146.58C113.498 146.477 113.291 146.374 113.067 146.288C113.016 146.339 112.929 146.391 112.843 146.391C111.602 146.46 111.344 146.753 111.292 146.856C111.275 146.891 111.275 146.908 111.275 146.925C111.947 147.235 113.153 147.752 114.377 148.235C114.429 148.235 114.48 148.235 114.532 148.217C114.67 148.217 114.808 148.286 114.859 148.424C116.152 148.924 117.375 149.355 117.944 149.475L118.288 149.544C119.288 149.734 119.408 149.751 120.597 149.596C120.787 149.579 120.959 149.699 120.977 149.889C120.994 150.079 120.873 150.251 120.684 150.268C120.132 150.337 119.77 150.371 119.477 150.371C119.081 150.371 118.771 150.32 118.185 150.199L117.84 150.13C117.151 150.01 115.721 149.475 114.291 148.924C113.308 149.027 113.084 149.286 113.033 149.355C113.016 149.389 113.015 149.406 113.015 149.424C114.411 150.061 118.392 151.354 120.753 151.112C120.942 151.095 121.097 151.233 121.114 151.423C121.114 151.457 121.114 151.492 121.097 151.543L123.854 151.44C124.457 151.457 125.061 151.44 125.664 151.388C128.093 151.181 130.471 150.44 132.556 149.544C136.64 147.752 139.639 145.391 139.742 145.305ZM119.116 149.148C119.029 149.148 118.943 149.148 118.857 149.148H119.116Z" fill="#FAD2C6"/>
<path d="M119.426 144.702C119.081 144.823 118.133 144.668 117.151 144.495L117.22 144.461C117.255 144.444 117.616 144.254 117.685 143.806C117.737 143.427 117.548 142.996 117.117 142.531C117.117 142.531 117.117 142.531 117.134 142.531C117.168 142.548 117.203 142.548 117.237 142.548C117.272 142.548 117.306 142.548 117.323 142.531C117.341 142.531 117.341 142.531 117.341 142.514C117.358 142.514 117.375 142.497 117.41 142.479L117.427 142.462C117.444 142.445 117.461 142.428 117.479 142.41C117.479 142.41 117.479 142.41 117.496 142.393C117.737 142.066 117.806 141.704 117.72 141.342C117.427 140.222 115.6 139.343 113.843 138.499C112.861 138.016 111.827 137.534 111.603 137.206C111.499 137.051 111.292 137.017 111.137 137.12L111.12 137.137C110.982 137.241 110.948 137.448 111.051 137.585C111.361 138.051 112.206 138.464 113.55 139.119C114.946 139.791 116.858 140.704 117.065 141.514C117.082 141.583 117.1 141.687 117.048 141.807C116.531 141.669 115.928 141.549 115.325 141.428C114.635 141.29 113.929 141.152 113.412 140.98C112.654 140.739 111.878 140.48 111.155 140.136C109.81 139.498 109.81 139.498 108.656 138.568C108.518 138.447 108.294 138.482 108.173 138.619C108.053 138.757 108.087 138.981 108.225 139.102C109.414 140.067 109.466 140.101 110.844 140.756C111.603 141.118 112.412 141.376 113.188 141.618C113.757 141.807 114.48 141.945 115.187 142.083C115.428 142.135 115.652 142.169 115.893 142.221C115.911 142.307 115.945 142.376 116.014 142.428C116.962 143.203 117.013 143.599 116.996 143.703C116.996 143.737 116.979 143.772 116.962 143.789C116.238 143.651 114.963 143.358 113.67 143.031C113.636 142.996 113.601 142.962 113.55 142.927C113.446 142.841 113.291 142.824 113.171 142.893C111.827 142.548 110.586 142.186 110.052 141.928L109.724 141.773C108.794 141.342 108.708 141.29 107.829 140.48C107.691 140.36 107.484 140.36 107.346 140.498C107.226 140.635 107.226 140.842 107.364 140.98C108.311 141.876 108.484 141.945 109.431 142.393L109.759 142.548C110.379 142.841 111.861 143.272 113.343 143.634C114.067 144.289 114.118 144.616 114.101 144.719C114.101 144.754 114.084 144.788 114.084 144.806C112.585 144.495 108.604 143.22 106.829 141.652C106.692 141.532 106.468 141.549 106.347 141.687C106.295 141.756 106.261 141.824 106.261 141.893C106.261 141.997 106.295 142.083 106.381 142.152C106.95 142.652 107.725 143.134 108.553 143.548C108.673 143.599 108.794 143.668 108.914 143.72C109.845 144.168 110.844 144.547 111.74 144.84C111.654 145.012 111.603 145.219 111.603 145.443C111.603 145.443 111.603 145.443 111.603 145.46C111.603 145.478 111.603 145.478 111.603 145.495C111.603 145.512 111.603 145.512 111.603 145.529C111.603 145.547 111.603 145.547 111.62 145.564C111.62 145.581 111.62 145.581 111.637 145.598C111.637 145.615 111.654 145.615 111.654 145.633C111.654 145.65 111.672 145.65 111.672 145.667C111.672 145.684 111.689 145.684 111.689 145.702L111.706 145.719C111.706 145.719 111.723 145.736 111.74 145.736L111.758 145.753C111.775 145.753 111.775 145.771 111.792 145.771C111.809 145.771 111.809 145.788 111.827 145.788H111.844C111.844 145.788 111.844 145.788 111.861 145.788C111.241 145.926 110.844 146.15 110.655 146.477C110.431 146.873 110.62 147.235 110.638 147.287L110.689 147.39L110.793 147.442C111.223 147.649 112.102 148.028 113.119 148.459C112.774 148.597 112.533 148.786 112.395 149.027C112.171 149.424 112.361 149.786 112.378 149.837L112.43 149.941L112.533 149.992C113.429 150.423 115.635 151.199 117.772 151.595C117.909 151.612 118.047 151.647 118.185 151.664C118.857 151.767 119.512 151.836 120.098 151.836C120.322 151.836 120.546 151.819 120.77 151.802C120.925 151.784 121.028 151.681 121.063 151.543C121.08 151.509 121.08 151.474 121.08 151.423C121.063 151.233 120.891 151.095 120.718 151.112C118.357 151.354 114.377 150.044 112.981 149.424C112.981 149.406 112.981 149.372 112.998 149.355C113.05 149.269 113.274 149.01 114.256 148.924C115.669 149.493 117.117 150.01 117.806 150.13L118.151 150.199C118.737 150.303 119.047 150.371 119.443 150.371C119.753 150.371 120.098 150.337 120.649 150.268C120.839 150.251 120.959 150.078 120.942 149.889C120.925 149.699 120.753 149.579 120.563 149.596C119.374 149.751 119.271 149.734 118.254 149.544L117.909 149.475C117.341 149.372 116.1 148.924 114.825 148.424C114.773 148.304 114.635 148.217 114.498 148.217C114.446 148.217 114.394 148.217 114.342 148.235C113.102 147.752 111.896 147.235 111.241 146.925C111.241 146.908 111.241 146.873 111.258 146.856C111.31 146.77 111.568 146.477 112.809 146.391C112.895 146.391 112.981 146.339 113.033 146.288C113.257 146.391 113.464 146.477 113.688 146.58C114.342 146.873 115.014 147.184 115.566 147.373C116.341 147.632 117.134 147.89 117.961 148.028C118.943 148.217 119.305 148.269 119.874 148.269C120.167 148.269 120.529 148.252 121.046 148.217C121.235 148.2 121.373 148.045 121.373 147.856C121.356 147.666 121.201 147.528 121.011 147.528C119.529 147.614 119.529 147.614 118.082 147.339C117.306 147.201 116.514 146.942 115.755 146.701C115.221 146.529 114.584 146.236 113.946 145.943C113.395 145.684 112.826 145.426 112.326 145.236C112.344 145.167 112.378 145.116 112.412 145.064C113.136 145.288 113.739 145.426 114.136 145.512L114.239 145.529L114.342 145.478C114.377 145.46 114.739 145.271 114.808 144.823V144.806C115.463 144.874 116.152 145.012 116.738 145.116C118.22 145.374 119.15 145.529 119.667 145.34C119.839 145.271 119.926 145.099 119.874 144.926V144.909C119.805 144.719 119.615 144.633 119.426 144.702ZM114.635 144.099C114.601 144.047 114.584 143.996 114.549 143.944C115.221 144.099 115.859 144.254 116.341 144.358C115.755 144.254 115.17 144.151 114.635 144.099Z" fill="#EBB6A5"/>
<path d="M118.564 117.149C118.306 116.321 118.168 115.443 118.151 114.564C118.133 113.668 118.254 112.772 118.564 111.876C117.927 112.582 117.496 113.513 117.289 114.478C117.082 115.443 117.065 116.459 117.203 117.459C117.341 118.441 117.651 119.406 118.03 120.302C118.219 120.75 118.426 121.198 118.65 121.629C118.874 122.06 119.116 122.473 119.34 122.887C119.581 123.283 119.805 123.679 119.994 124.058C120.201 124.438 120.356 124.817 120.477 125.179C120.598 125.54 120.649 125.902 120.632 126.264C120.615 126.626 120.529 127.005 120.373 127.401C120.236 127.798 120.046 128.211 119.857 128.642C119.77 128.866 119.667 129.073 119.581 129.314C119.495 129.538 119.409 129.779 119.34 130.021C119.219 130.503 119.133 131.02 119.167 131.52C119.184 131.778 119.236 132.02 119.322 132.261C119.408 132.502 119.529 132.709 119.684 132.898C119.564 132.433 119.564 131.985 119.667 131.554C119.719 131.348 119.788 131.141 119.874 130.934C119.96 130.727 120.046 130.538 120.167 130.348C120.58 129.59 121.183 128.883 121.666 127.97C121.907 127.522 122.114 127.005 122.2 126.436C122.303 125.868 122.252 125.282 122.131 124.748C122.011 124.214 121.804 123.714 121.597 123.266C121.373 122.818 121.132 122.387 120.89 121.991C119.943 120.388 119.064 118.82 118.564 117.149Z" fill="#B8B8FF"/>
<path d="M108.587 143.582C108.691 143.651 108.811 143.703 108.932 143.737C108.811 143.685 108.691 143.634 108.587 143.582Z" fill="#FAD2C6"/>
<path d="M106.847 141.669C108.622 143.237 112.602 144.513 114.101 144.823C114.119 144.806 114.119 144.771 114.119 144.737C114.119 144.65 114.084 144.306 113.36 143.651C111.878 143.272 110.414 142.858 109.776 142.565L109.449 142.41C108.501 141.962 108.329 141.876 107.381 140.997C107.243 140.877 107.243 140.653 107.364 140.515C107.484 140.377 107.708 140.377 107.846 140.498C108.725 141.308 108.811 141.359 109.742 141.79L110.069 141.945C110.603 142.186 111.844 142.565 113.188 142.91C113.309 142.841 113.464 142.841 113.567 142.945C113.602 142.979 113.653 143.013 113.688 143.048C114.98 143.375 116.255 143.668 116.979 143.806C116.996 143.789 116.996 143.754 117.013 143.72C117.013 143.617 116.979 143.22 116.031 142.445C115.962 142.393 115.928 142.307 115.911 142.238C115.687 142.186 115.445 142.152 115.204 142.1C114.498 141.962 113.774 141.824 113.205 141.635C112.43 141.376 111.62 141.118 110.862 140.773C109.483 140.119 109.432 140.084 108.243 139.119C108.105 138.998 108.07 138.792 108.191 138.637C108.311 138.499 108.518 138.464 108.673 138.585C109.828 139.515 109.828 139.515 111.172 140.153C111.896 140.498 112.671 140.739 113.429 140.997C113.963 141.17 114.67 141.308 115.342 141.445C115.928 141.566 116.548 141.687 117.065 141.824C117.1 141.704 117.1 141.6 117.082 141.532C116.876 140.722 114.963 139.808 113.567 139.136C112.223 138.482 111.379 138.068 111.069 137.603C110.965 137.448 111 137.258 111.137 137.155C111.086 137.086 111.034 137.017 110.965 136.948C109.828 135.638 107.519 133.639 107.519 133.639C105.709 131.623 103.607 130.865 101.781 130.658L99.7128 134.622C99.7128 134.622 99.1097 134.622 98.093 134.587C98.3515 135.828 99.4716 137.465 102.746 139.343L106.295 141.928C106.295 141.859 106.33 141.773 106.381 141.721C106.502 141.549 106.709 141.549 106.847 141.669ZM109.259 140.997L109.483 141.152C109.397 141.101 109.328 141.049 109.259 140.997Z" fill="#FAD2C6"/>
<path d="M101.78 130.641C101.78 130.641 98.5408 126.471 91.5619 123.404C92.4407 120.095 93.4575 116.683 94.6465 113.306C92.6131 111.307 91.2173 108.929 90.7348 106.344C86.6853 110.394 78.8621 119.371 76.1912 122.473C75.8121 122.801 75.5191 123.145 75.2779 123.542C75.2606 123.559 75.2434 123.593 75.2262 123.61C74.3302 125.144 74.4508 127.074 75.5364 128.78C75.6914 128.987 75.8638 129.194 76.0533 129.383C78.5175 131.882 84.0489 133.191 89.1323 133.881C92.751 134.363 96.1628 134.535 98.0756 134.587C99.0922 134.622 99.6953 134.622 99.6953 134.622L101.78 130.641Z" fill="#F8D0C4"/>
<path d="M57.9257 53.0636C58.4599 55.2175 58.8906 57.3888 59.1836 59.5944C59.9073 65.0224 60.3381 69.3476 60.5621 72.7595C63.4743 73.6728 66.7311 74.8618 70.1085 76.2231C69.6605 61.6795 66.2486 58.6811 66.2486 58.6811C66.2486 58.6811 67.7823 49.6172 64.9046 41.8112C63.1641 41.8801 61.148 41.3977 58.9423 40.2431C56.8228 39.1231 55.5649 37.262 55.7028 35.4182C55.7373 34.9702 55.7889 34.5049 55.8406 34.0569C55.2203 34.0741 54.6 34.1086 53.9796 34.1775C53.6522 34.9874 53.3076 36.297 52.9285 37.9858C55.2031 40.5878 56.5299 47.5494 57.9257 53.0636ZM64.8873 68.2275C65.1802 67.9174 65.68 67.9001 65.9901 68.2103C66.3003 68.5205 66.3003 69.0202 66.0074 69.3476C65.7144 69.6578 65.2147 69.675 64.9046 69.3648C64.5944 69.0547 64.5771 68.5377 64.8873 68.2275ZM64.0946 56.2859C63.8017 56.5961 63.302 56.6133 62.9918 56.3031C62.6816 55.993 62.6816 55.4933 62.9746 55.1658C63.2675 54.8557 63.7672 54.8384 64.0774 55.1486C64.3876 55.4588 64.3876 55.9757 64.0946 56.2859ZM62.854 43.4827C63.1469 43.1725 63.6466 43.1553 63.9568 43.4655C64.267 43.7756 64.267 44.2754 63.9741 44.6028C63.6811 44.9129 63.1813 44.9302 62.8712 44.62C62.561 44.2926 62.561 43.7929 62.854 43.4827Z" fill="white"/>
<path d="M69.3331 39.7434C68.6438 40.6912 67.1792 41.4666 66.0247 41.6734C66.0247 41.6734 69.3848 51.013 68.213 59.0602C70.0741 63.3509 71.556 69.7612 71.6939 76.8607C75.1747 78.2909 78.7417 79.8935 82.188 81.5305C85.2036 59.2498 79.0347 45.5333 79.0347 45.5333C77.9318 42.7762 76.0018 40.4671 73.5549 38.8474C72.4004 39.3298 70.9701 39.6745 69.3331 39.7434Z" fill="white"/>
<path d="M76.1741 93.9029C74.1752 93.5238 71.9006 93.1619 69.5571 92.7311C67.9028 98.0041 65.1974 103.105 61.079 107.464C59.6143 107.55 59.6661 107.344 59.6661 107.344C59.6661 107.344 64.8356 101.623 67.9201 92.421C65.6283 91.9729 63.3536 91.456 61.3548 90.8012C58.1152 89.7328 54.8584 89.6811 48.3448 86.5277C48.3275 86.4932 48.3103 86.4588 48.2931 86.4243C47.9485 86.2692 47.5866 86.0969 47.2247 85.9074C46.9145 85.6489 46.5871 85.3042 46.2597 84.9251C44.7088 91.3871 42.2792 97.6939 39.2119 102.071C45.243 104.845 52.4114 106.896 59.5282 107.482C67.0757 108.102 72.1763 104.311 75.4848 100.02C76.9495 98.1247 78.0695 96.1258 78.8967 94.3682C78.0006 94.2303 77.0874 94.0924 76.1741 93.9029ZM58.5288 103.001C58.8217 102.691 59.3214 102.674 59.6316 102.984C59.9417 103.294 59.9418 103.794 59.6488 104.121C59.3559 104.432 58.8562 104.449 58.546 104.139C58.2358 103.828 58.2358 103.311 58.5288 103.001ZM62.4576 96.5566C62.7505 96.2464 63.2502 96.2292 63.5604 96.5394C63.8706 96.8495 63.8706 97.3492 63.5776 97.6594C63.2847 97.9696 62.785 97.9868 62.4748 97.6767C62.1646 97.3837 62.1646 96.884 62.4576 96.5566Z" fill="white"/>
<path d="M58.9596 40.2259C61.1652 41.3804 63.1814 41.8629 64.9218 41.794C64.9046 41.7768 64.9045 41.7423 64.8873 41.7251C65.5249 41.57 66.0246 41.6734 66.0246 41.6734C67.1791 41.4666 68.661 40.6912 69.3331 39.7434C67.0412 39.864 64.3703 39.4677 61.5271 38.2442C57.8567 36.6761 56.6333 33.9535 56.3748 31.2481C56.168 32.1614 55.9785 33.0919 55.8406 34.0397C55.7717 34.4877 55.7372 34.953 55.7028 35.401C55.5822 37.262 56.8401 39.1231 58.9596 40.2259Z" fill="#F4C0B5"/>
<path d="M67.5583 7.14089C64.8529 6.89965 62.4232 10.8802 61.9924 11.6384C61.8718 12.1898 61.6994 12.8791 61.4237 13.62C61.3203 15.9463 61.9924 22.8907 64.9908 24.545C66.9207 25.6134 69.9879 25.6134 72.6071 25.1653C72.6244 23.3215 72.6761 21.495 72.7106 19.6512C72.7106 19.565 72.7278 19.4444 72.7623 19.3065C72.8312 18.9791 73.2964 18.1865 73.6411 18.7896C73.71 18.9102 73.71 19.0481 73.7272 19.1859C73.8306 21.1848 74.0719 22.8218 74.9507 24.6139C75.7778 24.3554 76.4499 24.0453 76.8979 23.7351C76.6395 22.684 76.2948 21.9947 76.2948 21.9947C76.605 20.4783 76.829 18.9447 76.9496 17.48C76.5705 17.187 75.4676 17.3938 75.1919 17.5834C74.6233 17.9625 74.0891 17.0492 74.6578 16.6701C75.2264 16.291 76.2258 16.1703 77.0185 16.4116C77.1047 14.3438 76.9669 12.3966 76.4671 10.7423C72.5211 9.57058 70.5566 7.4166 67.5583 7.14089ZM65.8523 17.5489C66.7312 15.6189 69.6605 15.3088 71.2459 16.515C71.78 16.9285 71.2631 17.8418 70.7117 17.4283C69.5571 16.5494 67.4204 16.6528 66.7656 18.1003C66.4899 18.7034 65.5766 18.1692 65.8523 17.5489ZM69.4883 21.5122C69.1781 21.5984 68.8507 21.426 68.7645 21.1159C68.6783 20.8057 68.8506 20.4783 69.1608 20.3921C69.471 20.306 69.7984 20.4783 69.8846 20.7885C69.988 21.0986 69.7984 21.426 69.4883 21.5122ZM75.2092 20.3577C75.5193 20.2715 75.8468 20.4438 75.9329 20.754C76.0191 21.0642 75.8467 21.3916 75.5366 21.4777C75.2264 21.5639 74.899 21.3916 74.8129 21.0814C74.7095 20.7712 74.899 20.4438 75.2092 20.3577Z" fill="#FFD6CA"/>
<path d="M63.9739 44.5855C64.2669 44.2754 64.2668 43.7584 63.9567 43.4483C63.6465 43.1381 63.1468 43.1553 62.8539 43.4655C62.5609 43.7757 62.5609 44.2926 62.871 44.6028C63.1812 44.913 63.681 44.8957 63.9739 44.5855Z" fill="#CED9F2"/>
<path d="M66.0073 69.3304C66.3003 69.0202 66.3003 68.5032 65.9901 68.1931C65.6799 67.8829 65.1802 67.9001 64.8873 68.2103C64.5943 68.5205 64.5943 69.0374 64.9045 69.3476C65.2147 69.6578 65.6972 69.6578 66.0073 69.3304Z" fill="#CED9F2"/>
<path d="M62.9744 55.1831C62.6815 55.4933 62.6815 56.0102 62.9917 56.3204C63.3018 56.6306 63.8016 56.6133 64.0945 56.3031C64.3874 55.993 64.3874 55.476 64.0772 55.1659C63.7671 54.8557 63.2674 54.8557 62.9744 55.1831Z" fill="#CED9F2"/>
<path d="M62.4748 97.6939C62.785 98.004 63.2847 97.9868 63.5776 97.6766C63.8706 97.3665 63.8706 96.8495 63.5604 96.5566C63.2502 96.2464 62.7505 96.2636 62.4576 96.5738C62.1646 96.884 62.1647 97.3837 62.4748 97.6939Z" fill="#CED9F2"/>
<path d="M59.6487 104.104C59.9416 103.794 59.9416 103.277 59.6314 102.967C59.3213 102.657 58.8216 102.674 58.5286 102.984C58.2357 103.294 58.2357 103.811 58.5459 104.121C58.856 104.432 59.3557 104.432 59.6487 104.104Z" fill="#CED9F2"/>
<path d="M66.7655 18.0831C67.4203 16.6356 69.5571 16.5494 70.7116 17.411C71.2458 17.8246 71.78 16.9113 71.2458 16.4977C69.6605 15.2915 66.7311 15.6017 65.8523 17.5316C65.5766 18.1692 66.4898 18.7034 66.7655 18.0831Z" fill="#B26B5E"/>
<path d="M74.6577 16.6701C74.089 17.0492 74.6232 17.9624 75.1918 17.5833C75.4675 17.3938 76.5704 17.2042 76.9495 17.4799C77.0012 17.5144 77.0529 17.5833 77.0701 17.635C77.2597 18.2898 78.2936 18.0141 78.0868 17.3593C77.9317 16.8596 77.5181 16.5667 77.0184 16.3943C76.2257 16.1703 75.2263 16.291 74.6577 16.6701Z" fill="#B26B5E"/>
<path d="M61.5443 38.2615C64.3876 39.4677 67.0585 39.864 69.3503 39.7606C70.9701 39.6745 72.4176 39.3471 73.5721 38.8646C75.0713 38.2442 76.1052 37.3826 76.5532 36.5038C76.6049 36.4004 76.6566 36.297 76.7083 36.1937C77.9318 33.4193 79.1207 26.4922 76.9495 23.7351C76.9323 23.7523 76.915 23.7523 76.915 23.7695C76.467 24.0797 75.7778 24.3726 74.9679 24.6484C75.0023 24.7001 75.0196 24.769 75.054 24.8207C75.1919 25.0964 75.347 25.4238 75.3814 25.734C75.4159 25.9407 75.3815 26.1475 75.2609 26.3026C75.123 26.4749 74.8989 26.5439 74.6922 26.5611C74.1407 26.6128 72.969 26.6989 72.7105 26.0441C72.6416 25.8718 72.6416 25.665 72.6416 25.4755C72.6416 25.3721 72.6416 25.2859 72.6416 25.1825C70.0224 25.6306 66.9551 25.6306 65.0251 24.5622C62.0268 22.9079 61.3548 15.9635 61.4582 13.6372C61.7167 12.9135 61.9062 12.207 62.0268 11.6556C62.4576 10.8974 64.8701 6.91685 67.5927 7.1581C70.591 7.41657 72.5554 9.57055 76.4843 10.7423C76.5876 10.7423 81.2058 10.6906 81.5849 7.12363C81.964 3.53942 79.9306 -0.682365 74.3648 0.0930652C68.7989 0.868495 64.4909 0.472166 62.9746 0.558325C61.5271 0.644484 57.4777 1.26483 56.0474 5.95187C56.013 6.00357 55.9957 6.05526 55.9613 6.10696C53.9451 10.0703 53.6867 14.9986 55.0997 17.1008C56.3059 16.1531 58.1497 18.3243 59.2008 19.8062C59.8728 20.754 60.3381 21.8396 60.5104 22.9941C60.6483 23.9763 60.5794 24.9585 59.735 24.993C58.8217 25.0275 57.9601 24.7001 57.2019 24.1486C56.9262 25.665 56.1336 28.4566 56.3921 31.2481C56.6333 33.9708 57.874 36.6934 61.5443 38.2615ZM73.4859 28.491C73.9512 28.4049 74.158 29.1286 73.6755 29.1975C73.6583 29.1975 73.6238 29.1976 73.6066 29.2148C73.193 30.1798 71.78 30.6623 70.5393 30.5072C68.954 30.3004 66.6277 29.6283 65.3353 27.8362C65.163 27.7328 64.9735 27.6467 64.8011 27.5261C64.3876 27.2848 64.7667 26.6472 65.1803 26.8885C67.6961 28.4049 70.6082 29.008 73.4859 28.491ZM65.1113 26.406C64.3875 26.4922 63.9567 27.1814 64.0774 27.8879C64.1635 28.3532 63.4571 28.56 63.3709 28.0775C63.1469 26.8713 63.8878 25.8029 65.1113 25.665C65.5938 25.6133 65.5765 26.3543 65.1113 26.406Z" fill="#B26B5E"/>
<path d="M68.2129 59.0602C69.3847 51.0302 66.0245 41.6734 66.0245 41.6734C66.0245 41.6734 65.542 41.57 64.8872 41.7251C64.9044 41.7423 64.9045 41.7768 64.9217 41.794C67.7994 49.6 66.2657 58.6639 66.2657 58.6639C66.2657 58.6639 69.6776 61.6622 70.1257 76.2059C70.6426 76.4126 71.1768 76.6367 71.711 76.8434C71.5559 69.7612 70.0739 63.351 68.2129 59.0602Z" fill="#CED9F2"/>
<path d="M59.666 107.361C59.666 107.361 59.6143 107.585 61.079 107.482C65.1973 103.122 67.9028 98.0213 69.557 92.7484C69.0228 92.645 68.4714 92.5416 67.9373 92.4382C64.8528 101.64 59.666 107.361 59.666 107.361Z" fill="#CED9F2"/>
<path d="M73.7099 19.1859C73.7099 19.048 73.6927 18.9102 73.6238 18.7895C73.2791 18.1864 72.8138 18.9963 72.7449 19.3065C72.7104 19.4444 72.7104 19.565 72.6932 19.6511C72.6587 21.4949 72.6243 23.3215 72.5898 25.1653C72.5898 25.2687 72.5898 25.3549 72.5898 25.4582C72.5898 25.6478 72.5898 25.8373 72.6588 26.0269C72.9172 26.6817 74.089 26.5783 74.6404 26.5439C74.8472 26.5266 75.0712 26.4577 75.209 26.2854C75.3296 26.1303 75.3641 25.9063 75.3297 25.7167C75.2952 25.4066 75.1401 25.0791 75.0023 24.8034C74.9678 24.7517 74.9506 24.6828 74.9161 24.6311C74.0718 22.8218 73.8305 21.1848 73.7099 19.1859Z" fill="#F4C0B5"/>
<path d="M75.5363 21.4777C75.8464 21.3915 76.036 21.0641 75.9326 20.754C75.8465 20.4438 75.519 20.2542 75.2089 20.3576C74.8987 20.4438 74.7092 20.7712 74.8126 21.0814C74.8987 21.3915 75.2261 21.5638 75.5363 21.4777Z" fill="#4B3C4F"/>
<path d="M69.1608 20.3921C68.8506 20.4783 68.6611 20.8057 68.7645 21.1159C68.8506 21.426 69.1781 21.6156 69.4883 21.5122C69.7984 21.426 69.9879 21.0986 69.8846 20.7885C69.7984 20.4783 69.471 20.2887 69.1608 20.3921Z" fill="#4B3C4F"/>
<path d="M59.7178 25.0102C60.5622 24.9758 60.6311 23.9763 60.4932 23.0114C60.3209 21.8568 59.8556 20.7712 59.1836 19.8235C58.1325 18.3415 56.2887 16.1703 55.0825 17.1181C55.0308 17.1698 54.9791 17.2043 54.9101 17.2732C53.6178 18.6862 54.8929 22.4772 57.2019 24.1659C57.9429 24.7173 58.8045 25.0447 59.7178 25.0102ZM56.9435 21.7879C56.5988 22.0464 56.2542 21.4605 56.5988 21.202C56.8745 20.9952 57.2019 20.8919 57.5293 20.8746C57.1502 20.3404 56.4438 19.565 55.7545 19.5478C55.3237 19.5478 55.3237 18.8585 55.7545 18.8757C56.5816 18.893 57.3398 19.5822 57.8395 20.1853C58.4082 20.8746 58.7873 21.6673 58.9596 22.5461C59.0458 22.9769 58.3909 23.1492 58.3048 22.7184C58.2186 22.3393 58.1153 21.9602 57.943 21.5984C57.5983 21.495 57.2536 21.5467 56.9435 21.7879Z" fill="#FFD6CA"/>
<path d="M58.3219 22.7184C58.408 23.1492 59.0629 22.9596 58.9767 22.5461C58.8044 21.6673 58.4253 20.8746 57.8566 20.1853C57.3569 19.5822 56.5987 18.8929 55.7716 18.8757C55.3408 18.8757 55.3408 19.5477 55.7716 19.5477C56.4609 19.5477 57.1673 20.3404 57.5464 20.8746C57.219 20.8918 56.8916 20.9952 56.6159 21.202C56.2713 21.4605 56.5987 22.0463 56.9606 21.7879C57.2707 21.5639 57.6153 21.4949 57.9772 21.6156C58.1151 21.9602 58.2357 22.3221 58.3219 22.7184Z" fill="#EBB6A5"/>
<path d="M35.8346 105.827C37.0408 104.862 38.1609 103.57 39.2292 102.071C42.2965 97.6939 44.7262 91.387 46.277 84.9251C46.6044 85.3214 46.9146 85.6488 47.242 85.9073C47.6039 86.0969 47.9657 86.2692 48.3103 86.4243C48.3276 86.4587 48.3449 86.5104 48.3621 86.5277C54.8929 89.6983 58.1325 89.75 61.3721 90.8011C63.3882 91.456 65.6628 91.9729 67.9374 92.4209C68.4716 92.5243 69.023 92.6277 69.5572 92.7311C71.8835 93.1447 74.1753 93.5238 76.1742 93.9029C77.0875 94.0752 78.0007 94.2303 78.914 94.3681C78.0869 96.1258 76.9669 98.1246 75.5022 100.02L71.177 116.666C73.934 116.89 76.9152 116.632 78.9485 115.012C81.5677 112.927 85.4449 105.276 87.9952 95.3331C90.2698 95.5054 92.5271 95.6777 94.8362 95.9018C94.1124 94.506 94.0435 93.0413 94.1125 91.9729C94.1469 91.5593 94.2503 91.2147 94.4226 90.9218C94.6639 90.3531 95.1292 89.5777 96.0252 88.7506C94.6294 87.9407 93.113 87.0791 91.4932 86.2175C94.3709 83.6155 95.6978 81.6338 97.4899 79.9107C100.936 76.6194 104.383 71.7945 107.191 68.2964C111.62 62.8167 114.653 57.2336 118.513 51.6505C118.547 51.6161 118.564 51.5988 118.599 51.5644C118.737 51.4265 118.84 51.2714 118.926 51.1164C115.256 52.0986 112.309 52.202 111.965 50.2892L111.947 50.3065L111.93 49.9963C111.93 49.9791 111.93 49.9618 111.93 49.9446L111.844 48.4799C106.519 51.7539 99.8334 56.4754 93.5783 61.3693C92.6994 58.6294 91.545 55.5449 89.9941 52.0986C88.3054 46.4121 85.7895 42.2248 83.153 39.1747C81.3954 37.1414 79.0346 36.1936 76.6911 36.1764C76.6394 36.2798 76.5878 36.4004 76.5361 36.4866C76.088 37.3654 75.0368 38.227 73.5549 38.8473C76.0018 40.4671 77.9146 42.7762 79.0347 45.5333C79.0347 45.5333 85.2036 59.2498 82.188 81.5304C78.7417 79.8934 75.1747 78.2909 71.6939 76.8606C71.1597 76.6366 70.6427 76.4298 70.1086 76.2231C66.7311 74.8618 63.4743 73.6728 60.5622 72.7595C60.3382 69.3476 59.9074 65.0396 59.1836 59.5944C58.8907 57.3887 58.4599 55.2175 57.9257 53.0635C56.53 47.5494 55.2203 40.5877 52.9629 37.9685C53.3248 36.2798 53.6867 34.9702 54.0141 34.1603C54.1347 33.8501 54.2553 33.6089 54.376 33.4538C54.376 33.4538 54.3243 33.4193 54.2381 33.4193C44.9674 33.988 39.7807 36.521 33.8012 44.9301C31.7851 47.7562 29.0108 55.1141 29.0108 55.1141C29.0108 55.1141 11.2793 97.6594 13.3988 104.414C14.157 106.809 16.3799 108.36 19.2231 109.136C24.341 110.514 31.5438 109.291 35.8346 105.827Z" fill="#A31134"/>
<path d="M106.76 86.2692C106.709 86.3209 106.657 86.3726 106.623 86.4243C107.674 86.2003 109.087 85.8212 110.638 85.3731C111.74 84.3737 112.964 83.2881 114.187 82.2197L106.64 83.8567C106.933 84.1841 107.157 84.6149 107.174 85.063C107.208 85.5455 107.019 85.959 106.76 86.2692Z" fill="#9292FF"/>
<path d="M123.958 81.0652C124.406 80.9101 124.699 80.4449 124.613 79.9624L117.513 81.496L115.152 83.9774C115.669 83.8223 116.169 83.65 116.686 83.4949C119.805 82.4955 122.631 81.5305 123.958 81.0652Z" fill="#9292FF"/>
<path d="M107.932 87.9579C108.087 87.9751 108.242 88.0096 108.397 88.0441C108.828 88.1647 109.276 88.4404 109.517 88.8367C109.673 89.0952 109.759 89.3709 109.776 89.6294L115.152 83.9774L117.513 81.496L122.476 76.292C122.114 75.9818 121.562 75.9818 121.201 76.292C120.029 77.257 117.41 79.4282 114.704 81.7717C114.532 81.9268 114.342 82.0819 114.17 82.237C112.947 83.3053 111.723 84.3737 110.62 85.3904C109.586 86.3381 108.656 87.2169 107.932 87.9579ZM114.773 82.461C115.049 82.4093 115.325 82.6161 115.359 82.8918C115.411 83.1675 115.204 83.4432 114.928 83.4776C114.653 83.5293 114.377 83.3226 114.342 83.0468C114.308 82.7539 114.497 82.4954 114.773 82.461Z" fill="#B8B8FF"/>
<path d="M94.4223 90.9218C94.25 91.2147 94.1294 91.5421 94.1121 91.9729C94.0432 93.0413 94.1121 94.506 94.8358 95.9018C95.2839 96.7806 95.9904 97.625 97.076 98.3315C97.972 98.9173 99.1094 99.3826 100.591 99.6755C101.418 99.8478 102.349 99.9512 103.383 100.003C103.469 99.9685 103.538 99.934 103.607 99.8995C104.227 100.124 105.744 100.554 106.416 99.71C107.243 98.6416 106.329 97.6077 106.329 97.6077C106.329 97.6077 107.656 98.1764 107.863 96.7806C107.949 96.2292 107.656 95.6778 107.277 95.2125C107.742 94.6783 108.19 93.8684 107.622 93.0585C107.139 93.4032 106.622 93.6961 106.036 93.8684C105.675 93.9718 105.296 94.058 104.899 94.0235C104.503 94.0063 104.055 93.8512 103.727 93.5238C103.4 93.1964 103.228 92.7139 103.193 92.2486C103.176 91.8006 103.262 91.3526 103.4 90.9563C103.59 90.4221 103.9 89.9568 104.262 89.5432C103.503 89.3365 102.625 89.0952 101.763 88.8884C102.159 88.5955 102.642 88.1819 103.176 87.7339C102.676 87.7684 102.159 87.7511 101.66 87.6305C101.298 87.5444 100.936 87.4237 100.591 87.1997C100.316 87.0102 100.057 86.7345 99.902 86.3898C99.5402 86.5621 99.1955 86.7517 98.8509 86.9068C97.6274 87.4927 96.7313 88.113 96.0593 88.7161C95.1288 89.5777 94.6635 90.3531 94.4223 90.9218Z" fill="#FAD2C6"/>
<path d="M105.985 84.6322C106.192 84.77 106.364 84.9424 106.45 85.1664C106.536 85.4076 106.519 85.7178 106.381 86.028C106.243 86.3209 106.019 86.5966 105.744 86.8379C105.209 87.3031 104.503 87.5788 103.796 87.6994C104.503 87.5788 105.209 87.3893 105.864 87.0102C106.123 86.8551 106.381 86.6655 106.605 86.4415C106.657 86.3898 106.709 86.3381 106.743 86.2864C107.002 85.9763 107.191 85.5455 107.174 85.0802C107.157 84.6322 106.933 84.2014 106.64 83.874C106.622 83.8568 106.605 83.8395 106.605 83.8223C106.536 83.7534 106.45 83.6844 106.381 83.6155C106.329 83.9257 106.192 84.2703 105.985 84.6322Z" fill="#D8D4FF"/>
<path d="M100.557 87.2342C100.902 87.4582 101.263 87.5788 101.625 87.665C102.125 87.7683 102.642 87.8028 103.142 87.7684C103.366 87.7511 103.59 87.7339 103.796 87.6994C103.59 87.7339 103.366 87.7511 103.159 87.7511C102.642 87.7511 102.142 87.6822 101.677 87.4754C101.35 87.3376 101.057 87.148 100.833 86.9068C100.609 86.6655 100.505 86.3726 100.505 86.1141V86.0969C100.54 85.5799 100.988 85.1664 101.505 84.8906C102.039 84.5977 102.642 84.4254 103.262 84.322C103.417 84.3048 103.555 84.2875 103.71 84.2703C104.4 83.8395 105.003 83.4432 105.451 83.0985C104.675 82.7884 103.831 82.7539 103.038 82.8573C102.228 82.9952 101.436 83.2881 100.781 83.8395C100.453 84.1152 100.161 84.4426 99.9538 84.8562C99.747 85.2697 99.6608 85.7695 99.7815 86.2175C99.7987 86.2864 99.8331 86.3553 99.8504 86.4243C100.005 86.7689 100.281 87.0446 100.557 87.2342Z" fill="#D8D4FF"/>
<path d="M102.435 85.0285C101.815 85.3732 101.16 85.735 100.505 86.0797V86.0969C100.505 86.3554 100.609 86.6483 100.833 86.8896C101.057 87.1308 101.35 87.3204 101.677 87.4582C102.142 87.6478 102.642 87.7339 103.159 87.7339C103.486 87.441 103.831 87.1308 104.176 86.8034C104.899 86.0969 105.571 85.3387 105.985 84.6322C106.192 84.2703 106.33 83.9257 106.381 83.5983C106.433 83.202 106.347 82.8573 106.037 82.5644C105.899 82.7195 105.709 82.8918 105.468 83.0641C105.02 83.4088 104.434 83.8223 103.728 84.2359C103.331 84.5116 102.901 84.7701 102.435 85.0285Z" fill="#FAD2C6"/>
<path d="M107.57 93.0413C107.071 93.3687 106.536 93.5927 105.95 93.6617C105.606 93.7134 105.244 93.6961 104.934 93.5927C104.624 93.4893 104.382 93.2998 104.244 93.0586C104.003 92.5761 104.193 92.0074 104.503 91.4905C104.813 90.9735 105.261 90.5255 105.744 90.1291C105.813 90.0775 105.864 90.0258 105.933 89.9913C106.381 89.6639 106.846 89.3882 107.346 89.2159C107.622 89.1297 107.898 89.0608 108.173 89.0608C108.449 89.0608 108.725 89.1297 108.932 89.302C109.121 89.4571 109.242 89.7156 109.293 90.0258C109.449 90.0258 109.604 90.043 109.759 90.043C109.776 89.9224 109.776 89.7845 109.776 89.6467C109.759 89.3709 109.673 89.0952 109.517 88.854C109.259 88.4577 108.828 88.182 108.397 88.0613C108.242 88.0096 108.087 87.9924 107.932 87.9752C107.656 87.9407 107.363 87.9579 107.088 87.9924C106.243 88.113 105.485 88.4921 104.83 89.0091C104.624 89.1814 104.417 89.3709 104.227 89.595C103.865 90.0085 103.555 90.4738 103.366 91.008C103.211 91.4043 103.124 91.8351 103.159 92.3003C103.193 92.7484 103.366 93.2309 103.693 93.5755C104.038 93.9029 104.469 94.058 104.865 94.0752C105.261 94.0925 105.64 94.0235 106.002 93.9201C106.588 93.6961 107.105 93.4032 107.57 93.0413C107.691 92.9724 107.794 92.8862 107.898 92.8001C107.794 92.8862 107.691 92.9724 107.57 93.0413Z" fill="#D8D4FF"/>
<path d="M107.915 92.8173C108.139 92.645 108.346 92.4382 108.553 92.2486H108.518C108.311 92.4382 108.122 92.645 107.915 92.8173Z" fill="#D8D4FF"/>
<path d="M109.311 90.0257C108.914 90.0085 108.535 90.0085 108.173 90.0085C107.88 90.0085 107.588 90.0085 107.312 90.0085C106.778 90.0085 106.312 90.0085 105.95 90.0085C105.882 90.0602 105.83 90.1119 105.761 90.1463C105.278 90.5427 104.83 90.9907 104.52 91.5077C104.21 92.0246 104.021 92.5932 104.262 93.0757C104.382 93.2998 104.624 93.5065 104.951 93.6099C105.261 93.7133 105.623 93.7305 105.968 93.6789C106.536 93.6099 107.088 93.3687 107.587 93.0585C107.381 92.7828 107.071 92.5071 106.588 92.2486C106.588 92.2314 106.588 92.2141 106.588 92.2141L107.26 92.2314L108.501 92.2486H108.535L114.463 92.352C114.911 92.352 115.359 92.1625 115.635 91.8006C116.583 90.5771 112.998 90.1636 109.759 90.0429C109.621 90.0429 109.466 90.0257 109.311 90.0257Z" fill="#FAD2C6"/>
<path d="M114.928 83.4777C115.204 83.426 115.411 83.1675 115.359 82.8918C115.307 82.6161 115.049 82.4093 114.773 82.461C114.498 82.5127 114.291 82.7712 114.342 83.0469C114.394 83.3226 114.653 83.5121 114.928 83.4777Z" fill="#9292FF"/>
<path d="M65.3525 27.8535C66.6449 29.6456 68.9712 30.3176 70.5565 30.5244C71.7972 30.6795 73.2102 30.197 73.6238 29.232C70.7633 29.7145 67.8856 29.2148 65.3525 27.8535Z" fill="white"/>
<path d="M65.1974 26.9057C64.7838 26.6645 64.422 27.3021 64.8183 27.5433C64.9906 27.6467 65.163 27.7501 65.3525 27.8535C67.8856 29.232 70.7633 29.7145 73.6238 29.232C73.641 29.232 73.6755 29.232 73.6927 29.2148C74.1579 29.1286 73.9684 28.4221 73.5031 28.5083C70.6082 29.008 67.696 28.4049 65.1974 26.9057Z" fill="#EBB6A5"/>
<path d="M65.1112 25.665C63.8877 25.8029 63.1468 26.8713 63.3708 28.0775C63.457 28.5427 64.1634 28.3532 64.0773 27.8879C63.9567 27.1987 64.3875 26.4922 65.1112 26.406C65.5764 26.3543 65.5937 25.6133 65.1112 25.665Z" fill="#EBB6A5"/>
</svg>
